<?xml version="1.0" encoding="utf-8"?>
<!-- Generator: Adobe Illustrator 27.5.0, SVG Export Plug-In . SVG Version: 6.00 Build 0)  -->
<svg version="1.1" id="Layer_1" xmlns="http://www.w3.org/2000/svg" xmlns:xlink="http://www.w3.org/1999/xlink" x="0px" y="0px"
	 viewBox="0 0 2219 768" style="enable-background:new 0 0 2219 768;" xml:space="preserve">
<style type="text/css">
	.st0{fill:#005FCC;}
	.st1{fill:#D3D2D2;}
	.st2{fill:#4295EE;}
	.st3{fill:#89898A;}
	.st4{fill:#545253;}
	.st5{fill:#FEFEFF;}
	.st6{fill:#008FFF;}
	.st7{fill:#65CC00;}
	.st8{fill:#00B7D4;}
	.st9{fill:#BB0099;}
	.st10{fill:#EE0101;}
	.st11{fill:#FE8500;}
	.st12{fill:#FECB00;}
	.st13{fill:#E9A1DE;}
	.st14{fill:#1E1E1E;}
	.st15{fill:url(#Logo_00000096049894805465172100000009488839451953177249_);}
</style>
<path d="M1064.8,718.2c-0.4-2.4-0.4-4.8-0.4-7.2c0-107.6,0-215.3,0-322.9c0-2.6,0-5.1,0-7.5c0.9-0.8,1.7-0.5,2.5-0.5
	c38.4,0,76.8-0.2,115.2,0.1c9.4,0.1,18.9,0.9,28.3,2.2c6.5,0.9,13,2,19.4,3.2c5.7,1.1,11.2,3,16.9,4.5c5.2,1.4,10.4,3.4,15.1,5.8
	c12.8,6.2,24.5,14.1,33.9,25.1c3.9,4.6,7.4,9.5,10.4,14.8c4.9,8.7,7.8,18.1,9.9,27.7c0.3,1.6,0.5,3.2,0.7,4.8c0,0.2,0,0.4,0,0.6
	c0,0.5,0,0.9,0,1.4c-0.1,1.8-0.2,3.6-0.3,5.2c0.6,0.9,1.1-0.4,1.6,0.3c0,7.6,0,15.2,0,22.8c-0.4,2.1-0.7,4.3-1.1,6.4
	c-0.6,4-1.1,8-2,11.9c-3.6,15.9-10.5,30.3-21.4,42.5c-3.8,4.2-8,8-12.4,11.6c-4.2,3.5-8.9,6.3-13.4,9.2c-6.1,3.8-12.9,6.4-19.7,8.9
	c-12.1,4.6-24.6,7.1-37.3,9c-8.3,1.2-16.6,1.9-25,2c-14.8,0.2-29.6,0.2-44.4,0.3c-6.6,0-6.6,0.1-6.6,6.8c0,35.9,0,71.9,0,107.8
	c0,1,0.4,2.2-0.9,2.9c-1.2-0.1-2.5-0.2-3.7-0.2c-21.1,0-42.1,0-63.2,0C1066.2,717.8,1065.5,717.9,1064.8,718.2z M1134.7,545.1
	c0.6,0.1,0.8,0.3,1.1,0.2c15.9-0.4,31.9,0.6,47.8-0.5c7.9-0.5,15.8-1.2,23.5-3.1c8.7-2.1,16.9-5.5,23.8-11.4
	c11.2-9.5,15.1-22.2,16.2-36.2c0.4-6,0.1-11.9-0.9-17.9c-1.9-10.8-6.8-19.9-15.4-26.8c-8.8-7.1-19.2-10.6-30.1-12.8
	c-9.6-1.9-19.3-2.3-29-2.7c-11.6-0.4-23.2,0-34.7,0c-1.8,0-2.2,0.5-2.2,2.3c0,34.8,0,69.6,0,104.4
	C1134.7,542,1134.7,543.5,1134.7,545.1z"/>
<path class="st0" d="M347.7,717.9c-6.3-0.5-12.7-0.7-19-1.6c-6.9-1-13.9-1.6-20.8-3.1c-3.1-0.7-6.2-1.4-9.3-2.3
	c-3.5-1.1-7.3-1.6-10.9-2.6c-9.3-2.7-18.7-5.3-27.8-8.8c-6.6-2.5-13.2-5.1-19.8-7.9c-5.4-2.3-10.5-4.9-15.7-7.5
	c-1.4-0.7-1.4-1.4-0.5-2.7c3.1-4.8,6.4-9.4,8.8-14.6c0.6-1.3,2-2.4,3-3.7c4.3-6,8.1-12.3,12.3-18.4c3.2-4.6,6.2-9.2,9.4-13.9
	c3.5-5.2,6.9-10.4,10.4-15.6c3.1-4.6,6.1-9.2,9.2-13.7c2.3-3.3,4.4-6.7,6.6-10c1.7-2.5,3.4-5.1,5.1-7.6c2.2-3.3,4.5-6.6,6.6-10
	c1.6-2.6,3.3-5.1,5.2-7.6c1.7-2.3,3.2-4.7,4.8-7.1c3.8-5.7,7.5-11.4,11.3-17.1c2.5-3.8,5.3-7.4,7.6-11.3
	c5.1-8.5,11.7-16.1,16.6-24.7c2.1-3.7,4.7-7.2,7.1-10.7c2.4-3.6,5.2-6.9,7.1-10.7c1.4-2.7,3.4-4.9,4.8-7.7c1-2,2.5-4.2,4-6.1
	s2.5-4.1,3.9-5.9c1.6-1.9,2.5-4.2,4.1-6c1.6-1.9,2.5-4.1,3.9-5.9c1.6-1.9,2.5-4.3,4-6.1c2.9-3.3,5.1-7.1,7.6-10.7
	c5-7.1,9.3-14.7,14.9-21.5c0.2-0.2,0.5-0.4,0.9-0.8c0.7,1.3,0.5,2.7,0.5,3.9c0,52.5,0.1,104.9,0.1,157.4c0,43.9,0,87.7,0,131.6
	c0,2.8-0.1,5.6-0.1,8.4c0,1-0.1,2-1,2.7c-1.7-0.6-3.7,0-5.3-1.5c-0.4,1.5-2.3,1-2.6,2.5c-11.9,0-23.8,0-35.7,0
	c-0.4-0.5-0.9-0.4-1.4-0.5C354.3,716.9,350.9,718,347.7,717.9z"/>
<path class="st1" d="M776.8,719.3c0-0.4,0.1-0.7,0.1-1.1c0.2-0.1,0.6-0.1,0.3-0.5c2.2,0,4.4,0.1,6.7,0.1c62.1,0,124.2,0,186.2,0
	c9.3,0,18.5,0.1,27.8,0.2c0,0.4,0,0.9,0,1.3c-0.3,0-0.7,0-1,0c0.1-0.3-0.1-0.4-0.4-0.3c-0.1,0-0.1,0.2-0.1,0.3
	C923.1,719.3,849.9,719.3,776.8,719.3z"/>
<path class="st1" d="M623.9,719.3c0-0.3,0-0.7,0-1c1.8,0.1,3.5-0.6,5.3-0.6c27.7,0.4,55.4-0.6,83,0.5c0,0.3,0,0.7,0,1
	c-1.2,0-2.3,0-3.5,0c0.1-0.3-0.1-0.4-0.4-0.3c-0.1,0-0.1,0.2-0.1,0.3C680.1,719.3,652,719.3,623.9,719.3z"/>
<path class="st1" d="M1133.8,718c-0.2,0.4-0.3,0.9-0.5,1.3c-1.2,0-2.3,0-3.5,0c0.1-0.3-0.1-0.4-0.4-0.3c-0.1,0-0.1,0.2-0.1,0.3
	c-21.7,0-43.4,0-65,0c0.2-0.4,0.4-0.7,0.5-1.1c0.7-0.4,1.4-0.4,2.1-0.4c21.1,0,42.1,0,63.2,0C1131.3,717.8,1132.6,717.9,1133.8,718z
	"/>
<path class="st1" d="M508.1,717.7c0,0.5,0,1,0,1.6c-21.4,0-42.7,0-64.1,0c0-0.5,0.1-1.1,0.1-1.6c0.7,0.1,1.3,0.2,2,0.2
	c9.7,0,19.3-0.1,29-0.1C486.2,717.8,497.2,717.7,508.1,717.7z"/>
<path class="st2" d="M394.5,719.3c0.3-1.5,2.2-1,2.6-2.5c1.6,1.5,3.6,0.8,5.3,1.5c0,0.3,0,0.7,0,1
	C399.8,719.3,397.1,719.3,394.5,719.3z"/>
<path class="st3" d="M1318,475.8c-0.5-0.7-1,0.5-1.6-0.3c0.1-1.5,0.2-3.4,0.3-5.2c0.3,0.6,0.8,0.8,1.4,1.1
	C1318,472.9,1318,474.3,1318,475.8z"/>
<path class="st1" d="M1318,505.1c-0.4,0-0.7,0-1.1,0c0.4-2.1,0.7-4.3,1.1-6.4C1318,500.8,1318,502.9,1318,505.1z"/>
<path class="st4" d="M357.3,718.8c0.5,0.1,1,0.1,1.4,0.5c-3.1,0-6.3,0-9.4,0c-0.3-0.4,0-0.5,0.3-0.6
	C352.2,718.7,354.8,718.7,357.3,718.8z"/>
<path class="st1" d="M1000.2,717.9c0,0.5,0,0.9,0,1.4c-0.5,0-1,0-1.5,0c0-0.5,0-0.9,0-1.4C999.2,717.9,999.7,717.9,1000.2,717.9z"/>
<path class="st5" d="M998.7,717.9c0,0.5,0,0.9,0,1.4c-0.3,0-0.7,0-1,0c0-0.4,0-0.9,0-1.3C998.1,717.9,998.4,717.9,998.7,717.9z"/>
<path class="st4" d="M1129.3,719.3c0-0.1,0-0.3,0.1-0.3c0.2-0.1,0.5,0,0.4,0.3C1129.7,719.3,1129.5,719.3,1129.3,719.3z"/>
<path class="st4" d="M708.3,719.3c0-0.1,0-0.3,0.1-0.3c0.2-0.1,0.5,0,0.4,0.3C708.6,719.3,708.4,719.3,708.3,719.3z"/>
<path class="st4" d="M996.3,719.3c0-0.1,0-0.3,0.1-0.3c0.2-0.1,0.5,0,0.4,0.3C996.6,719.3,996.4,719.3,996.3,719.3z"/>
<path d="M508.1,717.7c-11,0-22,0-33,0.1c-9.7,0-19.3,0.1-29,0.1c-0.7,0-1.3-0.1-2-0.2c0-0.8-0.1-1.6-0.1-2.5c0-111,0-222,0-332.9
	c0-0.6,0-1.2,0-1.7c0.5-0.6,1.1-0.4,1.6-0.4c28.1,0,56.3,0,84.4-0.1c2.4,0,3.1,1.4,3.8,3.1c5.9,12.9,11.9,25.8,17.9,38.7
	c12.4,26.7,24.8,53.4,37.2,80.1c18.4,39.6,36.8,79.3,55.3,118.9c1.5,3.3,2.9,6.7,4.8,9.7c0.1,0.5,0.3,1,0.9,0.8
	c0.3-0.1,0.3-0.5,0-0.8c-0.1-4.1-0.2-8.2-0.2-12.4c0-79.3,0-158.5,0-237.8l0,0c0.9-0.6,1.9-0.3,2.9-0.3c19.1,0,38.2,0,57.3,0
	c3.6,0,3.6,0,3.6,3.6c0,105,0,210.1,0,315.1c0,5.5,0,11.1,0,16.6c0,1.3-0.1,2.3-1.4,2.8c-27.7-1.1-55.4-0.1-83-0.5
	c-1.8,0-3.5,0.7-5.3,0.6c-3.4-4.4-5.1-9.7-7.4-14.7c-5.7-12.1-11.3-24.3-16.8-36.5c-5.6-12.3-11-24.7-16.8-36.8
	c-5.2-11-10.2-22-15.3-33.1c-5.6-12.3-11.2-24.6-16.8-37c-12.5-27.6-25.1-55.1-37.7-82.7c-1.4-3.1-2.8-6.3-5.2-9.5
	c-0.8,3.6-0.1,6.7-0.1,9.8c-0.1,37,0,74,0,111c0,39.7,0,79.3,0,119C507.9,711.1,508.1,714.4,508.1,717.7z"/>
<path class="st6" d="M80.8,546.7c99.7-41.4,199.4-82.2,299.4-124.1c-1,3.2-2.5,5.1-3.9,7.1c-15,22.6-30.1,45.2-45.2,67.8
	c-18.4,27.6-36.9,55.1-55.4,82.7c-9.4,14-18.6,28.1-28.1,42.1c-12,17.6-23.7,35.3-35.5,53.1c-0.8,1.3-1.6,1.3-2.8,0.6
	c-4.3-2.3-8.5-4.7-12.5-7.4c-6.1-4-12.3-7.8-18.3-11.9c-4.8-3.3-9.3-7-13.9-10.6c-6.1-4.7-12.1-9.6-17.6-15
	c-6.2-6-12.6-11.8-18.3-18.3c-3.5-3.9-7.3-7.5-10.8-11.5c-9.5-11.1-18.3-22.7-26.1-35.1c-3.5-5.6-6.7-11.5-10.3-17.1
	C81.2,548.5,81.1,547.7,80.8,546.7z"/>
<path class="st7" d="M338.7,400c-3.4,0.4-6.2-0.6-9-1.2C310.1,395,290.6,391,271,387c-13.9-2.8-27.8-5.7-41.7-8.1
	c-4.4-0.8-8.9-1.7-13.2-2.5c-5.4-1.1-10.9-2.2-16.3-3.3c-4.5-0.9-9-1.8-13.5-2.6c-5.4-1.1-10.8-2.2-16.1-3.3c-13.9-3-28-5.5-42-8.3
	c-14.4-2.9-28.7-5.8-43.1-8.7c-10.7-2.1-21.5-4.1-32.3-6.3c-3.8-0.8-7.6-1.7-11.4-2.5c-2.2-0.4-2.1-1.8-2-3.5
	c1.3-11.4,3.5-22.7,6-34c2.9-12.7,6.5-25.2,10.9-37.5c5.8-16.1,12.6-31.7,20.8-46.8c5.9-10.5,12-20.8,18.9-30.6
	c3.9-5.5,7.9-10.8,11.8-16.3c1.3-1.8,2.1-1.5,3.4-0.1c12.4,12.5,24.8,25,37.2,37.5c7.6,7.6,15.3,15.1,22.9,22.7
	c7.7,7.7,15.2,15.4,22.9,23.1c8,8,16.1,15.8,24,23.8c12.6,12.6,25,25.2,37.6,37.7c8.8,8.8,17.7,17.5,26.6,26.3
	c9.5,9.5,18.9,19.1,28.4,28.5c8.2,8.1,15.9,16.5,24.4,24.3C336.4,397.4,337.4,398.6,338.7,400z"/>
<path class="st8" d="M37.5,354.4c106.2,21.1,211.8,42.1,318.1,63.3c-5,3.1-9.9,4.8-14.6,6.8c-29.2,12.1-58.4,24.2-87.6,36.3
	c-20,8.3-40,16.5-60,24.7c-36,14.9-72,29.8-108,44.7c-3.1,1.3-6.4,2.3-9.3,4c-1.5,0.8-2.6,0.5-3.3-1.1
	c-5.5-12.4-11.6-24.6-16.1-37.5c-6-17.2-10.6-34.9-14.1-52.8c-1.9-9.8-3.1-19.7-4.2-29.6c-1.8-15.6-1.5-31.2-1.4-46.9
	C37.1,362.5,37.5,358.6,37.5,354.4z"/>
<path class="st9" d="M394.4,339.6c-1.4-0.1-2.8-0.2-4.2-0.2c-0.3-1.3,0.8-1.5,1.4-2c23.1-15.5,46.3-30.9,69.5-46.4
	c15.7-10.5,31.3-21.1,47.1-31.6c23.5-15.7,47-31.3,70.5-46.9c6.3-4.2,12.7-8.4,19-12.6c4-2.7,7.9-5.6,12.1-7.9
	c2.9-1.6,5.7-3.5,8.3-5.4c4.1-2.8,8.3-5.7,12.4-8.6c3.3-2.4,6.7-4.7,10.1-6.9c1.8-1.2,3.2-0.6,4,0.8c3.7,6.1,8.6,11.4,12.6,17.3
	c6.1,9.1,11.9,18.4,17.2,28c4.6,8.5,8.9,17.1,12.7,25.9c1.3,3,2.7,6.1,3.9,9.2c2.7,6.8,5.5,13.5,7.5,20.6c1.4,4.8,2.8,9.7,4.3,14.5
	c1.6,4.9,3.1,9.8,4,14.8c1.1,5.8,2.9,11.4,3.7,17.2c0.8,6,1.8,11.9,2.8,17.9c0.3,1.9-0.4,2.3-2,2.2c-1.5-0.1-3,0-4.5,0.1
	c-0.2,0-0.4,0-0.6,0c-0.5,0-0.9,0-1.4,0c-0.2,0-0.4,0-0.6,0c-0.5,0-0.9,0-1.4,0c-0.2,0-0.4,0-0.6,0c-0.5,0-0.9,0-1.4,0
	c-0.2,0-0.4,0-0.6,0c-0.5,0-0.9,0-1.4,0c-0.2,0-0.4,0-0.6,0c-0.5,0-0.9,0-1.4,0c-0.2,0-0.4,0-0.6,0c-0.5,0-0.9,0-1.4,0
	c-0.2,0-0.4,0-0.6,0c-0.5,0-0.9,0-1.4,0c-0.2,0-0.4,0-0.6,0c-0.5,0-0.9,0-1.4,0c-0.2,0-0.4,0-0.6,0c-0.5,0-0.9,0-1.4,0
	c-0.2,0-0.4,0-0.6,0c-0.5,0-0.9,0-1.4,0c-0.2,0-0.4,0-0.6,0c-0.5,0-0.9,0-1.4,0c-0.2,0-0.4,0-0.6,0c-0.5,0-0.9,0-1.4,0
	c-0.2,0-0.4,0-0.6,0c-0.5,0-0.9,0-1.4,0c-0.2,0-0.4,0-0.6,0c-0.5,0-0.9,0-1.4,0c-0.2,0-0.4,0-0.6,0c-0.5,0-0.9,0-1.4,0
	c-0.2,0-0.4,0-0.6,0c-0.5,0-0.9,0-1.4,0c-0.2,0-0.4,0-0.6,0c-0.5,0-0.9,0-1.4,0c-0.2,0-0.4,0-0.6,0c-0.5,0-0.9,0-1.4,0
	c-0.2,0-0.4,0-0.6,0c-0.5,0-0.9,0-1.4,0c-0.2,0-0.4,0-0.6,0c-0.5,0-0.9,0-1.4,0c-0.2,0-0.4,0-0.6,0c-0.5,0-0.9,0-1.4,0
	c-0.2,0-0.4,0-0.6,0c-0.5,0-0.9,0-1.4,0c-0.2,0-0.4,0-0.6,0c-0.5,0-0.9,0-1.4,0c-0.2,0-0.4,0-0.6,0c-0.5,0-0.9,0-1.4,0
	c-0.2,0-0.4,0-0.6,0c-0.5,0-0.9,0-1.4,0c-0.2,0-0.4,0-0.6,0c-0.5,0-0.9,0-1.4,0c-0.2,0-0.4,0-0.6,0c-0.5,0-0.9,0-1.4,0
	c-0.2,0-0.4,0-0.6,0c-0.5,0-0.9,0-1.4,0c-0.2,0-0.4,0-0.6,0c-0.5,0-0.9,0-1.4,0c-0.2,0-0.4,0-0.6,0c-0.5,0-0.9,0-1.4,0
	c-0.2,0-0.4,0-0.6,0c-0.5,0-0.9,0-1.4,0c-0.2,0-0.4,0-0.6,0c-0.5,0-0.9,0-1.4,0c-0.2,0-0.4,0-0.6,0c-0.5,0-0.9,0-1.4,0
	c-0.2,0-0.4,0-0.6,0c-0.5,0-0.9,0-1.4,0c-0.2,0-0.4,0-0.6,0c-0.5,0-0.9,0-1.4,0c-0.2,0-0.4,0-0.6,0c-0.5,0-0.9,0-1.4,0
	c-0.2,0-0.4,0-0.6,0c-0.5,0-0.9,0-1.4,0c-0.2,0-0.4,0-0.6,0c-0.5,0-0.9,0-1.4,0c-0.2,0-0.4,0-0.6,0c-0.5,0-0.9,0-1.4,0
	c-0.2,0-0.4,0-0.6,0c-0.5,0-0.9,0-1.4,0c-0.2,0-0.4,0-0.6,0c-0.5,0-0.9,0-1.4,0c-0.2,0-0.4,0-0.6,0c-0.5,0-0.9,0-1.4,0
	c-0.2,0-0.4,0-0.6,0c-0.5,0-0.9,0-1.4,0c-0.2,0-0.4,0-0.6,0c-0.5,0-0.9,0-1.4,0c-0.2,0-0.4,0-0.6,0c-0.5,0-0.9,0-1.4,0
	c-0.2,0-0.4,0-0.6,0c-0.5,0-0.9,0-1.4,0c-0.2,0-0.4,0-0.6,0c-0.5,0-0.9,0-1.4,0c-0.2,0-0.4,0-0.6,0c-0.5,0-0.9,0-1.4,0
	c-0.2,0-0.4,0-0.6,0c-0.5,0-0.9,0-1.4,0c-0.2,0-0.4,0-0.6,0c-0.5,0-0.9,0-1.4,0c-0.2,0-0.4,0-0.6,0c-0.5,0-0.9,0-1.4,0
	c-0.2,0-0.4,0-0.6,0c-0.5,0-0.9,0-1.4,0c-0.2,0-0.4,0-0.6,0c-0.5,0-0.9,0-1.4,0c-0.2,0-0.4,0-0.6,0c-0.5,0-0.9,0-1.4,0
	c-0.2,0-0.4,0-0.6,0c-0.5,0-0.9,0-1.4,0c-0.2,0-0.4,0-0.6,0c-0.5,0-0.9,0-1.4,0c-0.2,0-0.4,0-0.6,0c-0.5,0-0.9,0-1.4,0
	c-0.2,0-0.4,0-0.6,0c-0.5,0-0.9,0-1.4,0c-0.2,0-0.4,0-0.6,0c-0.5,0-0.9,0-1.4,0c-0.2,0-0.4,0-0.6,0c-0.5,0-0.9,0-1.4,0
	c-0.2,0-0.4,0-0.6,0c-0.5,0-0.9,0-1.4,0c-0.2,0-0.4,0-0.6,0c-0.5,0-0.9,0-1.4,0c-0.2,0-0.4,0-0.6,0c-0.5,0-0.9,0-1.4,0
	c-0.2,0-0.4,0-0.6,0c-0.5,0-0.9,0-1.4,0c-0.2,0-0.4,0-0.6,0c-0.5,0-0.9,0-1.4,0c-0.2,0-0.4,0-0.6,0c-0.5,0-0.9,0-1.4,0
	c-0.2,0-0.4,0-0.6,0c-0.5,0-0.9,0-1.4,0c-0.2,0-0.4,0-0.6,0c-0.5,0-0.9,0-1.4,0c-0.2,0-0.4,0-0.6,0c-0.5,0-0.9,0-1.4,0
	c-0.2,0-0.4,0-0.6,0c-0.5,0-0.9,0-1.4,0c-0.2,0-0.4,0-0.6,0c-0.5,0-0.9,0-1.4,0c-0.2,0-0.4,0-0.6,0c-0.5,0-0.9,0-1.4,0
	c-0.2,0-0.4,0-0.6,0c-0.5,0-0.9,0-1.4,0c-0.2,0-0.4,0-0.6,0c-0.5,0-0.9,0-1.4,0c-0.2,0-0.4,0-0.6,0c-0.5,0-0.9,0-1.4,0
	c-0.2,0-0.4,0-0.6,0c-0.5,0-0.9,0-1.4,0c-0.2,0-0.4,0-0.6,0c-0.5,0-0.9,0-1.4,0c-0.2,0-0.4,0-0.6,0c-0.5,0-0.9,0-1.4,0
	c-0.2,0-0.4,0-0.6,0c-0.5,0-0.9,0-1.4,0c-0.2,0-0.4,0-0.6,0c-0.5,0-0.9,0-1.4,0c-0.2,0-0.4,0-0.6,0c-0.5,0-0.9,0-1.4,0
	c-0.2,0-0.4,0-0.6,0c-0.5,0-0.9,0-1.4,0c-0.2,0-0.4,0-0.6,0c-0.5,0-0.9,0-1.4,0c-0.2,0-0.4,0-0.6,0c-0.5,0-0.9,0-1.4,0
	c-0.2,0-0.4,0-0.6,0c-0.5,0-0.9,0-1.4,0c-0.2,0-0.4,0-0.6,0c-0.5,0-0.9,0-1.4,0c-0.2,0-0.4,0-0.6,0c-0.5,0-0.9,0-1.4,0
	c-0.2,0-0.4,0-0.6,0c-0.5,0-0.9,0-1.4,0c-0.2,0-0.4,0-0.6,0c-0.5,0-0.9,0-1.4,0c-0.2,0-0.4,0-0.6,0c-0.5,0-0.9,0-1.4,0
	c-0.2,0-0.4,0-0.6,0c-0.5,0-0.9,0-1.4,0c-0.2,0-0.4,0-0.6,0c-0.5,0-0.9,0-1.4,0c-0.2,0-0.4,0-0.6,0c-0.5,0-0.9,0-1.4,0
	c-0.2,0-0.4,0-0.6,0c-0.5,0-0.9,0-1.4,0c-0.2,0-0.4,0-0.6,0c-0.5,0-0.9,0-1.4,0c-0.2,0-0.4,0-0.6,0c-0.5,0-0.9,0-1.4,0
	c-0.2,0-0.4,0-0.6,0c-2.5,0-4.9,0-7.4,0c-0.2,0-0.4,0-0.6,0c-0.5,0-0.9,0-1.4,0c-0.2,0-0.4,0-0.6,0c-0.5,0-0.9,0-1.4,0
	c-0.2,0-0.4,0-0.6,0c-0.5,0-0.9,0-1.4,0c-0.2,0-0.4,0-0.6,0c-0.5,0-0.9,0-1.4,0c-0.2,0-0.4,0-0.6,0c-0.5,0-0.9,0-1.4,0
	c-0.2,0-0.4,0-0.6,0c-0.5,0-0.9,0-1.4,0c-0.2,0-0.4,0-0.6,0c-0.5,0-0.9,0-1.4,0c-0.2,0-0.4,0-0.6,0c-0.5,0-0.9,0-1.4,0
	c-0.2,0-0.4,0-0.6,0c-0.5,0-0.9,0-1.4,0c-0.2,0-0.4,0-0.6,0c-0.5,0-0.9,0-1.4,0c-0.2,0-0.4,0-0.6,0c-0.5,0-0.9,0-1.4,0
	c-0.2,0-0.4,0-0.6,0c-0.5,0-0.9,0-1.4,0c-0.2,0-0.4,0-0.6,0c-0.5,0-0.9,0-1.4,0c-0.2,0-0.4,0-0.6,0c-0.5,0-0.9,0-1.4,0
	c-0.2,0-0.4,0-0.6,0c-0.5,0-0.9,0-1.4,0c-0.2,0-0.4,0-0.6,0c-0.5,0-0.9,0-1.4,0c-0.2,0-0.4,0-0.6,0c-0.5,0-0.9,0-1.4,0
	c-0.2,0-0.4,0-0.6,0c-0.5,0-0.9,0-1.4,0c-0.2,0-0.4,0-0.6,0c-0.5,0-0.9,0-1.4,0c-0.2,0-0.4,0-0.6,0c-0.5,0-0.9,0-1.4,0
	c-0.2,0-0.4,0-0.6,0c-0.5,0-0.9,0-1.4,0c-0.2,0-0.4,0-0.6,0c-0.5,0-0.9,0-1.4,0c-0.2,0-0.4,0-0.6,0c-0.5,0-0.9,0-1.4,0
	c-0.2,0-0.4,0-0.6,0c-0.5,0-0.9,0-1.4,0c-0.2,0-0.4,0-0.6,0c-0.5,0-0.9,0-1.4,0c-0.2,0-0.4,0-0.6,0c-0.5,0-0.9,0-1.4,0
	c-0.2,0-0.4,0-0.6,0c-0.5,0-0.9,0-1.4,0c-0.2,0-0.4,0-0.6,0c-0.5,0-0.9,0-1.4,0c-0.2,0-0.4,0-0.6,0c-0.5,0-0.9,0-1.4,0
	c-0.2,0-0.4,0-0.6,0c-0.5,0-0.9,0-1.4,0c-0.2,0-0.4,0-0.6,0c-0.5,0-0.9,0-1.4,0c-0.2,0-0.4,0-0.6,0c-0.5,0-0.9,0-1.4,0
	c-0.2,0-0.4,0-0.6,0c-0.5,0-0.9,0-1.4,0c-0.2,0-0.4,0-0.6,0c-0.5,0-0.9,0-1.4,0c-0.2,0-0.4,0-0.6,0c-0.5,0-0.9,0-1.4,0
	c-0.2,0-0.4,0-0.6,0c-0.5,0-0.9,0-1.4,0c-0.2,0-0.4,0-0.6,0c-0.5,0-0.9,0-1.4,0c-0.2,0-0.4,0-0.6,0c-0.5,0-0.9,0-1.4,0
	c-0.2,0-0.4,0-0.6,0c-0.5,0-0.9,0-1.4,0c-0.2,0-0.4,0-0.6,0c-0.5,0-0.9,0-1.4,0c-0.2,0-0.4,0-0.6,0c-0.5,0-0.9,0-1.4,0
	c-0.2,0-0.4,0-0.6,0c-0.5,0-0.9,0-1.4,0c-0.2,0-0.4,0-0.6,0c-0.5,0-0.9,0-1.4,0c-0.2,0-0.4,0-0.6,0c-0.5,0-0.9,0-1.4,0
	c-0.2,0-0.4,0-0.6,0c-0.5,0-0.9,0-1.4,0c-0.2,0-0.4,0-0.6,0c-0.5,0-0.9,0-1.4,0c-0.2,0-0.4,0-0.6,0c-0.5,0-0.9,0-1.4,0
	c-0.2,0-0.4,0-0.6,0c-0.5,0-0.9,0-1.4,0c-0.2,0-0.4,0-0.6,0c-0.5,0-0.9,0-1.4,0c-0.2,0-0.4,0-0.6,0c-0.5,0-0.9,0-1.4,0
	c-0.2,0-0.4,0-0.6,0c-0.5,0-0.9,0-1.4,0c-0.2,0-0.4,0-0.6,0c-2.5,0-4.9,0-7.4,0c-0.2,0-0.4,0-0.6,0c-0.5,0-0.9,0-1.4,0
	c-0.2,0-0.4,0-0.6,0c-0.3,0-0.6,0-0.9,0C395.2,339.7,394.8,339.7,394.4,339.6z"/>
<path class="st10" d="M634.2,159.2c-4.8,3.2-9.3,6.2-13.9,9.2c-7.9,5.3-15.9,10.6-23.8,15.9s-15.9,10.5-23.8,15.9
	c-10.3,7-20.9,13.5-31,20.7c-7.8,5.5-15.9,10.6-23.8,15.9c-7.9,5.2-15.8,10.5-23.6,15.7c-8,5.3-16,10.7-24,16
	c-9.2,6.1-18.4,12.2-27.6,18.3c-8,5.3-15.9,10.6-23.9,15.9c-9,6-18.1,12.1-27.1,18.1c-6,4-12,8-18,12c-2.6,1.7-5.7,3.1-7.8,5.9
	c-1.6-1.9-0.2-3.4,0.4-4.8c2.3-5,4.6-10,6.7-15c1.5-3.6,3.1-7.1,4.3-10.8c3-8.8,7.1-17.2,10.7-25.8c0.8-1.9,1.8-3.8,1.7-5.8
	c-0.1-1.3,1.1-1.1,1.5-2c1.8-4.4,4-8.7,5.6-13.2c2.2-5.9,4.8-11.5,6.9-17.4c2.4-6.5,5.4-12.8,8.1-19.2c0.9-2.1,1.1-4.7,2.1-6.4
	c1.3-2.2,2-4.5,3.1-6.8c2-4.2,3.7-8.6,5.5-12.9c3.7-8.7,7.7-17.3,10.8-26.2c2.7-7.7,6.4-14.9,9.3-22.5s6.3-15,9.4-22.5
	c2.6-6.2,5.1-12.4,7.5-18.6c3.3-8.5,7.5-16.7,10.7-25.3c2.6-7,6.1-13.6,8.4-20.7c0.4-1.3,1.2-2.4,1.5-3.7c0.3-1.4,1.6-1.7,3.2-1.2
	c7.1,2.5,14.1,5.1,21.1,7.8c7.4,2.9,14.6,6.4,21.8,9.8c12.3,6,24.2,12.8,35.7,20.2c6,3.8,11.7,8,17.5,12.2
	c6.2,4.5,12.1,9.4,17.9,14.3c9.8,8.2,18.9,17.1,27.6,26.4C627.9,152.1,630.9,155.6,634.2,159.2z"/>
<path class="st11" d="M343.3,352.1c-0.8-4.3-1.5-8.4-2.4-12.5c-3.9-19.7-7.9-39.5-11.8-59.2c-5-25.2-10-50.5-15-75.7
	c-2-10.3-4.1-20.6-6.1-31c-4.3-21.6-8.7-43.1-13-64.7c-3-15.2-6-30.4-9.1-45.6c-0.5-2.7-1-5.4-1.6-8.1c-0.3-1.6,0.6-2,1.8-2.3
	c10.6-2.7,21.3-5.4,32.1-7.2c9-1.5,18.1-2.8,27.3-3.6c4.8-0.4,9.7-0.4,14.5-0.9c8.6-1,17.2-0.7,25.7-0.3c9.7,0.4,19.5,0.3,29.1,2.2
	c4.7,0.9,9.6,0.7,14.4,1.6c10.4,1.9,20.9,3.3,31,6.8c1.6,0.6,3.4,0.6,5.1,1.1c1.2,0.3,2.1,0.9,1.5,2.7c-2.1,5.7-4.4,11.4-7.1,16.9
	c-0.5,1-0.7,1.9-1,2.9c-2.2,6.9-5.3,13.5-8,20.2c-2.1,5.3-4.5,10.6-6.6,15.9c-1.8,4.7-4.2,9.1-6,13.8c-1.7,4.4-3.8,8.5-5.4,12.9
	c-1.8,4.8-3.7,9.5-5.5,14.2c-2.3,6.3-6,11.9-7.5,18.6c-0.4,1.9-1.7,4-3,5.7c-1.6,2-2.5,4.6-3.1,6.6c-1.4,5.2-4.2,9.7-5.8,14.6
	c-2.3,7.1-5.7,13.6-8.2,20.6c-2.4,6.6-5,13.2-8.4,19.5c-1.9,3.5-3.2,7.3-4.6,11.1c-2.6,6.9-5.3,13.7-8.6,20.3
	c-0.4,0.8-0.4,1.7-0.8,2.5c-3.2,6.9-5.1,14.3-8.8,20.9c-0.8,1.5-1.2,3.3-1.8,4.9c-2,5.5-4,11-6.5,16.3c-3.3,7.1-6,14.5-9.2,21.7
	c-2.2,5-4.3,10-6.1,15.1C344.5,351.4,344.3,351.9,343.3,352.1z"/>
<path class="st12" d="M333.5,374.8c-1-0.1-1.5-1-2.1-1.6C277.1,319,222.9,264.8,168.7,210.6c-11.6-11.6-23.3-23.3-34.9-34.9
	c-4.7-4.7-9.4-9.4-14.2-14c-1.4-1.3-1.2-2.3,0-3.5c8.2-8.6,15.9-17.7,24.8-25.7c10.2-9.2,20.6-17.9,31.6-26.2
	c4.9-3.7,9.8-7.2,14.9-10.5c5.3-3.4,10.8-6.7,16.3-9.8c13.6-7.7,27.6-14.5,42-20.4c6.3-2.6,12.7-4.7,19.1-7c2.1-0.7,2.8,0.1,3.1,1.8
	c1.3,9.3,3.5,18.3,5.2,27.5c1.9,10.7,4.4,21.3,6.5,31.9c1.9,9.4,3.5,18.8,5.4,28.2c2.3,11.4,4.7,22.7,7,34
	c3.8,18.8,7.5,37.6,11.2,56.3c3.6,18,7.3,35.9,10.8,53.9c4.2,21.2,8.4,42.4,12.6,63.6c1.1,5.7,2.4,11.3,3.5,16.9
	C333.6,373.5,334,374.1,333.5,374.8z"/>
<path d="M776.8,437.7c0-15,0-30.1,0-45.1c0.7-1.3,0.7-2.6,0-4c0-2.7,0-5.4,0.1-8.2l0,0c0.8-0.6,1.8-0.3,2.7-0.3
	c77.3,0,154.7,0,232,0c0.8,0,1.6,0,2.6,0c-2.7,9.9-4,19.9-6.3,29.7c-1.3,5.6-2.1,11.4-3.2,17.1c-0.8,4.5-1.8,9-2.5,13.5
	c-0.3,2.1-1.2,3.1-3.7,3.1c-73-0.1-145.9-0.1-218.9-0.1c-0.9,0-2,0.4-2.7-0.6l0.1-0.1l-0.1-0.1c0-0.5,0-1.1,0-1.6
	C777.5,440,777.6,438.8,776.8,437.7z"/>
<path d="M777.3,514.6c68,0,136,0,204.1,0.1c1,0,2,0,3,0c0.3,0.6,0.7,0.6,1,0c4.7,0,9.4,0,14.1,0c1.5,0,2.2,0.3,2.2,2.1
	c-0.1,20.3-0.1,40.6-0.1,60.9c0,0.2-0.1,0.3-0.2,0.7c-74.7,0-149.4,0-224.1,0c-0.7-0.8-0.2-1.9-0.5-2.8c0.1-0.1,0.1-0.3,0-0.4
	c0-0.2,0-0.4,0-0.5c0.6-0.5,0.6-1,0-1.5c0-14.9,0-29.8,0-44.6c0.7-1.2,0.7-2.3,0-3.5c0-3.3,0-6.6,0.1-9.9
	C777,514.9,777.2,514.7,777.3,514.6z"/>
<path d="M998.7,717.9c-0.3,0-0.6,0-0.9,0c-9.3-0.1-18.5-0.2-27.8-0.2c-62.1,0-124.2,0-186.2,0c-2.2,0-4.4-0.1-6.7-0.1h0.1
	c-0.1-1.6-0.2-3.3-0.3-4.9c0.6-0.3,0.6-0.7,0-1c0-14.7,0-29.4,0-44.1c0.7-0.7,0.7-1.3,0-2c0-1.7,0-3.3,0-5c0.7-1,0.7-2-0.1-3
	c0-0.8,0.1-1.6,0.1-2.4c0.7-0.2,1.4,0.1,1.9-0.6c2.5,0.1,5,0.2,7.4,0.2c70.6,0,141.3,0,211.9,0c3.5,0,3.5,0,3.6,3.4
	c-0.1,0.1-0.1,0.3,0,0.4c0,17.8,0,35.6-0.1,53.3c0,1.3,0,2.6,0,4c0,1-0.2,1.8-1.4,1.8C999.7,717.9,999.2,717.9,998.7,717.9z"/>
<path class="st2" d="M357.3,718.8c-2.6,0-5.1-0.1-7.7-0.1c-0.5-0.6-1.5-0.1-1.9-0.8C350.9,718,354.3,716.9,357.3,718.8z"/>
<path class="st4" d="M776.8,388.6c0.7,1.3,0.7,2.6,0,4C776,391.2,775.9,389.9,776.8,388.6z"/>
<path class="st4" d="M776.8,437.7c0.7,1.2,0.7,2.3,0,3.5C776,440,775.9,438.8,776.8,437.7z"/>
<path class="st4" d="M776.8,524.9c0.7,1.2,0.7,2.3,0,3.5C775.9,527.2,775.9,526.1,776.8,524.9z"/>
<path class="st4" d="M776.8,657.8c0.8,1,0.8,2,0.1,3C775.9,659.8,776,658.8,776.8,657.8z"/>
<path class="st4" d="M776.8,665.7c0.7,0.7,0.7,1.3,0,2C776,667.1,776,666.4,776.8,665.7z"/>
<path class="st4" d="M778.8,654.7c-0.5,0.7-1.3,0.4-1.9,0.6C777.2,654.3,777.8,653.8,778.8,654.7z"/>
<path class="st4" d="M776.8,573c0.6,0.5,0.6,1,0,1.5C775.9,574,776,573.5,776.8,573z"/>
<path class="st3" d="M650,630.6c0.3,0.3,0.3,0.7,0,0.8c-0.6,0.2-0.8-0.2-0.9-0.8C649.4,630.6,649.7,630.6,650,630.6z"/>
<path class="st4" d="M985.3,514.6c-0.3,0.6-0.6,0.6-1,0c0-0.4,0.2-0.6,0.6-0.5C985.1,514.1,985.2,514.4,985.3,514.6z"/>
<path class="st4" d="M776.8,711.9c0.6,0.3,0.6,0.6,0,1c-0.2-0.1-0.5-0.2-0.5-0.4C776.3,712.1,776.5,711.9,776.8,711.9z"/>
<path class="st13" d="M394.4,339.6c0.4,0,0.7,0,1.1,0C395.1,340,394.8,340,394.4,339.6z"/>
<path class="st13" d="M595,339.6c0.2,0,0.4,0,0.6,0C595.4,339.9,595.2,339.9,595,339.6z"/>
<path class="st13" d="M471.9,339.6c0.2,0,0.4,0,0.6,0C472.3,339.9,472.1,339.9,471.9,339.6z"/>
<path class="st13" d="M473.9,339.6c0.2,0,0.4,0,0.6,0C474.3,339.9,474.1,339.9,473.9,339.6z"/>
<path class="st13" d="M475.9,339.6c0.2,0,0.4,0,0.6,0C476.3,339.9,476.1,339.9,475.9,339.6z"/>
<path class="st13" d="M477.8,339.6c0.2,0,0.4,0,0.6,0C478.2,339.9,478,339.9,477.8,339.6z"/>
<path class="st13" d="M479.8,339.6c0.2,0,0.4,0,0.6,0C480.2,339.9,480,339.9,479.8,339.6z"/>
<path class="st13" d="M481.8,339.6c0.2,0,0.4,0,0.6,0C482.2,339.9,482,339.9,481.8,339.6z"/>
<path class="st13" d="M483.8,339.6c0.2,0,0.4,0,0.6,0C484.2,339.9,484,339.9,483.8,339.6z"/>
<path class="st13" d="M485.8,339.6c0.2,0,0.4,0,0.6,0C486.2,339.9,486,339.9,485.8,339.6z"/>
<path class="st13" d="M487.8,339.6c0.2,0,0.4,0,0.6,0C488.2,339.9,488,339.9,487.8,339.6z"/>
<path class="st13" d="M489.8,339.6c0.2,0,0.4,0,0.6,0C490.2,339.9,490,339.9,489.8,339.6z"/>
<path class="st13" d="M491.8,339.6c0.2,0,0.4,0,0.6,0C492.1,339.9,491.9,339.9,491.8,339.6z"/>
<path class="st13" d="M493.7,339.6c0.2,0,0.4,0,0.6,0C494.1,339.9,493.9,339.9,493.7,339.6z"/>
<path class="st13" d="M495.7,339.6c0.2,0,0.4,0,0.6,0C496.1,339.9,495.9,339.9,495.7,339.6z"/>
<path class="st13" d="M497.7,339.6c0.2,0,0.4,0,0.6,0C498.1,339.9,497.9,339.9,497.7,339.6z"/>
<path class="st13" d="M499.7,339.6c0.2,0,0.4,0,0.6,0C500.1,339.9,499.9,339.9,499.7,339.6z"/>
<path class="st13" d="M501.7,339.6c0.2,0,0.4,0,0.6,0C502.1,339.9,501.9,339.9,501.7,339.6z"/>
<path class="st13" d="M503.7,339.6c0.2,0,0.4,0,0.6,0C504.1,339.9,503.9,339.9,503.7,339.6z"/>
<path class="st13" d="M505.7,339.6c0.2,0,0.4,0,0.6,0C506,339.9,505.9,339.9,505.7,339.6z"/>
<path class="st13" d="M507.6,339.6c0.2,0,0.4,0,0.6,0C508,339.9,507.8,339.9,507.6,339.6z"/>
<path class="st13" d="M515.6,339.7c0.2,0,0.4,0,0.6,0C516,339.9,515.8,339.9,515.6,339.7z"/>
<path class="st13" d="M517.6,339.6c0.2,0,0.4,0,0.6,0C518,339.9,517.8,339.9,517.6,339.6z"/>
<path class="st13" d="M519.6,339.6c0.2,0,0.4,0,0.6,0C519.9,339.9,519.8,339.9,519.6,339.6z"/>
<path class="st13" d="M521.5,339.6c0.2,0,0.4,0,0.6,0C521.9,339.9,521.7,339.9,521.5,339.6z"/>
<path class="st13" d="M523.5,339.6c0.2,0,0.4,0,0.6,0C523.9,339.9,523.7,339.9,523.5,339.6z"/>
<path class="st13" d="M525.5,339.6c0.2,0,0.4,0,0.6,0C525.9,339.9,525.7,339.9,525.5,339.6z"/>
<path class="st13" d="M527.5,339.6c0.2,0,0.4,0,0.6,0C527.9,339.9,527.7,339.9,527.5,339.6z"/>
<path class="st13" d="M529.5,339.6c0.2,0,0.4,0,0.6,0C529.9,339.9,529.7,339.9,529.5,339.6z"/>
<path class="st13" d="M531.5,339.6c0.2,0,0.4,0,0.6,0C531.9,339.9,531.7,339.9,531.5,339.6z"/>
<path class="st13" d="M533.5,339.6c0.2,0,0.4,0,0.6,0C533.9,339.9,533.7,339.9,533.5,339.6z"/>
<path class="st13" d="M535.4,339.6c0.2,0,0.4,0,0.6,0C535.8,339.9,535.6,339.9,535.4,339.6z"/>
<path class="st13" d="M537.4,339.6c0.2,0,0.4,0,0.6,0C537.8,339.9,537.6,339.9,537.4,339.6z"/>
<path class="st13" d="M539.4,339.6c0.2,0,0.4,0,0.6,0C539.8,339.9,539.6,339.9,539.4,339.6z"/>
<path class="st13" d="M541.4,339.6c0.2,0,0.4,0,0.6,0C541.8,339.9,541.6,339.9,541.4,339.6z"/>
<path class="st13" d="M543.4,339.6c0.2,0,0.4,0,0.6,0C543.8,339.9,543.6,339.9,543.4,339.6z"/>
<path class="st13" d="M545.4,339.6c0.2,0,0.4,0,0.6,0C545.8,339.9,545.6,339.9,545.4,339.6z"/>
<path class="st13" d="M547.4,339.6c0.2,0,0.4,0,0.6,0C547.8,339.9,547.6,339.9,547.4,339.6z"/>
<path class="st13" d="M549.3,339.6c0.2,0,0.4,0,0.6,0C549.7,339.9,549.5,339.9,549.3,339.6z"/>
<path class="st13" d="M551.3,339.6c0.2,0,0.4,0,0.6,0C551.7,339.9,551.5,339.9,551.3,339.6z"/>
<path class="st13" d="M553.3,339.6c0.2,0,0.4,0,0.6,0C553.7,339.9,553.5,339.9,553.3,339.6z"/>
<path class="st13" d="M555.3,339.6c0.2,0,0.4,0,0.6,0C555.7,339.9,555.5,339.9,555.3,339.6z"/>
<path class="st13" d="M557.3,339.6c0.2,0,0.4,0,0.6,0C557.7,339.9,557.5,339.9,557.3,339.6z"/>
<path class="st13" d="M559.3,339.6c0.2,0,0.4,0,0.6,0C559.7,339.9,559.5,339.9,559.3,339.6z"/>
<path class="st13" d="M561.3,339.6c0.2,0,0.4,0,0.6,0C561.7,339.9,561.5,339.9,561.3,339.6z"/>
<path class="st13" d="M563.2,339.6c0.2,0,0.4,0,0.6,0C563.6,339.9,563.4,339.9,563.2,339.6z"/>
<path class="st13" d="M565.2,339.6c0.2,0,0.4,0,0.6,0C565.6,339.9,565.4,339.9,565.2,339.6z"/>
<path class="st13" d="M567.2,339.6c0.2,0,0.4,0,0.6,0C567.6,339.9,567.4,339.9,567.2,339.6z"/>
<path class="st13" d="M569.2,339.6c0.2,0,0.4,0,0.6,0C569.6,339.9,569.4,339.9,569.2,339.6z"/>
<path class="st13" d="M571.2,339.6c0.2,0,0.4,0,0.6,0C571.6,339.9,571.4,339.9,571.2,339.6z"/>
<path class="st13" d="M573.2,339.6c0.2,0,0.4,0,0.6,0C573.6,339.9,573.4,339.9,573.2,339.6z"/>
<path class="st13" d="M575.2,339.6c0.2,0,0.4,0,0.6,0C575.6,339.9,575.4,339.9,575.2,339.6z"/>
<path class="st13" d="M577.2,339.6c0.2,0,0.4,0,0.6,0C577.5,339.9,577.3,339.9,577.2,339.6z"/>
<path class="st13" d="M579.1,339.6c0.2,0,0.4,0,0.6,0C579.5,339.9,579.3,339.9,579.1,339.6z"/>
<path class="st13" d="M581.1,339.6c0.2,0,0.4,0,0.6,0C581.5,339.9,581.3,339.9,581.1,339.6z"/>
<path class="st13" d="M583.1,339.6c0.2,0,0.4,0,0.6,0C583.5,339.9,583.3,339.9,583.1,339.6z"/>
<path class="st13" d="M585.1,339.6c0.2,0,0.4,0,0.6,0C585.5,339.9,585.3,339.9,585.1,339.6z"/>
<path class="st13" d="M587.1,339.6c0.2,0,0.4,0,0.6,0C587.5,339.9,587.3,339.9,587.1,339.6z"/>
<path class="st13" d="M589.1,339.6c0.2,0,0.4,0,0.6,0C589.5,339.9,589.3,339.9,589.1,339.6z"/>
<path class="st13" d="M591.1,339.6c0.2,0,0.4,0,0.6,0C591.4,339.9,591.3,339.9,591.1,339.6z"/>
<path class="st13" d="M593,339.6c0.2,0,0.4,0,0.6,0C593.4,339.9,593.2,339.9,593,339.6z"/>
<path class="st13" d="M467.9,339.6c0.2,0,0.4,0,0.6,0C468.3,339.9,468.1,339.9,467.9,339.6z"/>
<path class="st13" d="M597,339.6c0.2,0,0.4,0,0.6,0C597.4,339.9,597.2,339.9,597,339.6z"/>
<path class="st13" d="M599,339.6c0.2,0,0.4,0,0.6,0C599.4,339.9,599.2,339.9,599,339.6z"/>
<path class="st13" d="M601,339.6c0.2,0,0.4,0,0.6,0C601.4,339.9,601.2,339.9,601,339.6z"/>
<path class="st13" d="M603,339.6c0.2,0,0.4,0,0.6,0C603.4,339.9,603.2,339.9,603,339.6z"/>
<path class="st13" d="M605,339.6c0.2,0,0.4,0,0.6,0C605.3,339.9,605.2,339.9,605,339.6z"/>
<path class="st13" d="M606.9,339.6c0.2,0,0.4,0,0.6,0C607.3,339.9,607.1,339.9,606.9,339.6z"/>
<path class="st13" d="M608.9,339.6c0.2,0,0.4,0,0.6,0C609.3,339.9,609.1,339.9,608.9,339.6z"/>
<path class="st13" d="M610.9,339.6c0.2,0,0.4,0,0.6,0C611.3,339.9,611.1,339.9,610.9,339.6z"/>
<path class="st13" d="M612.9,339.6c0.2,0,0.4,0,0.6,0C613.3,339.9,613.1,339.9,612.9,339.6z"/>
<path class="st13" d="M614.9,339.6c0.2,0,0.4,0,0.6,0C615.3,339.9,615.1,339.9,614.9,339.6z"/>
<path class="st13" d="M616.9,339.6c0.2,0,0.4,0,0.6,0C617.3,339.9,617.1,339.9,616.9,339.6z"/>
<path class="st13" d="M618.9,339.6c0.2,0,0.4,0,0.6,0C619.3,339.9,619.1,339.9,618.9,339.6z"/>
<path class="st13" d="M620.8,339.6c0.2,0,0.4,0,0.6,0C621.2,339.9,621,339.9,620.8,339.6z"/>
<path class="st13" d="M622.8,339.6c0.2,0,0.4,0,0.6,0C623.2,339.9,623,339.9,622.8,339.6z"/>
<path class="st13" d="M624.8,339.6c0.2,0,0.4,0,0.6,0C625.2,339.9,625,339.9,624.8,339.6z"/>
<path class="st13" d="M626.8,339.6c0.2,0,0.4,0,0.6,0C627.2,339.9,627,339.9,626.8,339.6z"/>
<path class="st13" d="M628.8,339.6c0.2,0,0.4,0,0.6,0C629.2,339.9,629,339.9,628.8,339.6z"/>
<path class="st13" d="M630.8,339.6c0.2,0,0.4,0,0.6,0C631.2,339.9,631,339.9,630.8,339.6z"/>
<path class="st13" d="M632.8,339.6c0.2,0,0.4,0,0.6,0C633.2,339.9,633,339.9,632.8,339.6z"/>
<path class="st13" d="M469.9,339.6c0.2,0,0.4,0,0.6,0C470.3,339.9,470.1,339.9,469.9,339.6z"/>
<path class="st13" d="M636.7,339.6c0.2,0,0.4,0,0.6,0C637.1,339.9,636.9,339.9,636.7,339.6z"/>
<path class="st13" d="M638.7,339.6c0.2,0,0.4,0,0.6,0C639.1,339.9,638.9,339.9,638.7,339.6z"/>
<path class="st13" d="M640.7,339.6c0.2,0,0.4,0,0.6,0C641.1,339.9,640.9,339.9,640.7,339.6z"/>
<path class="st13" d="M642.7,339.6c0.2,0,0.4,0,0.6,0C643.1,339.9,642.9,339.9,642.7,339.6z"/>
<path class="st13" d="M644.7,339.6c0.2,0,0.4,0,0.6,0C645.1,339.9,644.9,339.9,644.7,339.6z"/>
<path class="st13" d="M646.7,339.6c0.2,0,0.4,0,0.6,0C647.1,339.9,646.9,339.9,646.7,339.6z"/>
<path class="st13" d="M648.7,339.6c0.2,0,0.4,0,0.6,0C649,339.9,648.8,339.9,648.7,339.6z"/>
<path class="st13" d="M650.6,339.6c0.2,0,0.4,0,0.6,0C651,339.9,650.8,339.9,650.6,339.6z"/>
<path class="st13" d="M652.6,339.6c0.2,0,0.4,0,0.6,0C653,339.9,652.8,339.9,652.6,339.6z"/>
<path class="st13" d="M654.6,339.6c0.2,0,0.4,0,0.6,0C655,339.9,654.8,339.9,654.6,339.6z"/>
<path class="st13" d="M656.6,339.6c0.2,0,0.4,0,0.6,0C657,339.9,656.8,339.9,656.6,339.6z"/>
<path class="st13" d="M658.6,339.6c0.2,0,0.4,0,0.6,0C659,339.9,658.8,339.9,658.6,339.6z"/>
<path class="st13" d="M660.6,339.6c0.2,0,0.4,0,0.6,0C661,339.9,660.8,339.9,660.6,339.6z"/>
<path class="st13" d="M662.6,339.6c0.2,0,0.4,0,0.6,0C662.9,339.9,662.7,339.9,662.6,339.6z"/>
<path class="st13" d="M664.5,339.6c0.2,0,0.4,0,0.6,0C664.9,339.9,664.7,339.9,664.5,339.6z"/>
<path class="st13" d="M666.5,339.6c0.2,0,0.4,0,0.6,0C666.9,339.9,666.7,339.9,666.5,339.6z"/>
<path class="st13" d="M668.5,339.6c0.2,0,0.4,0,0.6,0C668.9,339.9,668.7,339.9,668.5,339.6z"/>
<path class="st13" d="M670.5,339.6c0.2,0,0.4,0,0.6,0C670.9,339.9,670.7,339.9,670.5,339.6z"/>
<path class="st13" d="M672.5,339.6c0.2,0,0.4,0,0.6,0C672.9,339.9,672.7,339.9,672.5,339.6z"/>
<path class="st13" d="M674.5,339.6c0.2,0,0.4,0,0.6,0C674.9,339.9,674.7,339.9,674.5,339.6z"/>
<path class="st13" d="M676.5,339.6c0.2,0,0.4,0,0.6,0C676.8,339.9,676.7,339.9,676.5,339.6z"/>
<path class="st13" d="M678.4,339.6c0.2,0,0.4,0,0.6,0C678.8,339.9,678.6,339.9,678.4,339.6z"/>
<path class="st13" d="M680.4,339.6c0.2,0,0.4,0,0.6,0C680.8,339.9,680.6,339.9,680.4,339.6z"/>
<path class="st13" d="M682.4,339.6c0.2,0,0.4,0,0.6,0C682.8,339.9,682.6,339.9,682.4,339.6z"/>
<path class="st13" d="M684.4,339.6c0.2,0,0.4,0,0.6,0C684.8,339.9,684.6,339.9,684.4,339.6z"/>
<path class="st13" d="M686.4,339.6c0.2,0,0.4,0,0.6,0C686.8,339.9,686.6,339.9,686.4,339.6z"/>
<path class="st13" d="M688.4,339.6c0.2,0,0.4,0,0.6,0C688.8,339.9,688.6,339.9,688.4,339.6z"/>
<path class="st13" d="M690.4,339.6c0.2,0,0.4,0,0.6,0C690.8,339.9,690.6,339.9,690.4,339.6z"/>
<path class="st13" d="M692.3,339.6c0.2,0,0.4,0,0.6,0C692.7,339.9,692.5,339.9,692.3,339.6z"/>
<path class="st13" d="M694.3,339.6c0.2,0,0.4,0,0.6,0C694.7,339.9,694.5,339.9,694.3,339.6z"/>
<path class="st13" d="M696.3,339.6c0.2,0,0.4,0,0.6,0C696.7,339.9,696.5,339.9,696.3,339.6z"/>
<path class="st13" d="M698.3,339.6c0.2,0,0.4,0,0.6,0C698.7,339.9,698.5,339.9,698.3,339.6z"/>
<path class="st13" d="M700.3,339.6c0.2,0,0.4,0,0.6,0C700.7,339.9,700.5,339.9,700.3,339.6z"/>
<path class="st13" d="M702.3,339.6c0.2,0,0.4,0,0.6,0C702.7,339.9,702.5,339.9,702.3,339.6z"/>
<path class="st13" d="M704.3,339.6c0.2,0,0.4,0,0.6,0C704.7,339.9,704.5,339.9,704.3,339.6z"/>
<path class="st13" d="M706.3,339.6c0.2,0,0.4,0,0.6,0C706.6,339.8,706.4,339.8,706.3,339.6z"/>
<path class="st13" d="M465.9,339.6c0.2,0,0.4,0,0.6,0C466.3,339.9,466.1,339.9,465.9,339.6z"/>
<path class="st4" d="M649.8,380.5C649.8,380.5,649.8,380.4,649.8,380.5c-0.1,0-0.2,0-0.3,0C649.6,380.1,649.7,380.4,649.8,380.5z"/>
<path class="st13" d="M463.9,339.6c0.2,0,0.4,0,0.6,0C464.3,339.9,464.1,339.9,463.9,339.6z"/>
<path class="st4" d="M776.9,380.5C776.9,380.5,776.9,380.4,776.9,380.5c-0.1,0-0.2,0-0.3,0C776.7,380.1,776.8,380.4,776.9,380.5z"/>
<path class="st13" d="M462,339.6c0.2,0,0.4,0,0.6,0C462.4,339.9,462.2,339.9,462,339.6z"/>
<path class="st13" d="M460,339.6c0.2,0,0.4,0,0.6,0C460.4,339.9,460.2,339.9,460,339.6z"/>
<path class="st13" d="M458,339.6c0.2,0,0.4,0,0.6,0C458.4,339.9,458.2,339.9,458,339.6z"/>
<path class="st13" d="M456,339.6c0.2,0,0.4,0,0.6,0C456.4,339.9,456.2,339.9,456,339.6z"/>
<path class="st13" d="M454,339.6c0.2,0,0.4,0,0.6,0C454.4,339.9,454.2,339.9,454,339.6z"/>
<path class="st13" d="M452,339.6c0.2,0,0.4,0,0.6,0C452.4,339.9,452.2,339.9,452,339.6z"/>
<path class="st4" d="M776.9,442.7l0.1,0.1l-0.1,0.1c-0.1,0-0.3,0.1-0.3,0.1C776.4,442.7,776.6,442.7,776.9,442.7z"/>
<path class="st13" d="M450,339.6c0.2,0,0.4,0,0.6,0C450.4,339.9,450.2,339.9,450,339.6z"/>
<path class="st3" d="M1316.6,468.9c0-0.2,0-0.4,0-0.6C1316.8,468.5,1316.9,468.7,1316.6,468.9z"/>
<path class="st13" d="M448.1,339.6c0.2,0,0.4,0,0.6,0C448.4,339.9,448.3,339.9,448.1,339.6z"/>
<path class="st13" d="M446.1,339.6c0.2,0,0.4,0,0.6,0C446.5,339.9,446.3,339.9,446.1,339.6z"/>
<path class="st13" d="M444.1,339.6c0.2,0,0.4,0,0.6,0C444.5,339.9,444.3,339.9,444.1,339.6z"/>
<path class="st13" d="M442.1,339.6c0.2,0,0.4,0,0.6,0C442.5,339.9,442.3,339.9,442.1,339.6z"/>
<path class="st13" d="M440.1,339.6c0.2,0,0.4,0,0.6,0C440.5,339.9,440.3,339.9,440.1,339.6z"/>
<path class="st4" d="M777.3,514.6c-0.1,0.2-0.3,0.3-0.4,0.5C776.8,514.6,776.9,514.5,777.3,514.6z"/>
<path class="st13" d="M438.1,339.6c0.2,0,0.4,0,0.6,0C438.5,339.9,438.3,339.9,438.1,339.6z"/>
<path class="st13" d="M436.1,339.6c0.2,0,0.4,0,0.6,0C436.5,339.9,436.3,339.9,436.1,339.6z"/>
<path class="st13" d="M434.2,339.6c0.2,0,0.4,0,0.6,0C434.5,339.9,434.4,339.9,434.2,339.6z"/>
<path class="st4" d="M776.8,575c0.1,0.1,0.1,0.3,0,0.4c-0.1-0.1-0.3-0.2-0.4-0.3C776.6,575.1,776.7,575.1,776.8,575z"/>
<path class="st13" d="M432.2,339.6c0.2,0,0.4,0,0.6,0C432.6,339.9,432.4,339.9,432.2,339.6z"/>
<path class="st13" d="M430.2,339.6c0.2,0,0.4,0,0.6,0C430.6,339.9,430.4,339.9,430.2,339.6z"/>
<path class="st13" d="M428.2,339.6c0.2,0,0.4,0,0.6,0C428.6,339.9,428.4,339.9,428.2,339.6z"/>
<path class="st13" d="M426.2,339.6c0.2,0,0.4,0,0.6,0C426.6,339.9,426.4,339.9,426.2,339.6z"/>
<path class="st4" d="M1001.7,658.8c-0.1-0.1-0.1-0.3,0-0.4c0.1,0,0.3,0.1,0.4,0.1C1002,658.6,1001.8,658.7,1001.7,658.8z"/>
<path class="st13" d="M424.2,339.6c0.2,0,0.4,0,0.6,0C424.6,339.9,424.4,339.9,424.2,339.6z"/>
<path class="st13" d="M422.2,339.6c0.2,0,0.4,0,0.6,0C422.6,339.9,422.4,339.9,422.2,339.6z"/>
<path class="st13" d="M420.3,339.6c0.2,0,0.4,0,0.6,0C420.6,339.9,420.4,339.9,420.3,339.6z"/>
<path class="st13" d="M418.3,339.6c0.2,0,0.4,0,0.6,0C418.7,339.9,418.5,339.9,418.3,339.6z"/>
<path class="st13" d="M416.3,339.6c0.2,0,0.4,0,0.6,0C416.7,339.9,416.5,339.9,416.3,339.6z"/>
<path class="st13" d="M414.3,339.6c0.2,0,0.4,0,0.6,0C414.7,339.9,414.5,339.9,414.3,339.6z"/>
<path class="st13" d="M412.3,339.6c0.2,0,0.4,0,0.6,0C412.7,339.9,412.5,339.9,412.3,339.6z"/>
<path class="st4" d="M777.2,717.7C777.2,717.7,777.1,717.7,777.2,717.7c0.3,0.4-0.1,0.4-0.3,0.5C777,718,777.1,717.9,777.2,717.7z"
	/>
<path class="st13" d="M410.3,339.6c0.2,0,0.4,0,0.6,0C410.7,339.9,410.5,339.9,410.3,339.6z"/>
<path class="st13" d="M408.3,339.6c0.2,0,0.4,0,0.6,0C408.7,339.9,408.5,339.9,408.3,339.6z"/>
<path class="st13" d="M406.4,339.6c0.2,0,0.4,0,0.6,0C406.7,339.9,406.5,339.9,406.4,339.6z"/>
<path class="st13" d="M398.4,339.7c0.2,0,0.4,0,0.6,0C398.8,340,398.6,340,398.4,339.7z"/>
<path class="st13" d="M396.4,339.7c0.2,0,0.4,0,0.6,0C396.8,339.9,396.6,340,396.4,339.7z"/>
<path class="st13" d="M634.7,339.6c0.2,0,0.4,0,0.6,0C635.1,339.9,634.9,339.9,634.7,339.6z"/>
<g>
	<path id="Wordmark" class="st14" d="M1712.6,632.5v84H1697V681H1657v35.5h-15.6v-84h15.6v33.6h40.1v-33.6H1712.6z M1741.2,701.6
		v-69h-15.6v84h64.9v-15L1741.2,701.6z M1865.2,647.4v-15h-63.9v84h63.9v-15h-48.3v-20.5h34.4V666h-34.4v-18.6L1865.2,647.4z
		 M1942.1,632.5H1876v15h25.2v69h15.6v-69h25.2L1942.1,632.5z M1952.8,716.6h15.6v-84h-15.6V716.6z M1630.6,632.5h-70.1v15h27.2v69
		h15.6v-69h27.2L1630.6,632.5z M2041.3,684c-1.5,10.5-10.4,18.3-21,18.5c-14.6-0.6-25.9-12.8-25.4-27.4c0-0.2,0-0.4,0-0.6
		c-0.9-14.8,10.4-27.6,25.2-28.5c0,0,0.1,0,0.1,0c10.4,0.5,19.1,8,21,18.3l13.8-5.2c-3.3-16.7-17.9-28.7-34.9-28.8
		c-24.3,0-40.2,19.4-40.9,43.5l0,1.7c0.6,24.2,16.5,43.2,40.8,43.2c17.2-0.2,31.9-12.6,34.9-29.6L2041.3,684z M1528.4,650
		l-13.8,34.2c7.1-4.8,14.9-8.2,23.2-10.3L1528.4,650z M1543.4,687.3c-17.7,3-33.1,13.7-42.1,29.2H1485l34.1-84h18.5l34.2,84h-16.4
		L1543.4,687.3 M2129.3,677.7c-0.5-0.2-45.5-19.6-45.5-19.6c-0.6-1.3-3.5-14.1,14.4-13.7c8.8,0.3,16.2,6.8,17.5,15.5l14.6-5.9
		c-3.5-14.7-17-24.9-32.1-24.3c-17.8,0-30.8,9.9-30.8,23.9c-0.2,5.6,1.5,11,4.9,15.4l45,20.1c0.1,0.5,2,15.2-17.9,15.4
		c-11.7,0.1-19.8-7.2-22.5-20.5l-14.4,5.2c2.6,18,18.6,31.1,36.8,30c20.2,0,33.5-12.3,33.5-29
		C2133.1,685.8,2131.8,681.3,2129.3,677.7 M1784.6,587.5v-69H1769v84h66.3v-15H1784.6z M1579.8,518.5l-15.2,61.1l-15.8-61.1h-16.8
		l-15.8,60.5l-15-60.5H1485l21.6,84h18.7l15-58.4l15,58.4h18.7l21.6-84H1579.8z M1666.2,560.8c0.9,14.4-10.1,26.8-24.6,27.7
		c-0.6,0-1.3,0.1-1.9,0c-14.5,0.4-26.7-11.1-27-25.6c0-0.7,0-1.4,0-2.1c-0.7-14.7,10.6-27.2,25.2-27.9c0.6,0,1.2,0,1.8,0
		c14.6-0.1,26.5,11.6,26.6,26.2C1666.2,559.6,1666.2,560.2,1666.2,560.8 M1596.5,560.8c-0.8,23.2,17.3,42.7,40.6,43.6
		c0.9,0,1.7,0,2.6,0c23.2,0.5,42.3-17.8,42.9-41c0-0.9,0-1.7,0-2.6c0.9-23.3-17.2-42.9-40.4-43.8c-0.8,0-1.6,0-2.4,0
		c-23.4-0.5-42.7,18-43.2,41.4C1596.4,559.1,1596.4,559.9,1596.5,560.8 M1734.3,557c5.1-1.3,8.5-6.2,8-11.5c0.5-5.3-2.9-10.1-8-11.5
		h-25.2V557H1734.3 M1709.1,572.6v29.9h-15.6v-84h43.2c12.7,2.8,21.6,14.1,21.3,27.1c0.3,12.9-8.6,24.3-21.3,27.1
		c3.6,8.5,11.5,14.4,20.7,15.5v14.7c-9.5-0.1-18.7-3.6-25.8-10c-5.9-5.6-10.3-12.5-12.9-20.1L1709.1,572.6z M1884.8,586.8
		c11.4-3.8,19.3-14.3,19.7-26.4c-0.5-12-8.3-22.5-19.7-26.3h-23.1v52.6L1884.8,586.8 M1846.1,602.5v-84h41.7
		c19.2,4.9,32.5,22.2,32.3,42c1.3,20.1-12.5,38.1-32.3,42H1846.1z"/>
	
		<linearGradient id="Logo_00000007394735839224371180000011628566679029176761_" gradientUnits="userSpaceOnUse" x1="445.3518" y1="756.7369" x2="451.2621" y2="766.2877" gradientTransform="matrix(64.713 0 0 -40.079 -27205.4492 30780.7012)">
		<stop  offset="0" style="stop-color:#BC94FF"/>
		<stop  offset="0.2" style="stop-color:#BC94FF"/>
		<stop  offset="0.8" style="stop-color:#FF873C"/>
		<stop  offset="1" style="stop-color:#FF873C"/>
	</linearGradient>
	<path id="Logo" style="fill:url(#Logo_00000007394735839224371180000011628566679029176761_);" d="M1487.1,323.2l-1.3-0.5
		l-43.5-43.5c10.8-24.5,24.1-47.8,39.6-69.7c24.9,23.4,74.9,50.6,172.5,50.6c3.4,0,6.9,0,10.5-0.1
		c167.3-3.2,339.5-107.5,380.2-137.7c11.4,8.6,22.4,17.9,32.9,27.7c-85,59.2-176.8,108.1-273.3,145.7
		c-58.3,23.2-119.7,37.6-182.2,42.5C1576.7,341.6,1530.9,336.5,1487.1,323.2z M1488.6,200c10.1,11,42.6,32.5,99.8,42.9
		c46.6,8.5,124.1,11.7,228.1-21.5c77.8-24.4,151.5-60.3,218.8-106.3c-12.2-8.7-24.9-16.6-38-23.9c-74.6,42-156.3,70-241,82.8
		c-22.9,3.6-46,5.5-69.2,5.8c-21.8,0.2-43.5-2.2-64.6-7.3c-25.5-4.9-48.3-18.9-64.2-39.3c-0.8-1.2-1.5-2.3-2-3.1
		C1531,150.6,1508.3,174.1,1488.6,200L1488.6,200z M1748.7,97.1c59-1.7,117.3-13.8,172.2-35.6c0.9-0.4,2.4-1.1,3.2-1.5
		c-38.3-11.9-78.2-18-118.4-18c-54.6-0.1-108.6,11.1-158.6,32.9c0.4,1.4,1,2.7,1.9,3.9C1661.3,94.9,1708.6,98.8,1748.7,97.1
		L1748.7,97.1z M1754.6,162.6c80.9-11.8,159.1-38.1,230.7-77.6c-14.9-7.6-30.2-14.2-45.9-19.8c-1.3,0.8-3.1,1.9-4.7,2.6
		c-21.7,10.8-83.3,36.3-186,40.9c-6.8,0.3-13.4,0.4-19.7,0.4c-16.8,0.2-33.5-1.2-50-4.2c-15-1.5-28.9-8.2-39.3-19.1
		c-1.4-1.8-2.5-3.8-3.3-5.9c-25.1,11.8-48.9,26.3-70.9,43.1c2.4,4,5.3,7.8,8.5,11.1C1614.8,176.4,1704.7,170.1,1754.6,162.6
		L1754.6,162.6z M1655.4,492.4l73.6-73.6c-40.6,13.1-82.8,20.4-125.5,21.7L1655.4,492.4z M2149.6,240.4c-5.7,5-11.9,10.5-18.6,16.4
		c-54.5,48.1-136.8,120.7-231.5,179.1l56.5,56.5L2169.3,279C2163.5,265.8,2156.9,252.9,2149.6,240.4L2149.6,240.4z M2143.6,230.3
		c-7.4-11.9-15.4-23.4-24-34.5c-86.4,70.3-180.6,130.6-280.6,179.5l52.2,52.2c93.1-57,186.2-138.9,236.4-183.2
		C2133.5,239,2138.9,234.3,2143.6,230.3L2143.6,230.3z M2086.4,158.2c-45.8,34.1-257.2,168.5-434,189.3c-17.8,2-35.7,3-53.6,3
		c-32.2,0.3-64.3-3.2-95.7-10.5l89.4,89.4c52.8-1.5,105-11.2,154.8-28.7l58.5-58.5l24.5,24.5c100.4-49.4,195-109.7,282.1-179.8
		C2104.2,176.9,2095.5,167.3,2086.4,158.2L2086.4,158.2z"/>
</g>
</svg>
