<?xml version="1.0" encoding="utf-8"?>
<!-- Generator: Adobe Illustrator 27.5.0, SVG Export Plug-In . SVG Version: 6.00 Build 0)  -->
<svg version="1.1" id="Layer_1" xmlns="http://www.w3.org/2000/svg" xmlns:xlink="http://www.w3.org/1999/xlink" x="0px" y="0px"
	 viewBox="0 0 2219 768" style="enable-background:new 0 0 2219 768;" xml:space="preserve">
<style type="text/css">
	.st0{fill:#005FCC;}
	.st1{fill:#D3D2D2;}
	.st2{fill:#4295EE;}
	.st3{fill:#89898A;}
	.st4{fill:#545253;}
	.st5{fill:#FEFEFF;}
	.st6{fill:#008FFF;}
	.st7{fill:#65CC00;}
	.st8{fill:#00B7D4;}
	.st9{fill:#BB0099;}
	.st10{fill:#EE0101;}
	.st11{fill:#FE8500;}
	.st12{fill:#FECB00;}
	.st13{fill:#E9A1DE;}
	.st14{fill:#4C2178;}
	.st15{fill:#FFFFFF;}
	.st16{fill:#006633;}
</style>
<path d="M1064.8,718.2c-0.4-2.4-0.4-4.8-0.4-7.2c0-107.6,0-215.3,0-322.9c0-2.6,0-5.1,0-7.5c0.9-0.8,1.7-0.5,2.5-0.5
	c38.4,0,76.8-0.2,115.2,0.1c9.4,0.1,18.9,0.9,28.3,2.2c6.5,0.9,13,2,19.4,3.2c5.7,1.1,11.2,3,16.9,4.5c5.2,1.4,10.4,3.4,15.1,5.8
	c12.8,6.2,24.5,14.1,33.9,25.1c3.9,4.6,7.4,9.5,10.4,14.8c4.9,8.7,7.8,18.1,9.9,27.7c0.3,1.6,0.5,3.2,0.7,4.8c0,0.2,0,0.4,0,0.6
	c0,0.5,0,0.9,0,1.4c-0.1,1.8-0.2,3.6-0.3,5.2c0.6,0.9,1.1-0.4,1.6,0.3c0,7.6,0,15.2,0,22.8c-0.4,2.1-0.7,4.3-1.1,6.4
	c-0.6,4-1.1,8-2,11.9c-3.6,15.9-10.5,30.3-21.4,42.5c-3.8,4.2-8,8-12.4,11.6c-4.2,3.5-8.9,6.3-13.4,9.2c-6.1,3.8-12.9,6.4-19.7,8.9
	c-12.1,4.6-24.6,7.1-37.3,9c-8.3,1.2-16.6,1.9-25,2c-14.8,0.2-29.6,0.2-44.4,0.3c-6.6,0-6.6,0.1-6.6,6.8c0,35.9,0,71.9,0,107.8
	c0,1,0.4,2.2-0.9,2.9c-1.2-0.1-2.5-0.2-3.7-0.2c-21.1,0-42.1,0-63.2,0C1066.2,717.8,1065.5,717.9,1064.8,718.2z M1134.7,545.1
	c0.6,0.1,0.8,0.3,1.1,0.2c15.9-0.4,31.9,0.6,47.8-0.5c7.9-0.5,15.8-1.2,23.5-3.1c8.7-2.1,16.9-5.5,23.8-11.4
	c11.2-9.5,15.1-22.2,16.2-36.2c0.4-6,0.1-11.9-0.9-17.9c-1.9-10.8-6.8-19.9-15.4-26.8c-8.8-7.1-19.2-10.6-30.1-12.8
	c-9.6-1.9-19.3-2.3-29-2.7c-11.6-0.4-23.2,0-34.7,0c-1.8,0-2.2,0.5-2.2,2.3c0,34.8,0,69.6,0,104.4
	C1134.7,542,1134.7,543.5,1134.7,545.1z"/>
<path class="st0" d="M347.7,717.9c-6.3-0.5-12.7-0.7-19-1.6c-6.9-1-13.9-1.6-20.8-3.1c-3.1-0.7-6.2-1.4-9.3-2.3
	c-3.5-1.1-7.3-1.6-10.9-2.6c-9.3-2.7-18.7-5.3-27.8-8.8c-6.6-2.5-13.2-5.1-19.8-7.9c-5.4-2.3-10.5-4.9-15.7-7.5
	c-1.4-0.7-1.4-1.4-0.5-2.7c3.1-4.8,6.4-9.4,8.8-14.6c0.6-1.3,2-2.4,3-3.7c4.3-6,8.1-12.3,12.3-18.4c3.2-4.6,6.2-9.2,9.4-13.9
	c3.5-5.2,6.9-10.4,10.4-15.6c3.1-4.6,6.1-9.2,9.2-13.7c2.3-3.3,4.4-6.7,6.6-10c1.7-2.5,3.4-5.1,5.1-7.6c2.2-3.3,4.5-6.6,6.6-10
	c1.6-2.6,3.3-5.1,5.2-7.6c1.7-2.3,3.2-4.7,4.8-7.1c3.8-5.7,7.5-11.4,11.3-17.1c2.5-3.8,5.3-7.4,7.6-11.3
	c5.1-8.5,11.7-16.1,16.6-24.7c2.1-3.7,4.7-7.2,7.1-10.7c2.4-3.6,5.2-6.9,7.1-10.7c1.4-2.7,3.4-4.9,4.8-7.7c1-2,2.5-4.2,4-6.1
	s2.5-4.1,3.9-5.9c1.6-1.9,2.5-4.2,4.1-6c1.6-1.9,2.5-4.1,3.9-5.9c1.6-1.9,2.5-4.3,4-6.1c2.9-3.3,5.1-7.1,7.6-10.7
	c5-7.1,9.3-14.7,14.9-21.5c0.2-0.2,0.5-0.4,0.9-0.8c0.7,1.3,0.5,2.7,0.5,3.9c0,52.5,0.1,104.9,0.1,157.4c0,43.9,0,87.7,0,131.6
	c0,2.8-0.1,5.6-0.1,8.4c0,1-0.1,2-1,2.7c-1.7-0.6-3.7,0-5.3-1.5c-0.4,1.5-2.3,1-2.6,2.5c-11.9,0-23.8,0-35.7,0
	c-0.4-0.5-0.9-0.4-1.4-0.5C354.3,716.9,350.9,718,347.7,717.9z"/>
<path class="st1" d="M776.8,719.3c0-0.4,0.1-0.7,0.1-1.1c0.2-0.1,0.6-0.1,0.3-0.5c2.2,0,4.4,0.1,6.7,0.1c62.1,0,124.2,0,186.2,0
	c9.3,0,18.5,0.1,27.8,0.2c0,0.4,0,0.9,0,1.3c-0.3,0-0.7,0-1,0c0.1-0.3-0.1-0.4-0.4-0.3c-0.1,0-0.1,0.2-0.1,0.3
	C923.1,719.3,849.9,719.3,776.8,719.3z"/>
<path class="st1" d="M623.9,719.3c0-0.3,0-0.7,0-1c1.8,0.1,3.5-0.6,5.3-0.6c27.7,0.4,55.4-0.6,83,0.5c0,0.3,0,0.7,0,1
	c-1.2,0-2.3,0-3.5,0c0.1-0.3-0.1-0.4-0.4-0.3c-0.1,0-0.1,0.2-0.1,0.3C680.1,719.3,652,719.3,623.9,719.3z"/>
<path class="st1" d="M1133.8,718c-0.2,0.4-0.3,0.9-0.5,1.3c-1.2,0-2.3,0-3.5,0c0.1-0.3-0.1-0.4-0.4-0.3c-0.1,0-0.1,0.2-0.1,0.3
	c-21.7,0-43.4,0-65,0c0.2-0.4,0.4-0.7,0.5-1.1c0.7-0.4,1.4-0.4,2.1-0.4c21.1,0,42.1,0,63.2,0C1131.3,717.8,1132.6,717.9,1133.8,718z
	"/>
<path class="st1" d="M508.1,717.7c0,0.5,0,1,0,1.6c-21.4,0-42.7,0-64.1,0c0-0.5,0.1-1.1,0.1-1.6c0.7,0.1,1.3,0.2,2,0.2
	c9.7,0,19.3-0.1,29-0.1C486.2,717.8,497.2,717.7,508.1,717.7z"/>
<path class="st2" d="M394.5,719.3c0.3-1.5,2.2-1,2.6-2.5c1.6,1.5,3.6,0.8,5.3,1.5c0,0.3,0,0.7,0,1
	C399.8,719.3,397.1,719.3,394.5,719.3z"/>
<path class="st3" d="M1318,475.8c-0.5-0.7-1,0.5-1.6-0.3c0.1-1.5,0.2-3.4,0.3-5.2c0.3,0.6,0.8,0.8,1.4,1.1
	C1318,472.9,1318,474.3,1318,475.8z"/>
<path class="st1" d="M1318,505.1c-0.4,0-0.7,0-1.1,0c0.4-2.1,0.7-4.3,1.1-6.4C1318,500.8,1318,502.9,1318,505.1z"/>
<path class="st4" d="M357.3,718.8c0.5,0.1,1,0.1,1.4,0.5c-3.1,0-6.3,0-9.4,0c-0.3-0.4,0-0.5,0.3-0.6
	C352.2,718.7,354.8,718.7,357.3,718.8z"/>
<path class="st1" d="M1000.2,717.9c0,0.5,0,0.9,0,1.4c-0.5,0-1,0-1.5,0c0-0.5,0-0.9,0-1.4C999.2,717.9,999.7,717.9,1000.2,717.9z"/>
<path class="st5" d="M998.7,717.9c0,0.5,0,0.9,0,1.4c-0.3,0-0.7,0-1,0c0-0.4,0-0.9,0-1.3C998.1,717.9,998.4,717.9,998.7,717.9z"/>
<path class="st4" d="M1129.3,719.3c0-0.1,0-0.3,0.1-0.3c0.2-0.1,0.5,0,0.4,0.3C1129.7,719.3,1129.5,719.3,1129.3,719.3z"/>
<path class="st4" d="M708.3,719.3c0-0.1,0-0.3,0.1-0.3c0.2-0.1,0.5,0,0.4,0.3C708.6,719.3,708.4,719.3,708.3,719.3z"/>
<path class="st4" d="M996.3,719.3c0-0.1,0-0.3,0.1-0.3c0.2-0.1,0.5,0,0.4,0.3C996.6,719.3,996.4,719.3,996.3,719.3z"/>
<path d="M508.1,717.7c-11,0-22,0-33,0.1c-9.7,0-19.3,0.1-29,0.1c-0.7,0-1.3-0.1-2-0.2c0-0.8-0.1-1.6-0.1-2.5c0-111,0-222,0-332.9
	c0-0.6,0-1.2,0-1.7c0.5-0.6,1.1-0.4,1.6-0.4c28.1,0,56.3,0,84.4-0.1c2.4,0,3.1,1.4,3.8,3.1c5.9,12.9,11.9,25.8,17.9,38.7
	c12.4,26.7,24.8,53.4,37.2,80.1c18.4,39.6,36.8,79.3,55.3,118.9c1.5,3.3,2.9,6.7,4.8,9.7c0.1,0.5,0.3,1,0.9,0.8
	c0.3-0.1,0.3-0.5,0-0.8c-0.1-4.1-0.2-8.2-0.2-12.4c0-79.3,0-158.5,0-237.8l0,0c0.9-0.6,1.9-0.3,2.9-0.3c19.1,0,38.2,0,57.3,0
	c3.6,0,3.6,0,3.6,3.6c0,105,0,210.1,0,315.1c0,5.5,0,11.1,0,16.6c0,1.3-0.1,2.3-1.4,2.8c-27.7-1.1-55.4-0.1-83-0.5
	c-1.8,0-3.5,0.7-5.3,0.6c-3.4-4.4-5.1-9.7-7.4-14.7c-5.7-12.1-11.3-24.3-16.8-36.5c-5.6-12.3-11-24.7-16.8-36.8
	c-5.2-11-10.2-22-15.3-33.1c-5.6-12.3-11.2-24.6-16.8-37c-12.5-27.6-25.1-55.1-37.7-82.7c-1.4-3.1-2.8-6.3-5.2-9.5
	c-0.8,3.6-0.1,6.7-0.1,9.8c-0.1,37,0,74,0,111c0,39.7,0,79.3,0,119C507.9,711.1,508.1,714.4,508.1,717.7z"/>
<path class="st6" d="M80.8,546.7c99.7-41.4,199.4-82.2,299.4-124.1c-1,3.2-2.5,5.1-3.9,7.1c-15,22.6-30.1,45.2-45.2,67.8
	c-18.4,27.6-36.9,55.1-55.4,82.7c-9.4,14-18.6,28.1-28.1,42.1c-12,17.6-23.7,35.3-35.5,53.1c-0.8,1.3-1.6,1.3-2.8,0.6
	c-4.3-2.3-8.5-4.7-12.5-7.4c-6.1-4-12.3-7.8-18.3-11.9c-4.8-3.3-9.3-7-13.9-10.6c-6.1-4.7-12.1-9.6-17.6-15
	c-6.2-6-12.6-11.8-18.3-18.3c-3.5-3.9-7.3-7.5-10.8-11.5c-9.5-11.1-18.3-22.7-26.1-35.1c-3.5-5.6-6.7-11.5-10.3-17.1
	C81.2,548.5,81.1,547.7,80.8,546.7z"/>
<path class="st7" d="M338.7,400c-3.4,0.4-6.2-0.6-9-1.2C310.1,395,290.6,391,271,387c-13.9-2.8-27.8-5.7-41.7-8.1
	c-4.4-0.8-8.9-1.7-13.2-2.5c-5.4-1.1-10.9-2.2-16.3-3.3c-4.5-0.9-9-1.8-13.5-2.6c-5.4-1.1-10.8-2.2-16.1-3.3c-13.9-3-28-5.5-42-8.3
	c-14.4-2.9-28.7-5.8-43.1-8.7c-10.7-2.1-21.5-4.1-32.3-6.3c-3.8-0.8-7.6-1.7-11.4-2.5c-2.2-0.4-2.1-1.8-2-3.5
	c1.3-11.4,3.5-22.7,6-34c2.9-12.7,6.5-25.2,10.9-37.5c5.8-16.1,12.6-31.7,20.8-46.8c5.9-10.5,12-20.8,18.9-30.6
	c3.9-5.5,7.9-10.8,11.8-16.3c1.3-1.8,2.1-1.5,3.4-0.1c12.4,12.5,24.8,25,37.2,37.5c7.6,7.6,15.3,15.1,22.9,22.7
	c7.7,7.7,15.2,15.4,22.9,23.1c8,8,16.1,15.8,24,23.8c12.6,12.6,25,25.2,37.6,37.7c8.8,8.8,17.7,17.5,26.6,26.3
	c9.5,9.5,18.9,19.1,28.4,28.5c8.2,8.1,15.9,16.5,24.4,24.3C336.4,397.4,337.4,398.6,338.7,400z"/>
<path class="st8" d="M37.5,354.4c106.2,21.1,211.8,42.1,318.1,63.3c-5,3.1-9.9,4.8-14.6,6.8c-29.2,12.1-58.4,24.2-87.6,36.3
	c-20,8.3-40,16.5-60,24.7c-36,14.9-72,29.8-108,44.7c-3.1,1.3-6.4,2.3-9.3,4c-1.5,0.8-2.6,0.5-3.3-1.1
	c-5.5-12.4-11.6-24.6-16.1-37.5c-6-17.2-10.6-34.9-14.1-52.8c-1.9-9.8-3.1-19.7-4.2-29.6c-1.8-15.6-1.5-31.2-1.4-46.9
	C37.1,362.5,37.5,358.6,37.5,354.4z"/>
<path class="st9" d="M394.4,339.6c-1.4-0.1-2.8-0.2-4.2-0.2c-0.3-1.3,0.8-1.5,1.4-2c23.1-15.5,46.3-30.9,69.5-46.4
	c15.7-10.5,31.3-21.1,47.1-31.6c23.5-15.7,47-31.3,70.5-46.9c6.3-4.2,12.7-8.4,19-12.6c4-2.7,7.9-5.6,12.1-7.9
	c2.9-1.6,5.7-3.5,8.3-5.4c4.1-2.8,8.3-5.7,12.4-8.6c3.3-2.4,6.7-4.7,10.1-6.9c1.8-1.2,3.2-0.6,4,0.8c3.7,6.1,8.6,11.4,12.6,17.3
	c6.1,9.1,11.9,18.4,17.2,28c4.6,8.5,8.9,17.1,12.7,25.9c1.3,3,2.7,6.1,3.9,9.2c2.7,6.8,5.5,13.5,7.5,20.6c1.4,4.8,2.8,9.7,4.3,14.5
	c1.6,4.9,3.1,9.8,4,14.8c1.1,5.8,2.9,11.4,3.7,17.2c0.8,6,1.8,11.9,2.8,17.9c0.3,1.9-0.4,2.3-2,2.2c-1.5-0.1-3,0-4.5,0.1
	c-0.2,0-0.4,0-0.6,0c-0.5,0-0.9,0-1.4,0c-0.2,0-0.4,0-0.6,0c-0.5,0-0.9,0-1.4,0c-0.2,0-0.4,0-0.6,0c-0.5,0-0.9,0-1.4,0
	c-0.2,0-0.4,0-0.6,0c-0.5,0-0.9,0-1.4,0c-0.2,0-0.4,0-0.6,0c-0.5,0-0.9,0-1.4,0c-0.2,0-0.4,0-0.6,0c-0.5,0-0.9,0-1.4,0
	c-0.2,0-0.4,0-0.6,0c-0.5,0-0.9,0-1.4,0c-0.2,0-0.4,0-0.6,0c-0.5,0-0.9,0-1.4,0c-0.2,0-0.4,0-0.6,0c-0.5,0-0.9,0-1.4,0
	c-0.2,0-0.4,0-0.6,0c-0.5,0-0.9,0-1.4,0c-0.2,0-0.4,0-0.6,0c-0.5,0-0.9,0-1.4,0c-0.2,0-0.4,0-0.6,0c-0.5,0-0.9,0-1.4,0
	c-0.2,0-0.4,0-0.6,0c-0.5,0-0.9,0-1.4,0c-0.2,0-0.4,0-0.6,0c-0.5,0-0.9,0-1.4,0c-0.2,0-0.4,0-0.6,0c-0.5,0-0.9,0-1.4,0
	c-0.2,0-0.4,0-0.6,0c-0.5,0-0.9,0-1.4,0c-0.2,0-0.4,0-0.6,0c-0.5,0-0.9,0-1.4,0c-0.2,0-0.4,0-0.6,0c-0.5,0-0.9,0-1.4,0
	c-0.2,0-0.4,0-0.6,0c-0.5,0-0.9,0-1.4,0c-0.2,0-0.4,0-0.6,0c-0.5,0-0.9,0-1.4,0c-0.2,0-0.4,0-0.6,0c-0.5,0-0.9,0-1.4,0
	c-0.2,0-0.4,0-0.6,0c-0.5,0-0.9,0-1.4,0c-0.2,0-0.4,0-0.6,0c-0.5,0-0.9,0-1.4,0c-0.2,0-0.4,0-0.6,0c-0.5,0-0.9,0-1.4,0
	c-0.2,0-0.4,0-0.6,0c-0.5,0-0.9,0-1.4,0c-0.2,0-0.4,0-0.6,0c-0.5,0-0.9,0-1.4,0c-0.2,0-0.4,0-0.6,0c-0.5,0-0.9,0-1.4,0
	c-0.2,0-0.4,0-0.6,0c-0.5,0-0.9,0-1.4,0c-0.2,0-0.4,0-0.6,0c-0.5,0-0.9,0-1.4,0c-0.2,0-0.4,0-0.6,0c-0.5,0-0.9,0-1.4,0
	c-0.2,0-0.4,0-0.6,0c-0.5,0-0.9,0-1.4,0c-0.2,0-0.4,0-0.6,0c-0.5,0-0.9,0-1.4,0c-0.2,0-0.4,0-0.6,0c-0.5,0-0.9,0-1.4,0
	c-0.2,0-0.4,0-0.6,0c-0.5,0-0.9,0-1.4,0c-0.2,0-0.4,0-0.6,0c-0.5,0-0.9,0-1.4,0c-0.2,0-0.4,0-0.6,0c-0.5,0-0.9,0-1.4,0
	c-0.2,0-0.4,0-0.6,0c-0.5,0-0.9,0-1.4,0c-0.2,0-0.4,0-0.6,0c-0.5,0-0.9,0-1.4,0c-0.2,0-0.4,0-0.6,0c-0.5,0-0.9,0-1.4,0
	c-0.2,0-0.4,0-0.6,0c-0.5,0-0.9,0-1.4,0c-0.2,0-0.4,0-0.6,0c-0.5,0-0.9,0-1.4,0c-0.2,0-0.4,0-0.6,0c-0.5,0-0.9,0-1.4,0
	c-0.2,0-0.4,0-0.6,0c-0.5,0-0.9,0-1.4,0c-0.2,0-0.4,0-0.6,0c-0.5,0-0.9,0-1.4,0c-0.2,0-0.4,0-0.6,0c-0.5,0-0.9,0-1.4,0
	c-0.2,0-0.4,0-0.6,0c-0.5,0-0.9,0-1.4,0c-0.2,0-0.4,0-0.6,0c-0.5,0-0.9,0-1.4,0c-0.2,0-0.4,0-0.6,0c-0.5,0-0.9,0-1.4,0
	c-0.2,0-0.4,0-0.6,0c-0.5,0-0.9,0-1.4,0c-0.2,0-0.4,0-0.6,0c-0.5,0-0.9,0-1.4,0c-0.2,0-0.4,0-0.6,0c-0.5,0-0.9,0-1.4,0
	c-0.2,0-0.4,0-0.6,0c-0.5,0-0.9,0-1.4,0c-0.2,0-0.4,0-0.6,0c-0.5,0-0.9,0-1.4,0c-0.2,0-0.4,0-0.6,0c-0.5,0-0.9,0-1.4,0
	c-0.2,0-0.4,0-0.6,0c-0.5,0-0.9,0-1.4,0c-0.2,0-0.4,0-0.6,0c-0.5,0-0.9,0-1.4,0c-0.2,0-0.4,0-0.6,0c-0.5,0-0.9,0-1.4,0
	c-0.2,0-0.4,0-0.6,0c-0.5,0-0.9,0-1.4,0c-0.2,0-0.4,0-0.6,0c-0.5,0-0.9,0-1.4,0c-0.2,0-0.4,0-0.6,0c-0.5,0-0.9,0-1.4,0
	c-0.2,0-0.4,0-0.6,0c-0.5,0-0.9,0-1.4,0c-0.2,0-0.4,0-0.6,0c-0.5,0-0.9,0-1.4,0c-0.2,0-0.4,0-0.6,0c-0.5,0-0.9,0-1.4,0
	c-0.2,0-0.4,0-0.6,0c-0.5,0-0.9,0-1.4,0c-0.2,0-0.4,0-0.6,0c-0.5,0-0.9,0-1.4,0c-0.2,0-0.4,0-0.6,0c-0.5,0-0.9,0-1.4,0
	c-0.2,0-0.4,0-0.6,0c-0.5,0-0.9,0-1.4,0c-0.2,0-0.4,0-0.6,0c-0.5,0-0.9,0-1.4,0c-0.2,0-0.4,0-0.6,0c-0.5,0-0.9,0-1.4,0
	c-0.2,0-0.4,0-0.6,0c-0.5,0-0.9,0-1.4,0c-0.2,0-0.4,0-0.6,0c-0.5,0-0.9,0-1.4,0c-0.2,0-0.4,0-0.6,0c-0.5,0-0.9,0-1.4,0
	c-0.2,0-0.4,0-0.6,0c-0.5,0-0.9,0-1.4,0c-0.2,0-0.4,0-0.6,0c-0.5,0-0.9,0-1.4,0c-0.2,0-0.4,0-0.6,0c-0.5,0-0.9,0-1.4,0
	c-0.2,0-0.4,0-0.6,0c-0.5,0-0.9,0-1.4,0c-0.2,0-0.4,0-0.6,0c-0.5,0-0.9,0-1.4,0c-0.2,0-0.4,0-0.6,0c-0.5,0-0.9,0-1.4,0
	c-0.2,0-0.4,0-0.6,0c-0.5,0-0.9,0-1.4,0c-0.2,0-0.4,0-0.6,0c-0.5,0-0.9,0-1.4,0c-0.2,0-0.4,0-0.6,0c-0.5,0-0.9,0-1.4,0
	c-0.2,0-0.4,0-0.6,0c-0.5,0-0.9,0-1.4,0c-0.2,0-0.4,0-0.6,0c-0.5,0-0.9,0-1.4,0c-0.2,0-0.4,0-0.6,0c-0.5,0-0.9,0-1.4,0
	c-0.2,0-0.4,0-0.6,0c-0.5,0-0.9,0-1.4,0c-0.2,0-0.4,0-0.6,0c-0.5,0-0.9,0-1.4,0c-0.2,0-0.4,0-0.6,0c-0.5,0-0.9,0-1.4,0
	c-0.2,0-0.4,0-0.6,0c-0.5,0-0.9,0-1.4,0c-0.2,0-0.4,0-0.6,0c-0.5,0-0.9,0-1.4,0c-0.2,0-0.4,0-0.6,0c-0.5,0-0.9,0-1.4,0
	c-0.2,0-0.4,0-0.6,0c-0.5,0-0.9,0-1.4,0c-0.2,0-0.4,0-0.6,0c-0.5,0-0.9,0-1.4,0c-0.2,0-0.4,0-0.6,0c-0.5,0-0.9,0-1.4,0
	c-0.2,0-0.4,0-0.6,0c-0.5,0-0.9,0-1.4,0c-0.2,0-0.4,0-0.6,0c-0.5,0-0.9,0-1.4,0c-0.2,0-0.4,0-0.6,0c-0.5,0-0.9,0-1.4,0
	c-0.2,0-0.4,0-0.6,0c-2.5,0-4.9,0-7.4,0c-0.2,0-0.4,0-0.6,0c-0.5,0-0.9,0-1.4,0c-0.2,0-0.4,0-0.6,0c-0.5,0-0.9,0-1.4,0
	c-0.2,0-0.4,0-0.6,0c-0.5,0-0.9,0-1.4,0c-0.2,0-0.4,0-0.6,0c-0.5,0-0.9,0-1.4,0c-0.2,0-0.4,0-0.6,0c-0.5,0-0.9,0-1.4,0
	c-0.2,0-0.4,0-0.6,0c-0.5,0-0.9,0-1.4,0c-0.2,0-0.4,0-0.6,0c-0.5,0-0.9,0-1.4,0c-0.2,0-0.4,0-0.6,0c-0.5,0-0.9,0-1.4,0
	c-0.2,0-0.4,0-0.6,0c-0.5,0-0.9,0-1.4,0c-0.2,0-0.4,0-0.6,0c-0.5,0-0.9,0-1.4,0c-0.2,0-0.4,0-0.6,0c-0.5,0-0.9,0-1.4,0
	c-0.2,0-0.4,0-0.6,0c-0.5,0-0.9,0-1.4,0c-0.2,0-0.4,0-0.6,0c-0.5,0-0.9,0-1.4,0c-0.2,0-0.4,0-0.6,0c-0.5,0-0.9,0-1.4,0
	c-0.2,0-0.4,0-0.6,0c-0.5,0-0.9,0-1.4,0c-0.2,0-0.4,0-0.6,0c-0.5,0-0.9,0-1.4,0c-0.2,0-0.4,0-0.6,0c-0.5,0-0.9,0-1.4,0
	c-0.2,0-0.4,0-0.6,0c-0.5,0-0.9,0-1.4,0c-0.2,0-0.4,0-0.6,0c-0.5,0-0.9,0-1.4,0c-0.2,0-0.4,0-0.6,0c-0.5,0-0.9,0-1.4,0
	c-0.2,0-0.4,0-0.6,0c-0.5,0-0.9,0-1.4,0c-0.2,0-0.4,0-0.6,0c-0.5,0-0.9,0-1.4,0c-0.2,0-0.4,0-0.6,0c-0.5,0-0.9,0-1.4,0
	c-0.2,0-0.4,0-0.6,0c-0.5,0-0.9,0-1.4,0c-0.2,0-0.4,0-0.6,0c-0.5,0-0.9,0-1.4,0c-0.2,0-0.4,0-0.6,0c-0.5,0-0.9,0-1.4,0
	c-0.2,0-0.4,0-0.6,0c-0.5,0-0.9,0-1.4,0c-0.2,0-0.4,0-0.6,0c-0.5,0-0.9,0-1.4,0c-0.2,0-0.4,0-0.6,0c-0.5,0-0.9,0-1.4,0
	c-0.2,0-0.4,0-0.6,0c-0.5,0-0.9,0-1.4,0c-0.2,0-0.4,0-0.6,0c-0.5,0-0.9,0-1.4,0c-0.2,0-0.4,0-0.6,0c-0.5,0-0.9,0-1.4,0
	c-0.2,0-0.4,0-0.6,0c-0.5,0-0.9,0-1.4,0c-0.2,0-0.4,0-0.6,0c-0.5,0-0.9,0-1.4,0c-0.2,0-0.4,0-0.6,0c-0.5,0-0.9,0-1.4,0
	c-0.2,0-0.4,0-0.6,0c-0.5,0-0.9,0-1.4,0c-0.2,0-0.4,0-0.6,0c-0.5,0-0.9,0-1.4,0c-0.2,0-0.4,0-0.6,0c-0.5,0-0.9,0-1.4,0
	c-0.2,0-0.4,0-0.6,0c-0.5,0-0.9,0-1.4,0c-0.2,0-0.4,0-0.6,0c-0.5,0-0.9,0-1.4,0c-0.2,0-0.4,0-0.6,0c-0.5,0-0.9,0-1.4,0
	c-0.2,0-0.4,0-0.6,0c-0.5,0-0.9,0-1.4,0c-0.2,0-0.4,0-0.6,0c-0.5,0-0.9,0-1.4,0c-0.2,0-0.4,0-0.6,0c-0.5,0-0.9,0-1.4,0
	c-0.2,0-0.4,0-0.6,0c-0.5,0-0.9,0-1.4,0c-0.2,0-0.4,0-0.6,0c-0.5,0-0.9,0-1.4,0c-0.2,0-0.4,0-0.6,0c-0.5,0-0.9,0-1.4,0
	c-0.2,0-0.4,0-0.6,0c-0.5,0-0.9,0-1.4,0c-0.2,0-0.4,0-0.6,0c-0.5,0-0.9,0-1.4,0c-0.2,0-0.4,0-0.6,0c-0.5,0-0.9,0-1.4,0
	c-0.2,0-0.4,0-0.6,0c-0.5,0-0.9,0-1.4,0c-0.2,0-0.4,0-0.6,0c-2.5,0-4.9,0-7.4,0c-0.2,0-0.4,0-0.6,0c-0.5,0-0.9,0-1.4,0
	c-0.2,0-0.4,0-0.6,0c-0.3,0-0.6,0-0.9,0C395.2,339.7,394.8,339.7,394.4,339.6z"/>
<path class="st10" d="M634.2,159.2c-4.8,3.2-9.3,6.2-13.9,9.2c-7.9,5.3-15.9,10.6-23.8,15.9s-15.9,10.5-23.8,15.9
	c-10.3,7-20.9,13.5-31,20.7c-7.8,5.5-15.9,10.6-23.8,15.9c-7.9,5.2-15.8,10.5-23.6,15.7c-8,5.3-16,10.7-24,16
	c-9.2,6.1-18.4,12.2-27.6,18.3c-8,5.3-15.9,10.6-23.9,15.9c-9,6-18.1,12.1-27.1,18.1c-6,4-12,8-18,12c-2.6,1.7-5.7,3.1-7.8,5.9
	c-1.6-1.9-0.2-3.4,0.4-4.8c2.3-5,4.6-10,6.7-15c1.5-3.6,3.1-7.1,4.3-10.8c3-8.8,7.1-17.2,10.7-25.8c0.8-1.9,1.8-3.8,1.7-5.8
	c-0.1-1.3,1.1-1.1,1.5-2c1.8-4.4,4-8.7,5.6-13.2c2.2-5.9,4.8-11.5,6.9-17.4c2.4-6.5,5.4-12.8,8.1-19.2c0.9-2.1,1.1-4.7,2.1-6.4
	c1.3-2.2,2-4.5,3.1-6.8c2-4.2,3.7-8.6,5.5-12.9c3.7-8.7,7.7-17.3,10.8-26.2c2.7-7.7,6.4-14.9,9.3-22.5s6.3-15,9.4-22.5
	c2.6-6.2,5.1-12.4,7.5-18.6c3.3-8.5,7.5-16.7,10.7-25.3c2.6-7,6.1-13.6,8.4-20.7c0.4-1.3,1.2-2.4,1.5-3.7c0.3-1.4,1.6-1.7,3.2-1.2
	c7.1,2.5,14.1,5.1,21.1,7.8c7.4,2.9,14.6,6.4,21.8,9.8c12.3,6,24.2,12.8,35.7,20.2c6,3.8,11.7,8,17.5,12.2
	c6.2,4.5,12.1,9.4,17.9,14.3c9.8,8.2,18.9,17.1,27.6,26.4C627.9,152.1,630.9,155.6,634.2,159.2z"/>
<path class="st11" d="M343.3,352.1c-0.8-4.3-1.5-8.4-2.4-12.5c-3.9-19.7-7.9-39.5-11.8-59.2c-5-25.2-10-50.5-15-75.7
	c-2-10.3-4.1-20.6-6.1-31c-4.3-21.6-8.7-43.1-13-64.7c-3-15.2-6-30.4-9.1-45.6c-0.5-2.7-1-5.4-1.6-8.1c-0.3-1.6,0.6-2,1.8-2.3
	c10.6-2.7,21.3-5.4,32.1-7.2c9-1.5,18.1-2.8,27.3-3.6c4.8-0.4,9.7-0.4,14.5-0.9c8.6-1,17.2-0.7,25.7-0.3c9.7,0.4,19.5,0.3,29.1,2.2
	c4.7,0.9,9.6,0.7,14.4,1.6c10.4,1.9,20.9,3.3,31,6.8c1.6,0.6,3.4,0.6,5.1,1.1c1.2,0.3,2.1,0.9,1.5,2.7c-2.1,5.7-4.4,11.4-7.1,16.9
	c-0.5,1-0.7,1.9-1,2.9c-2.2,6.9-5.3,13.5-8,20.2c-2.1,5.3-4.5,10.6-6.6,15.9c-1.8,4.7-4.2,9.1-6,13.8c-1.7,4.4-3.8,8.5-5.4,12.9
	c-1.8,4.8-3.7,9.5-5.5,14.2c-2.3,6.3-6,11.9-7.5,18.6c-0.4,1.9-1.7,4-3,5.7c-1.6,2-2.5,4.6-3.1,6.6c-1.4,5.2-4.2,9.7-5.8,14.6
	c-2.3,7.1-5.7,13.6-8.2,20.6c-2.4,6.6-5,13.2-8.4,19.5c-1.9,3.5-3.2,7.3-4.6,11.1c-2.6,6.9-5.3,13.7-8.6,20.3
	c-0.4,0.8-0.4,1.7-0.8,2.5c-3.2,6.9-5.1,14.3-8.8,20.9c-0.8,1.5-1.2,3.3-1.8,4.9c-2,5.5-4,11-6.5,16.3c-3.3,7.1-6,14.5-9.2,21.7
	c-2.2,5-4.3,10-6.1,15.1C344.5,351.4,344.3,351.9,343.3,352.1z"/>
<path class="st12" d="M333.5,374.8c-1-0.1-1.5-1-2.1-1.6C277.1,319,222.9,264.8,168.7,210.6c-11.6-11.6-23.3-23.3-34.9-34.9
	c-4.7-4.7-9.4-9.4-14.2-14c-1.4-1.3-1.2-2.3,0-3.5c8.2-8.6,15.9-17.7,24.8-25.7c10.2-9.2,20.6-17.9,31.6-26.2
	c4.9-3.7,9.8-7.2,14.9-10.5c5.3-3.4,10.8-6.7,16.3-9.8c13.6-7.7,27.6-14.5,42-20.4c6.3-2.6,12.7-4.7,19.1-7c2.1-0.7,2.8,0.1,3.1,1.8
	c1.3,9.3,3.5,18.3,5.2,27.5c1.9,10.7,4.4,21.3,6.5,31.9c1.9,9.4,3.5,18.8,5.4,28.2c2.3,11.4,4.7,22.7,7,34
	c3.8,18.8,7.5,37.6,11.2,56.3c3.6,18,7.3,35.9,10.8,53.9c4.2,21.2,8.4,42.4,12.6,63.6c1.1,5.7,2.4,11.3,3.5,16.9
	C333.6,373.5,334,374.1,333.5,374.8z"/>
<path d="M776.8,437.7c0-15,0-30.1,0-45.1c0.7-1.3,0.7-2.6,0-4c0-2.7,0-5.4,0.1-8.2l0,0c0.8-0.6,1.8-0.3,2.7-0.3
	c77.3,0,154.7,0,232,0c0.8,0,1.6,0,2.6,0c-2.7,9.9-4,19.9-6.3,29.7c-1.3,5.6-2.1,11.4-3.2,17.1c-0.8,4.5-1.8,9-2.5,13.5
	c-0.3,2.1-1.2,3.1-3.7,3.1c-73-0.1-145.9-0.1-218.9-0.1c-0.9,0-2,0.4-2.7-0.6l0.1-0.1l-0.1-0.1c0-0.5,0-1.1,0-1.6
	C777.5,440,777.6,438.8,776.8,437.7z"/>
<path d="M777.3,514.6c68,0,136,0,204.1,0.1c1,0,2,0,3,0c0.3,0.6,0.7,0.6,1,0c4.7,0,9.4,0,14.1,0c1.5,0,2.2,0.3,2.2,2.1
	c-0.1,20.3-0.1,40.6-0.1,60.9c0,0.2-0.1,0.3-0.2,0.7c-74.7,0-149.4,0-224.1,0c-0.7-0.8-0.2-1.9-0.5-2.8c0.1-0.1,0.1-0.3,0-0.4
	c0-0.2,0-0.4,0-0.5c0.6-0.5,0.6-1,0-1.5c0-14.9,0-29.8,0-44.6c0.7-1.2,0.7-2.3,0-3.5c0-3.3,0-6.6,0.1-9.9
	C777,514.9,777.2,514.7,777.3,514.6z"/>
<path d="M998.7,717.9c-0.3,0-0.6,0-0.9,0c-9.3-0.1-18.5-0.2-27.8-0.2c-62.1,0-124.2,0-186.2,0c-2.2,0-4.4-0.1-6.7-0.1h0.1
	c-0.1-1.6-0.2-3.3-0.3-4.9c0.6-0.3,0.6-0.7,0-1c0-14.7,0-29.4,0-44.1c0.7-0.7,0.7-1.3,0-2c0-1.7,0-3.3,0-5c0.7-1,0.7-2-0.1-3
	c0-0.8,0.1-1.6,0.1-2.4c0.7-0.2,1.4,0.1,1.9-0.6c2.5,0.1,5,0.2,7.4,0.2c70.6,0,141.3,0,211.9,0c3.5,0,3.5,0,3.6,3.4
	c-0.1,0.1-0.1,0.3,0,0.4c0,17.8,0,35.6-0.1,53.3c0,1.3,0,2.6,0,4c0,1-0.2,1.8-1.4,1.8C999.7,717.9,999.2,717.9,998.7,717.9z"/>
<path class="st2" d="M357.3,718.8c-2.6,0-5.1-0.1-7.7-0.1c-0.5-0.6-1.5-0.1-1.9-0.8C350.9,718,354.3,716.9,357.3,718.8z"/>
<path class="st4" d="M776.8,388.6c0.7,1.3,0.7,2.6,0,4C776,391.2,775.9,389.9,776.8,388.6z"/>
<path class="st4" d="M776.8,437.7c0.7,1.2,0.7,2.3,0,3.5C776,440,775.9,438.8,776.8,437.7z"/>
<path class="st4" d="M776.8,524.9c0.7,1.2,0.7,2.3,0,3.5C775.9,527.2,775.9,526.1,776.8,524.9z"/>
<path class="st4" d="M776.8,657.8c0.8,1,0.8,2,0.1,3C775.9,659.8,776,658.8,776.8,657.8z"/>
<path class="st4" d="M776.8,665.7c0.7,0.7,0.7,1.3,0,2C776,667.1,776,666.4,776.8,665.7z"/>
<path class="st4" d="M778.8,654.7c-0.5,0.7-1.3,0.4-1.9,0.6C777.2,654.3,777.8,653.8,778.8,654.7z"/>
<path class="st4" d="M776.8,573c0.6,0.5,0.6,1,0,1.5C775.9,574,776,573.5,776.8,573z"/>
<path class="st3" d="M650,630.6c0.3,0.3,0.3,0.7,0,0.8c-0.6,0.2-0.8-0.2-0.9-0.8C649.4,630.6,649.7,630.6,650,630.6z"/>
<path class="st4" d="M985.3,514.6c-0.3,0.6-0.6,0.6-1,0c0-0.4,0.2-0.6,0.6-0.5C985.1,514.1,985.2,514.4,985.3,514.6z"/>
<path class="st4" d="M776.8,711.9c0.6,0.3,0.6,0.6,0,1c-0.2-0.1-0.5-0.2-0.5-0.4C776.3,712.1,776.5,711.9,776.8,711.9z"/>
<path class="st13" d="M394.4,339.6c0.4,0,0.7,0,1.1,0C395.1,340,394.8,340,394.4,339.6z"/>
<path class="st13" d="M595,339.6c0.2,0,0.4,0,0.6,0C595.4,339.9,595.2,339.9,595,339.6z"/>
<path class="st13" d="M471.9,339.6c0.2,0,0.4,0,0.6,0C472.3,339.9,472.1,339.9,471.9,339.6z"/>
<path class="st13" d="M473.9,339.6c0.2,0,0.4,0,0.6,0C474.3,339.9,474.1,339.9,473.9,339.6z"/>
<path class="st13" d="M475.9,339.6c0.2,0,0.4,0,0.6,0C476.3,339.9,476.1,339.9,475.9,339.6z"/>
<path class="st13" d="M477.8,339.6c0.2,0,0.4,0,0.6,0C478.2,339.9,478,339.9,477.8,339.6z"/>
<path class="st13" d="M479.8,339.6c0.2,0,0.4,0,0.6,0C480.2,339.9,480,339.9,479.8,339.6z"/>
<path class="st13" d="M481.8,339.6c0.2,0,0.4,0,0.6,0C482.2,339.9,482,339.9,481.8,339.6z"/>
<path class="st13" d="M483.8,339.6c0.2,0,0.4,0,0.6,0C484.2,339.9,484,339.9,483.8,339.6z"/>
<path class="st13" d="M485.8,339.6c0.2,0,0.4,0,0.6,0C486.2,339.9,486,339.9,485.8,339.6z"/>
<path class="st13" d="M487.8,339.6c0.2,0,0.4,0,0.6,0C488.2,339.9,488,339.9,487.8,339.6z"/>
<path class="st13" d="M489.8,339.6c0.2,0,0.4,0,0.6,0C490.2,339.9,490,339.9,489.8,339.6z"/>
<path class="st13" d="M491.8,339.6c0.2,0,0.4,0,0.6,0C492.1,339.9,491.9,339.9,491.8,339.6z"/>
<path class="st13" d="M493.7,339.6c0.2,0,0.4,0,0.6,0C494.1,339.9,493.9,339.9,493.7,339.6z"/>
<path class="st13" d="M495.7,339.6c0.2,0,0.4,0,0.6,0C496.1,339.9,495.9,339.9,495.7,339.6z"/>
<path class="st13" d="M497.7,339.6c0.2,0,0.4,0,0.6,0C498.1,339.9,497.9,339.9,497.7,339.6z"/>
<path class="st13" d="M499.7,339.6c0.2,0,0.4,0,0.6,0C500.1,339.9,499.9,339.9,499.7,339.6z"/>
<path class="st13" d="M501.7,339.6c0.2,0,0.4,0,0.6,0C502.1,339.9,501.9,339.9,501.7,339.6z"/>
<path class="st13" d="M503.7,339.6c0.2,0,0.4,0,0.6,0C504.1,339.9,503.9,339.9,503.7,339.6z"/>
<path class="st13" d="M505.7,339.6c0.2,0,0.4,0,0.6,0C506,339.9,505.9,339.9,505.7,339.6z"/>
<path class="st13" d="M507.6,339.6c0.2,0,0.4,0,0.6,0C508,339.9,507.8,339.9,507.6,339.6z"/>
<path class="st13" d="M515.6,339.7c0.2,0,0.4,0,0.6,0C516,339.9,515.8,339.9,515.6,339.7z"/>
<path class="st13" d="M517.6,339.6c0.2,0,0.4,0,0.6,0C518,339.9,517.8,339.9,517.6,339.6z"/>
<path class="st13" d="M519.6,339.6c0.2,0,0.4,0,0.6,0C519.9,339.9,519.8,339.9,519.6,339.6z"/>
<path class="st13" d="M521.5,339.6c0.2,0,0.4,0,0.6,0C521.9,339.9,521.7,339.9,521.5,339.6z"/>
<path class="st13" d="M523.5,339.6c0.2,0,0.4,0,0.6,0C523.9,339.9,523.7,339.9,523.5,339.6z"/>
<path class="st13" d="M525.5,339.6c0.2,0,0.4,0,0.6,0C525.9,339.9,525.7,339.9,525.5,339.6z"/>
<path class="st13" d="M527.5,339.6c0.2,0,0.4,0,0.6,0C527.9,339.9,527.7,339.9,527.5,339.6z"/>
<path class="st13" d="M529.5,339.6c0.2,0,0.4,0,0.6,0C529.9,339.9,529.7,339.9,529.5,339.6z"/>
<path class="st13" d="M531.5,339.6c0.2,0,0.4,0,0.6,0C531.9,339.9,531.7,339.9,531.5,339.6z"/>
<path class="st13" d="M533.5,339.6c0.2,0,0.4,0,0.6,0C533.9,339.9,533.7,339.9,533.5,339.6z"/>
<path class="st13" d="M535.4,339.6c0.2,0,0.4,0,0.6,0C535.8,339.9,535.6,339.9,535.4,339.6z"/>
<path class="st13" d="M537.4,339.6c0.2,0,0.4,0,0.6,0C537.8,339.9,537.6,339.9,537.4,339.6z"/>
<path class="st13" d="M539.4,339.6c0.2,0,0.4,0,0.6,0C539.8,339.9,539.6,339.9,539.4,339.6z"/>
<path class="st13" d="M541.4,339.6c0.2,0,0.4,0,0.6,0C541.8,339.9,541.6,339.9,541.4,339.6z"/>
<path class="st13" d="M543.4,339.6c0.2,0,0.4,0,0.6,0C543.8,339.9,543.6,339.9,543.4,339.6z"/>
<path class="st13" d="M545.4,339.6c0.2,0,0.4,0,0.6,0C545.8,339.9,545.6,339.9,545.4,339.6z"/>
<path class="st13" d="M547.4,339.6c0.2,0,0.4,0,0.6,0C547.8,339.9,547.6,339.9,547.4,339.6z"/>
<path class="st13" d="M549.3,339.6c0.2,0,0.4,0,0.6,0C549.7,339.9,549.5,339.9,549.3,339.6z"/>
<path class="st13" d="M551.3,339.6c0.2,0,0.4,0,0.6,0C551.7,339.9,551.5,339.9,551.3,339.6z"/>
<path class="st13" d="M553.3,339.6c0.2,0,0.4,0,0.6,0C553.7,339.9,553.5,339.9,553.3,339.6z"/>
<path class="st13" d="M555.3,339.6c0.2,0,0.4,0,0.6,0C555.7,339.9,555.5,339.9,555.3,339.6z"/>
<path class="st13" d="M557.3,339.6c0.2,0,0.4,0,0.6,0C557.7,339.9,557.5,339.9,557.3,339.6z"/>
<path class="st13" d="M559.3,339.6c0.2,0,0.4,0,0.6,0C559.7,339.9,559.5,339.9,559.3,339.6z"/>
<path class="st13" d="M561.3,339.6c0.2,0,0.4,0,0.6,0C561.7,339.9,561.5,339.9,561.3,339.6z"/>
<path class="st13" d="M563.2,339.6c0.2,0,0.4,0,0.6,0C563.6,339.9,563.4,339.9,563.2,339.6z"/>
<path class="st13" d="M565.2,339.6c0.2,0,0.4,0,0.6,0C565.6,339.9,565.4,339.9,565.2,339.6z"/>
<path class="st13" d="M567.2,339.6c0.2,0,0.4,0,0.6,0C567.6,339.9,567.4,339.9,567.2,339.6z"/>
<path class="st13" d="M569.2,339.6c0.2,0,0.4,0,0.6,0C569.6,339.9,569.4,339.9,569.2,339.6z"/>
<path class="st13" d="M571.2,339.6c0.2,0,0.4,0,0.6,0C571.6,339.9,571.4,339.9,571.2,339.6z"/>
<path class="st13" d="M573.2,339.6c0.2,0,0.4,0,0.6,0C573.6,339.9,573.4,339.9,573.2,339.6z"/>
<path class="st13" d="M575.2,339.6c0.2,0,0.4,0,0.6,0C575.6,339.9,575.4,339.9,575.2,339.6z"/>
<path class="st13" d="M577.2,339.6c0.2,0,0.4,0,0.6,0C577.5,339.9,577.3,339.9,577.2,339.6z"/>
<path class="st13" d="M579.1,339.6c0.2,0,0.4,0,0.6,0C579.5,339.9,579.3,339.9,579.1,339.6z"/>
<path class="st13" d="M581.1,339.6c0.2,0,0.4,0,0.6,0C581.5,339.9,581.3,339.9,581.1,339.6z"/>
<path class="st13" d="M583.1,339.6c0.2,0,0.4,0,0.6,0C583.5,339.9,583.3,339.9,583.1,339.6z"/>
<path class="st13" d="M585.1,339.6c0.2,0,0.4,0,0.6,0C585.5,339.9,585.3,339.9,585.1,339.6z"/>
<path class="st13" d="M587.1,339.6c0.2,0,0.4,0,0.6,0C587.5,339.9,587.3,339.9,587.1,339.6z"/>
<path class="st13" d="M589.1,339.6c0.2,0,0.4,0,0.6,0C589.5,339.9,589.3,339.9,589.1,339.6z"/>
<path class="st13" d="M591.1,339.6c0.2,0,0.4,0,0.6,0C591.4,339.9,591.3,339.9,591.1,339.6z"/>
<path class="st13" d="M593,339.6c0.2,0,0.4,0,0.6,0C593.4,339.9,593.2,339.9,593,339.6z"/>
<path class="st13" d="M467.9,339.6c0.2,0,0.4,0,0.6,0C468.3,339.9,468.1,339.9,467.9,339.6z"/>
<path class="st13" d="M597,339.6c0.2,0,0.4,0,0.6,0C597.4,339.9,597.2,339.9,597,339.6z"/>
<path class="st13" d="M599,339.6c0.2,0,0.4,0,0.6,0C599.4,339.9,599.2,339.9,599,339.6z"/>
<path class="st13" d="M601,339.6c0.2,0,0.4,0,0.6,0C601.4,339.9,601.2,339.9,601,339.6z"/>
<path class="st13" d="M603,339.6c0.2,0,0.4,0,0.6,0C603.4,339.9,603.2,339.9,603,339.6z"/>
<path class="st13" d="M605,339.6c0.2,0,0.4,0,0.6,0C605.3,339.9,605.2,339.9,605,339.6z"/>
<path class="st13" d="M606.9,339.6c0.2,0,0.4,0,0.6,0C607.3,339.9,607.1,339.9,606.9,339.6z"/>
<path class="st13" d="M608.9,339.6c0.2,0,0.4,0,0.6,0C609.3,339.9,609.1,339.9,608.9,339.6z"/>
<path class="st13" d="M610.9,339.6c0.2,0,0.4,0,0.6,0C611.3,339.9,611.1,339.9,610.9,339.6z"/>
<path class="st13" d="M612.9,339.6c0.2,0,0.4,0,0.6,0C613.3,339.9,613.1,339.9,612.9,339.6z"/>
<path class="st13" d="M614.9,339.6c0.2,0,0.4,0,0.6,0C615.3,339.9,615.1,339.9,614.9,339.6z"/>
<path class="st13" d="M616.9,339.6c0.2,0,0.4,0,0.6,0C617.3,339.9,617.1,339.9,616.9,339.6z"/>
<path class="st13" d="M618.9,339.6c0.2,0,0.4,0,0.6,0C619.3,339.9,619.1,339.9,618.9,339.6z"/>
<path class="st13" d="M620.8,339.6c0.2,0,0.4,0,0.6,0C621.2,339.9,621,339.9,620.8,339.6z"/>
<path class="st13" d="M622.8,339.6c0.2,0,0.4,0,0.6,0C623.2,339.9,623,339.9,622.8,339.6z"/>
<path class="st13" d="M624.8,339.6c0.2,0,0.4,0,0.6,0C625.2,339.9,625,339.9,624.8,339.6z"/>
<path class="st13" d="M626.8,339.6c0.2,0,0.4,0,0.6,0C627.2,339.9,627,339.9,626.8,339.6z"/>
<path class="st13" d="M628.8,339.6c0.2,0,0.4,0,0.6,0C629.2,339.9,629,339.9,628.8,339.6z"/>
<path class="st13" d="M630.8,339.6c0.2,0,0.4,0,0.6,0C631.2,339.9,631,339.9,630.8,339.6z"/>
<path class="st13" d="M632.8,339.6c0.2,0,0.4,0,0.6,0C633.2,339.9,633,339.9,632.8,339.6z"/>
<path class="st13" d="M469.9,339.6c0.2,0,0.4,0,0.6,0C470.3,339.9,470.1,339.9,469.9,339.6z"/>
<path class="st13" d="M636.7,339.6c0.2,0,0.4,0,0.6,0C637.1,339.9,636.9,339.9,636.7,339.6z"/>
<path class="st13" d="M638.7,339.6c0.2,0,0.4,0,0.6,0C639.1,339.9,638.9,339.9,638.7,339.6z"/>
<path class="st13" d="M640.7,339.6c0.2,0,0.4,0,0.6,0C641.1,339.9,640.9,339.9,640.7,339.6z"/>
<path class="st13" d="M642.7,339.6c0.2,0,0.4,0,0.6,0C643.1,339.9,642.9,339.9,642.7,339.6z"/>
<path class="st13" d="M644.7,339.6c0.2,0,0.4,0,0.6,0C645.1,339.9,644.9,339.9,644.7,339.6z"/>
<path class="st13" d="M646.7,339.6c0.2,0,0.4,0,0.6,0C647.1,339.9,646.9,339.9,646.7,339.6z"/>
<path class="st13" d="M648.7,339.6c0.2,0,0.4,0,0.6,0C649,339.9,648.8,339.9,648.7,339.6z"/>
<path class="st13" d="M650.6,339.6c0.2,0,0.4,0,0.6,0C651,339.9,650.8,339.9,650.6,339.6z"/>
<path class="st13" d="M652.6,339.6c0.2,0,0.4,0,0.6,0C653,339.9,652.8,339.9,652.6,339.6z"/>
<path class="st13" d="M654.6,339.6c0.2,0,0.4,0,0.6,0C655,339.9,654.8,339.9,654.6,339.6z"/>
<path class="st13" d="M656.6,339.6c0.2,0,0.4,0,0.6,0C657,339.9,656.8,339.9,656.6,339.6z"/>
<path class="st13" d="M658.6,339.6c0.2,0,0.4,0,0.6,0C659,339.9,658.8,339.9,658.6,339.6z"/>
<path class="st13" d="M660.6,339.6c0.2,0,0.4,0,0.6,0C661,339.9,660.8,339.9,660.6,339.6z"/>
<path class="st13" d="M662.6,339.6c0.2,0,0.4,0,0.6,0C662.9,339.9,662.7,339.9,662.6,339.6z"/>
<path class="st13" d="M664.5,339.6c0.2,0,0.4,0,0.6,0C664.9,339.9,664.7,339.9,664.5,339.6z"/>
<path class="st13" d="M666.5,339.6c0.2,0,0.4,0,0.6,0C666.9,339.9,666.7,339.9,666.5,339.6z"/>
<path class="st13" d="M668.5,339.6c0.2,0,0.4,0,0.6,0C668.9,339.9,668.7,339.9,668.5,339.6z"/>
<path class="st13" d="M670.5,339.6c0.2,0,0.4,0,0.6,0C670.9,339.9,670.7,339.9,670.5,339.6z"/>
<path class="st13" d="M672.5,339.6c0.2,0,0.4,0,0.6,0C672.9,339.9,672.7,339.9,672.5,339.6z"/>
<path class="st13" d="M674.5,339.6c0.2,0,0.4,0,0.6,0C674.9,339.9,674.7,339.9,674.5,339.6z"/>
<path class="st13" d="M676.5,339.6c0.2,0,0.4,0,0.6,0C676.8,339.9,676.7,339.9,676.5,339.6z"/>
<path class="st13" d="M678.4,339.6c0.2,0,0.4,0,0.6,0C678.8,339.9,678.6,339.9,678.4,339.6z"/>
<path class="st13" d="M680.4,339.6c0.2,0,0.4,0,0.6,0C680.8,339.9,680.6,339.9,680.4,339.6z"/>
<path class="st13" d="M682.4,339.6c0.2,0,0.4,0,0.6,0C682.8,339.9,682.6,339.9,682.4,339.6z"/>
<path class="st13" d="M684.4,339.6c0.2,0,0.4,0,0.6,0C684.8,339.9,684.6,339.9,684.4,339.6z"/>
<path class="st13" d="M686.4,339.6c0.2,0,0.4,0,0.6,0C686.8,339.9,686.6,339.9,686.4,339.6z"/>
<path class="st13" d="M688.4,339.6c0.2,0,0.4,0,0.6,0C688.8,339.9,688.6,339.9,688.4,339.6z"/>
<path class="st13" d="M690.4,339.6c0.2,0,0.4,0,0.6,0C690.8,339.9,690.6,339.9,690.4,339.6z"/>
<path class="st13" d="M692.3,339.6c0.2,0,0.4,0,0.6,0C692.7,339.9,692.5,339.9,692.3,339.6z"/>
<path class="st13" d="M694.3,339.6c0.2,0,0.4,0,0.6,0C694.7,339.9,694.5,339.9,694.3,339.6z"/>
<path class="st13" d="M696.3,339.6c0.2,0,0.4,0,0.6,0C696.7,339.9,696.5,339.9,696.3,339.6z"/>
<path class="st13" d="M698.3,339.6c0.2,0,0.4,0,0.6,0C698.7,339.9,698.5,339.9,698.3,339.6z"/>
<path class="st13" d="M700.3,339.6c0.2,0,0.4,0,0.6,0C700.7,339.9,700.5,339.9,700.3,339.6z"/>
<path class="st13" d="M702.3,339.6c0.2,0,0.4,0,0.6,0C702.7,339.9,702.5,339.9,702.3,339.6z"/>
<path class="st13" d="M704.3,339.6c0.2,0,0.4,0,0.6,0C704.7,339.9,704.5,339.9,704.3,339.6z"/>
<path class="st13" d="M706.3,339.6c0.2,0,0.4,0,0.6,0C706.6,339.8,706.4,339.8,706.3,339.6z"/>
<path class="st13" d="M465.9,339.6c0.2,0,0.4,0,0.6,0C466.3,339.9,466.1,339.9,465.9,339.6z"/>
<path class="st4" d="M649.8,380.5C649.8,380.5,649.8,380.4,649.8,380.5c-0.1,0-0.2,0-0.3,0C649.6,380.1,649.7,380.4,649.8,380.5z"/>
<path class="st13" d="M463.9,339.6c0.2,0,0.4,0,0.6,0C464.3,339.9,464.1,339.9,463.9,339.6z"/>
<path class="st4" d="M776.9,380.5C776.9,380.5,776.9,380.4,776.9,380.5c-0.1,0-0.2,0-0.3,0C776.7,380.1,776.8,380.4,776.9,380.5z"/>
<path class="st13" d="M462,339.6c0.2,0,0.4,0,0.6,0C462.4,339.9,462.2,339.9,462,339.6z"/>
<path class="st13" d="M460,339.6c0.2,0,0.4,0,0.6,0C460.4,339.9,460.2,339.9,460,339.6z"/>
<path class="st13" d="M458,339.6c0.2,0,0.4,0,0.6,0C458.4,339.9,458.2,339.9,458,339.6z"/>
<path class="st13" d="M456,339.6c0.2,0,0.4,0,0.6,0C456.4,339.9,456.2,339.9,456,339.6z"/>
<path class="st13" d="M454,339.6c0.2,0,0.4,0,0.6,0C454.4,339.9,454.2,339.9,454,339.6z"/>
<path class="st13" d="M452,339.6c0.2,0,0.4,0,0.6,0C452.4,339.9,452.2,339.9,452,339.6z"/>
<path class="st4" d="M776.9,442.7l0.1,0.1l-0.1,0.1c-0.1,0-0.3,0.1-0.3,0.1C776.4,442.7,776.6,442.7,776.9,442.7z"/>
<path class="st13" d="M450,339.6c0.2,0,0.4,0,0.6,0C450.4,339.9,450.2,339.9,450,339.6z"/>
<path class="st3" d="M1316.6,468.9c0-0.2,0-0.4,0-0.6C1316.8,468.5,1316.9,468.7,1316.6,468.9z"/>
<path class="st13" d="M448.1,339.6c0.2,0,0.4,0,0.6,0C448.4,339.9,448.3,339.9,448.1,339.6z"/>
<path class="st13" d="M446.1,339.6c0.2,0,0.4,0,0.6,0C446.5,339.9,446.3,339.9,446.1,339.6z"/>
<path class="st13" d="M444.1,339.6c0.2,0,0.4,0,0.6,0C444.5,339.9,444.3,339.9,444.1,339.6z"/>
<path class="st13" d="M442.1,339.6c0.2,0,0.4,0,0.6,0C442.5,339.9,442.3,339.9,442.1,339.6z"/>
<path class="st13" d="M440.1,339.6c0.2,0,0.4,0,0.6,0C440.5,339.9,440.3,339.9,440.1,339.6z"/>
<path class="st4" d="M777.3,514.6c-0.1,0.2-0.3,0.3-0.4,0.5C776.8,514.6,776.9,514.5,777.3,514.6z"/>
<path class="st13" d="M438.1,339.6c0.2,0,0.4,0,0.6,0C438.5,339.9,438.3,339.9,438.1,339.6z"/>
<path class="st13" d="M436.1,339.6c0.2,0,0.4,0,0.6,0C436.5,339.9,436.3,339.9,436.1,339.6z"/>
<path class="st13" d="M434.2,339.6c0.2,0,0.4,0,0.6,0C434.5,339.9,434.4,339.9,434.2,339.6z"/>
<path class="st4" d="M776.8,575c0.1,0.1,0.1,0.3,0,0.4c-0.1-0.1-0.3-0.2-0.4-0.3C776.6,575.1,776.7,575.1,776.8,575z"/>
<path class="st13" d="M432.2,339.6c0.2,0,0.4,0,0.6,0C432.6,339.9,432.4,339.9,432.2,339.6z"/>
<path class="st13" d="M430.2,339.6c0.2,0,0.4,0,0.6,0C430.6,339.9,430.4,339.9,430.2,339.6z"/>
<path class="st13" d="M428.2,339.6c0.2,0,0.4,0,0.6,0C428.6,339.9,428.4,339.9,428.2,339.6z"/>
<path class="st13" d="M426.2,339.6c0.2,0,0.4,0,0.6,0C426.6,339.9,426.4,339.9,426.2,339.6z"/>
<path class="st4" d="M1001.7,658.8c-0.1-0.1-0.1-0.3,0-0.4c0.1,0,0.3,0.1,0.4,0.1C1002,658.6,1001.8,658.7,1001.7,658.8z"/>
<path class="st13" d="M424.2,339.6c0.2,0,0.4,0,0.6,0C424.6,339.9,424.4,339.9,424.2,339.6z"/>
<path class="st13" d="M422.2,339.6c0.2,0,0.4,0,0.6,0C422.6,339.9,422.4,339.9,422.2,339.6z"/>
<path class="st13" d="M420.3,339.6c0.2,0,0.4,0,0.6,0C420.6,339.9,420.4,339.9,420.3,339.6z"/>
<path class="st13" d="M418.3,339.6c0.2,0,0.4,0,0.6,0C418.7,339.9,418.5,339.9,418.3,339.6z"/>
<path class="st13" d="M416.3,339.6c0.2,0,0.4,0,0.6,0C416.7,339.9,416.5,339.9,416.3,339.6z"/>
<path class="st13" d="M414.3,339.6c0.2,0,0.4,0,0.6,0C414.7,339.9,414.5,339.9,414.3,339.6z"/>
<path class="st13" d="M412.3,339.6c0.2,0,0.4,0,0.6,0C412.7,339.9,412.5,339.9,412.3,339.6z"/>
<path class="st4" d="M777.2,717.7C777.2,717.7,777.1,717.7,777.2,717.7c0.3,0.4-0.1,0.4-0.3,0.5C777,718,777.1,717.9,777.2,717.7z"
	/>
<path class="st13" d="M410.3,339.6c0.2,0,0.4,0,0.6,0C410.7,339.9,410.5,339.9,410.3,339.6z"/>
<path class="st13" d="M408.3,339.6c0.2,0,0.4,0,0.6,0C408.7,339.9,408.5,339.9,408.3,339.6z"/>
<path class="st13" d="M406.4,339.6c0.2,0,0.4,0,0.6,0C406.7,339.9,406.5,339.9,406.4,339.6z"/>
<path class="st13" d="M398.4,339.7c0.2,0,0.4,0,0.6,0C398.8,340,398.6,340,398.4,339.7z"/>
<path class="st13" d="M396.4,339.7c0.2,0,0.4,0,0.6,0C396.8,339.9,396.6,340,396.4,339.7z"/>
<path class="st13" d="M634.7,339.6c0.2,0,0.4,0,0.6,0C635.1,339.9,634.9,339.9,634.7,339.6z"/>
<g>
	<path class="st14" d="M1833.8,730c-190.8,0-345.4-154.6-345.4-345.3c0-190.8,154.6-345.4,345.4-345.4
		c190.7,0,345.3,154.6,345.3,345.3C2179,575.4,2024.4,730,1833.8,730"/>
	<path class="st15" d="M1833.8,734.5c-192.8,0-349.8-156.8-349.8-349.8S1641,35,1833.8,35s349.8,157,349.8,349.8
		S2026.5,734.5,1833.8,734.5 M1833.8,43.8c-188,0-340.9,152.9-340.9,340.9c0,187.9,152.9,340.8,340.9,340.8
		c187.9,0,340.8-152.9,340.8-340.8C2174.5,196.7,2021.6,43.8,1833.8,43.8"/>
	<path class="st16" d="M1833.6,608.7c-123.5,0-224.1-100.6-224.1-224.1s100.4-224.1,224.1-224.1c123.5,0,224.1,100.6,224.1,224.1
		C2057.7,508.3,1957.3,608.7,1833.6,608.7"/>
	<path class="st15" d="M1833.6,165c121.2,0,219.6,98.5,219.6,219.6s-98.5,219.6-219.6,219.6S1614,505.8,1614,384.6
		S1712.6,165,1833.6,165 M1833.6,156.2c-126.2,0-228.5,102.3-228.5,228.5s102.3,228.6,228.6,228.6c126.2,0,228.6-102.3,228.6-228.6
		C2062.2,258.4,1959.9,156.2,1833.6,156.2"/>
	<polygon class="st15" points="1634.3,553.3 1641.9,562 1627,591.5 1655.5,575.7 1662,581.6 1649.5,611.4 1676.6,593.6 
		1685.9,600.2 1642.6,625.9 1635.5,620.1 1647.5,590.8 1619.8,605.9 1613.3,599.5 	"/>
	<polygon class="st15" points="1695,605.9 1703.8,611.2 1679.9,651.3 1671,645.9 	"/>
	<polygon class="st15" points="1716.4,618.1 1726.4,622.9 1730.8,645.7 1748.3,631.5 1758.6,635 1742.7,678.7 1733.2,675.6 
		1743.5,647.1 1724.1,660.6 1723.9,660.6 1719.2,637.5 1707.3,665.2 1698,661.1 	"/>
	<path class="st15" d="M1772.2,638.7c8.3,1.8,15.4,3.1,20,3.9c5.3,0.7,9.2,2.8,11.5,5.9c1.8,2.4,2.5,5.2,2.1,8.4v0.1
		c-0.7,5.2-3.8,8.3-7.6,9.1c5,2.8,8,6.4,7,12.6v0.1c-1.3,8.4-8.7,11.8-19.2,10.2c-7.4-1.3-15-2.8-22.9-4.6L1772.2,638.7z
		 M1787.4,679.9c4.5,0.7,7.4-0.6,8-3.9v-0.1c0.4-3.1-1.8-5.3-6.7-6.2c-3.8-0.6-8.4-1.4-11.9-2.2c-0.3,1.5-1.7,8.8-2,9.9
		C1777.7,678.3,1781.6,679,1787.4,679.9 M1787.4,661.1c4.3,0.7,7.6-0.4,8-3.8v-0.1c0.4-3.1-1.4-5-5.9-5.9c-4.5-0.8-8-1.5-9.4-1.8
		c-0.3,1.3-1.7,8.7-2,9.7C1781,659.9,1783.1,660.2,1787.4,661.1"/>
	<path class="st15" d="M1821.7,645.7l10.2,0.1c0,0-0.6,35.8-0.6,37.4c5.6,0,15.4-0.3,22.8-0.8c0.1,2.9,0.6,9.2,0.6,9.2
		c-11.1,0.8-23.9,1-33.9,0.7L1821.7,645.7z"/>
	<path class="st15" d="M1862.7,644.4c11.1-1.4,21.3-3.1,33.3-5.9c0,0,1.7,7.6,2,9c-5.2,1.3-16.9,3.8-23.6,4.6l1.4,9.4
		c6.6-1,13.9-2.4,21.4-4.2l2,9c-5.9,1.5-14.8,3.1-21.8,4.2l1.4,9.7c8.7-1.4,16.5-2.9,25.7-5.2l2,9c-12,2.9-23.8,4.8-36.4,6.6
		L1862.7,644.4z"/>
	<path class="st15" d="M1910.4,634.6l16.5-5.9c13.7-5.3,26.7,0.4,31.5,12.7v0.1c4.8,12.3-1,25.5-14.7,30.8
		c-7.7,3.1-12.7,4.6-17.8,6.2L1910.4,634.6z M1940.5,663.6c7.4-3.1,11.1-10.4,8.1-18v-0.1c-2.9-7.7-10.4-11.1-18.2-8
		c0,0-4.6,1.8-6.9,2.5c0.6,1.5,9.5,26.6,9.5,26.6S1936.9,665.1,1940.5,663.6"/>
	<path class="st15" d="M1968.5,636.4L1968.5,636.4c-7.3-11.2-4.3-26,7.7-33.9s26.6-4.5,33.9,6.7v0.1c7.3,11.1,4.3,25.9-7.7,33.7
		C1990.2,651,1975.6,647.6,1968.5,636.4 M2001.1,615.3L2001.1,615.3c-4.5-6.9-13-9.2-19.9-4.8c-7,4.5-8.3,13-3.9,19.9l0.1,0.1
		c4.3,6.7,12.9,9.1,19.9,4.6C2004.1,630.7,2005.4,622.2,2001.1,615.3"/>
	<polygon class="st15" points="2003.7,583 2010.7,576.7 2046.3,581.7 2025.4,562 2032.1,554.4 2066,586.5 2060.2,593.1 
		2022.9,588.4 2043.3,610 2035.9,616.7 	"/>
	<path class="st15" d="M1538,345.4c-0.7,3.9-1.3,8.8-1.5,13.9l-9.4-1c1.1-13,2.9-26.3,5.6-38.6l9.4,1.7c-0.8,4.3-2.2,10.8-2.5,13.9
		c1.7,0.3,36.8,5.3,36.8,5.3l-1.5,10.2C1574.8,350.8,1541.1,345.9,1538,345.4"/>
	<path class="st15" d="M1560.1,243.5c4.2-8,12.2-21.4,18.3-31.1l7.8,4.8c-4.9,7.3-9.9,15.5-13.3,21.8l8.3,4.6
		c3.1-5.5,7-11.9,11.5-19l7.8,4.8c-3.9,6.2-8.4,13-11.3,18.9l8.5,4.8c2.5-4.8,8.8-15,13-21.3l7.8,4.6c-5.5,7.8-13.3,21-17.8,29.8
		L1560.1,243.5z"/>
	<path class="st15" d="M1618.6,197.8L1618.6,197.8c-9.5-9.4-10.2-24.2-0.1-34.4c6.2-6.3,12-8,18-8l0.7,9.9
		c-4.9,0.3-8.8,1.4-12.2,4.8c-5.6,5.6-4.9,14.3,0.8,19.9l0.1,0.1c5.7,5.6,14.3,6.4,19.9,0.7c3.8-3.8,4.5-7.6,4.8-12.6h9.2
		c0.3,7-1.3,13-7.6,19.4C1642.8,207.5,1628.1,207.2,1618.6,197.8"/>
	<path class="st15" d="M1715,100.8l8.8-3.5l36.7,36.7l-10.5,3.4l-7.8-8.1L1724,137v10.8l-9.7,4.6L1715,100.8z M1735.3,122.2
		l-11.5-11.8l-0.1,16.4L1735.3,122.2z"/>
	<polygon class="st15" points="1760.9,85.6 1771.8,83.1 1788.3,100.6 1798.6,78.8 1809.7,77.9 1815.6,124.1 1805.4,125 1801.6,94.7 
		1790.9,116.8 1790.7,116.8 1773.9,99.4 1779.7,129 1769.8,131.4 	"/>
	<path class="st15" d="M1830.4,77l10.1,0.1l9.4,0.3c12,0.6,17.5,7.8,17.1,16.9v0.1c-0.4,10.8-9.1,15.7-19.6,15.4l-7.7-0.3l-0.4,14
		H1829L1830.4,77z M1848.2,100.8c5.2,0.1,8.3-2.7,8.4-6.6V94c0.1-4.6-2.7-7.4-7.8-7.7l-8.1-0.1l-0.6,14.4L1848.2,100.8z"/>
	<path class="st15" d="M2117.9,266.4l3.6,9.4l3.2,8.8c4.1,11.3-0.7,19.2-9.2,22.2h-0.1c-10.2,3.6-17.9-2.7-21.7-12.3l-2.7-7.1
		l-13.2,4.9l-3.9-9.5L2117.9,266.4z M2102.5,291.7c1.8,4.8,5.5,6.7,9.2,5.3h0.1c4.3-1.5,5.9-5.3,4.2-10.1l-2.9-7.7l-13.6,4.9
		L2102.5,291.7z"/>
	<polygon class="st15" points="1885,81.2 1895,83.1 1886.5,128.9 1876.4,127.1 	"/>
	<path class="st15" d="M1904.7,108L1904.7,108c4.5-12.6,17.9-19.3,31.5-14.5s19.7,18.3,15.2,30.9v0.1c-4.5,12.5-17.9,19.2-31.5,14.4
		C1906.4,134,1900.2,120.5,1904.7,108 M1941.2,121L1941.2,121c2.7-7.7-0.6-15.9-8.4-18.7c-7.8-2.8-15.4,1.5-18,9v0.1
		c-2.7,7.6,0.7,15.8,8.4,18.6C1931,132.8,1938.5,128.5,1941.2,121"/>
	<polygon class="st15" points="1975.3,111.4 1983.6,115.9 1987.8,152 2003.3,127.9 2011.7,133.6 1986.4,172.7 1979.1,167.8 
		1975.7,131 1960.9,156.6 1952.1,151.7 	"/>
	<path class="st15" d="M2001.8,176.2l9.4-1.5c1,5.3,2.8,9.9,6.9,13.4c3.2,2.8,6.2,3.1,8,1l0.1-0.1c1.7-2,1.4-4.1-3.2-10.6
		c-5.6-8-8.4-13.9-2.4-21v-0.1c5.6-6.4,14.4-6.3,21.5,0c5.2,4.5,8.1,9.8,9.2,15.8l-9.1,2.4c-1.3-4.9-3.2-8.8-6.2-11.3
		c-2.9-2.5-5.7-2.5-7.1-0.8l-0.1,0.1c-2,2.4-1.1,4.3,3.6,11.2c5.6,8.1,7.4,14.1,2.1,20.3l-0.1,0.1c-6,7-14.8,6.3-22.4-0.3
		C2006.5,190.1,2002.7,183.6,2001.8,176.2"/>
	<polygon class="st15" points="2069.5,186.8 2075.9,194.6 2061.4,206 2072.7,221.5 2087.8,210.9 2093.5,219.5 2055.2,246.1 
		2049.6,237.6 2065,226.8 2054,211.8 2039.1,223.2 2032.5,215.3 	"/>
	<polygon class="st15" points="1647.4,139.5 1655.7,133.5 1666.3,148.6 1683.1,137.4 1673.4,121.7 1682.4,116.6 1706.9,156.2 
		1697.9,161.3 1688.1,145.4 1671.6,156.3 1682.4,171.5 1674.3,177.7 	"/>
	<polygon class="st15" points="1537,302.3 1539.8,292.6 1557.4,298.2 1563.7,280.1 1546.5,273.5 1550.5,264 1594,280.5 1590,290 
		1572.6,283.5 1566.4,301.1 1584.3,306.8 1581.5,316.6 	"/>
	<polygon class="st15" points="2104.5,238.1 2109.2,247.2 2067.5,268.4 2062.9,259.3 	"/>
	<path class="st15" d="M2095.5,323.6l8,4.9c-2.8,4.6-4.3,9.4-3.6,14.7c0.6,4.2,2.7,6.4,5.3,6h0.1c2.5-0.4,3.6-2.1,4.5-10.2
		c1-9.7,2.7-16.1,11.9-17.3h0.1c8.4-1.3,15,4.8,16.4,14.1c1,6.7-0.3,12.7-3.4,18l-8.4-4.2c2.2-4.5,3.4-8.8,2.8-12.7
		s-2.7-5.7-4.9-5.3h-0.1c-3.1,0.4-3.8,2.5-4.6,10.9c-1.1,9.8-3.6,15.5-11.8,16.6h-0.1c-9.2,1.3-15.4-4.9-16.8-14.8
		C2089.9,337.3,2091.3,329.9,2095.5,323.6"/>
	<path class="st15" d="M1851.4,519.9c-4.5,4.6-10.6,7.4-17.5,7.4s-13-2.8-17.5-7.4c-2.5,3.5-4.1,7.8-4.1,12.5c0,4.6,1.5,9,4.1,12.5
		c4.5-4.6,10.6-7.4,17.5-7.4s13,2.8,17.5,7.4c2.5-3.5,4.1-7.8,4.1-12.5C1855.4,527.7,1853.8,523.4,1851.4,519.9"/>
	<path class="st15" d="M1833.8,521.3c5.3,0,9.9-2.2,13.3-5.7c-3.6-2.9-8.3-4.8-13.3-4.8s-9.7,1.8-13.4,4.8
		C1823.8,519.1,1828.6,521.3,1833.8,521.3"/>
	<path class="st15" d="M1833.8,543.3c-5.3,0-9.9,2.2-13.4,5.7c3.6,2.9,8.3,4.8,13.4,4.8c5,0,9.7-1.8,13.4-4.8
		C1843.8,545.5,1839.1,543.4,1833.8,543.3"/>
	<path class="st15" d="M1734.7,489.3h31.8c4.1-4.1,8.1-8.3,12.2-12.3h-32C1742.5,481.1,1738.6,485.2,1734.7,489.3"/>
	<path class="st15" d="M1753.2,470.5h31.8c4.1-4.2,8.1-8.4,11.8-12.3h-31.1C1761.4,462.3,1757.4,466.5,1753.2,470.5"/>
	<path class="st15" d="M1727.6,496.9c-3.2,3.5-5.2,6,2.1,13.2c7.1,7.3,9.7,5.3,13.2,2.1c1.3-1.1,2.5-2.4,3.8-3.5
		c4.3-4.1,9-8.5,13.6-13H1729C1728.3,496.1,1727.8,496.5,1727.6,496.9"/>
	<path class="st15" d="M1803.5,451.1l0.6-0.6l0,0c1.1-1.1,1.1-1.3,2.2-2.4c1.1-1.3,1.8-2,1.8-2.9l-13.4-13.4c-0.8,0-1.7,0.6-2.9,1.7
		c-1.1,1.1-1.4,1.3-2.7,2.4l-0.6,0.6c-4.9,4.6-10.5,9.9-16.2,15.5h30.5C1803,451.6,1803.3,451.3,1803.5,451.1"/>
	<path class="st15" d="M1916.9,505.1v-31.9c-4.1-4.1-8.3-8.1-12.3-12.2v32C1908.7,497.1,1912.8,501.1,1916.9,505.1"/>
	<path class="st15" d="M1898.2,486.6v-31.8c-4.2-4.1-8.4-8.1-12.3-11.8v31.1C1889.8,478.2,1894,482.4,1898.2,486.6"/>
	<path class="st15" d="M1799.1,366.3l0.1-14h7.7c0.4-1.1,0.7-2.4,1-3.5h-8.7V333h10.4c0-1.3-0.1-2.4-0.1-3.5h-10.2v-15.8h7.3
		c-0.4-1.1-0.7-2.4-1.1-3.5h-6.2v-11.3c-1.7-2.7-3.6-5.2-5.9-7.8L1780,291v-12.7c-1.1-1-2.4-1.8-3.5-2.8v15.4h-15.7v-15.7h15.2
		c-1.7-1.3-3.4-2.4-5-3.5h-10.2V266c-1.1-0.6-2.4-1-3.5-1.5v7.1h-15.7v-10.9c-1.1-0.1-2.4-0.1-3.5-0.3v11.2h-15.7v-8.8
		c-1.1,0.4-2.4,0.8-3.5,1.3v7.6h-12c-1.3,1.1-2.5,2.2-3.8,3.5c-1.1,1.1-2.2,2.4-3.2,3.6l-0.1,12.2h-7.8c-0.6,1.1-1,2.4-1.4,3.5h8.8
		v15.8h-11.2c0,1.1,0.1,2.4,0.1,3.5h11.1v15.8h-7.1c0.4,1.1,1,2.4,1.5,3.5h5.7v10.4c1.1,1.7,2.2,3.5,3.5,5.2V333h15.7v15.8h-15.5
		c0.8,1.1,1.8,2.2,2.7,3.4l12.9,0.1v13.3c2.7,2.2,5.3,4.2,8,6h11.3v5.6c1.1,0.4,2.4,1,3.5,1.4v-7h15.7v9.8c1.1,0.1,2.4,0.1,3.5,0.1
		v-9.9h15.7v8.4c1.3-0.3,2.4-0.7,3.5-1v-7.4h13.9c1-0.8,2-1.7,2.9-2.7C1797.5,368.1,1798.4,367.3,1799.1,366.3 M1718.6,329.5h-15.7
		v-15.8h15.7V329.5z M1718.6,310.2h-15.7v-15.8h15.7V310.2z M1718.6,290.9h-15.7v-15.8h15.7V290.9z M1737.9,368.1h-15.7v-15.8h15.7
		V368.1z M1737.9,348.8h-15.7V333h15.7V348.8z M1737.9,329.5h-15.7v-15.8h15.7V329.5z M1737.9,310.2h-15.7v-15.8h15.7V310.2z
		 M1737.9,290.9h-15.7v-15.8h15.7V290.9z M1757.1,368.1h-15.7v-15.8h15.7V368.1z M1741.4,348.8V333h15.7v15.8H1741.4z M1741.4,329.5
		v-15.8h15.7v15.8H1741.4z M1741.4,310.2v-15.8h15.7v15.8H1741.4z M1741.4,290.9v-15.8h15.7v15.8H1741.4z M1776.4,368.1h-15.7v-15.8
		h15.7V368.1z M1776.4,348.8h-15.7V333h15.7V348.8z M1776.4,329.5h-15.7v-15.8h15.7V329.5z M1776.4,310.2h-15.7v-15.8h15.7V310.2z
		 M1795.7,368.1H1780v-15.8h15.7V368.1z M1795.7,348.8H1780V333h15.7V348.8z M1795.7,329.5H1780v-15.8h15.7V329.5z M1795.7,310.2
		H1780v-15.8h15.7V310.2z"/>
	<path class="st15" d="M1968.1,329.5v-15.8h11.1c0.1-1.1,0.1-2.4,0.1-3.5H1968v-15.8h9c-0.4-1.1-1-2.4-1.4-3.5h-7.6v-12.2
		c-1.1-1.3-2.1-2.5-3.4-3.6c-1.3-1.3-2.5-2.4-3.8-3.4l-12.2-0.1v-7.4c-1.1-0.6-2.4-1-3.5-1.3v8.8h-15.7v-11.2
		c-1.1,0-2.4,0.1-3.5,0.3v10.9h-15.7v-7.1c-1.1,0.4-2.4,1-3.5,1.5v5.6h-10.2c-1.7,1.1-3.4,2.2-5.2,3.5h15.2V291H1891v-15.4
		c-1.1,0.8-2.2,1.7-3.4,2.7l-0.1,12.7h-13.3c-2.2,2.5-4.2,5.2-5.9,7.8v11.5h-6.2c-0.4,1.1-0.8,2.4-1.1,3.5h7.3v15.8h-10.2
		c-0.1,1.1-0.1,2.4-0.1,3.5h10.4v15.8h-8.7c0.3,1.3,0.7,2.4,1,3.5h7.7v13.9c0.8,1,1.7,2,2.5,2.8c1,0.8,1.8,1.8,2.8,2.5h13.9v7.3
		c1.1,0.4,2.4,0.7,3.5,1.1v-8.4h15.7v9.9c1.3,0,2.4-0.1,3.5-0.1v-9.8h15.7v7c1.1-0.4,2.4-1,3.5-1.4v-5.6h11.2c2.7-1.8,5.3-3.8,8-5.9
		l0.1-13.4h12.7c1-1.1,2-2.4,2.8-3.5h-15.5V333h15.7v15.5c1.3-1.7,2.4-3.4,3.5-5V333h5.7c0.6-1.1,1-2.4,1.5-3.5H1968.1z
		 M1887.5,368.1h-15.7v-15.8h15.7V368.1z M1887.5,348.8h-15.7V333h15.7V348.8z M1887.5,329.5h-15.7v-15.8h15.7V329.5z M1887.5,310.2
		h-15.7v-15.8h15.7V310.2z M1891,294.4h15.7v15.8H1891V294.4z M1906.6,368.1H1891v-15.8h15.7L1906.6,368.1L1906.6,368.1z
		 M1906.6,348.8H1891V333h15.7L1906.6,348.8L1906.6,348.8z M1906.6,329.5H1891v-15.8h15.7L1906.6,329.5L1906.6,329.5z M1925.9,368.1
		h-15.7v-15.8h15.7V368.1z M1925.9,348.8h-15.7V333h15.7V348.8z M1925.9,329.5h-15.7v-15.8h15.7V329.5z M1925.9,310.2h-15.7v-15.8
		h15.7V310.2z M1925.9,290.9h-15.7v-15.8h15.7V290.9z M1945.1,368.1h-15.7v-15.8h15.7V368.1z M1945.1,348.8h-15.7V333h15.7V348.8z
		 M1945.1,329.5h-15.7v-15.8h15.7V329.5z M1945.1,310.2h-15.7v-15.8h15.7V310.2z M1945.1,290.9h-15.7v-15.8h15.7V290.9z
		 M1964.4,329.5h-15.7v-15.8h15.7V329.5z M1964.4,310.2h-15.7v-15.8h15.7V310.2z M1964.4,290.9h-15.7v-15.8h15.7V290.9z"/>
	<path class="st15" d="M1830,386.6c-4.5-8-6.4-16.4-7.3-27.1c-0.1-4.2,0-8.8,0.4-13.9c2-24.8-3.2-48.4-31.2-73.7
		c-38.8-35-76.9-26.9-98.1-5.6c-21.3,21.3-29.4,59.3,5.6,98.1c25.2,28,48.8,33.2,73.7,31.2c5.2-0.4,9.7-0.6,13.9-0.4
		c11.5,0.8,20.1,2.9,28.5,8l3.1-3.1C1823.5,395.2,1827.2,390.9,1830,386.6 M1812.6,340.8c-0.7,8.3-3.4,20.4-13.6,30.6
		s-22.4,12.9-30.6,13.6c-22,2-40.7-4.3-58.6-23.1c-31.2-32.5-32.3-66.3-9.4-89.3c22.8-22.9,56.8-21.7,89.3,9.4
		C1808.3,300.1,1814.6,318.9,1812.6,340.8"/>
	<path class="st15" d="M1838.1,422.7l17.2,17.6l12.6-12.6l-16.8-16.5c-3.6,2.7-7.3,5.9-11.3,9.8L1838.1,422.7z"/>
	<path class="st15" d="M1924.5,512.2c3.5,3.2,6,5.2,13.2-2.1c7.3-7.3,5.3-9.7,2.1-13.2c-1.1-1.3-2.4-2.5-3.5-3.8
		c-4.1-4.3-8.5-9-13-13.6V511C1923.7,511.4,1924.1,511.8,1924.5,512.2"/>
	<path class="st15" d="M1878.7,436.2l-0.6-0.6c-1.1-1.1-1.3-1.1-2.4-2.2c-1.3-1.1-2.1-1.7-2.9-1.7l-13.4,13.4c0,0.8,0.6,1.7,1.7,2.9
		c1.1,1.1,1.3,1.4,2.4,2.7l0.6,0.6c4.8,4.9,9.9,10.5,15.5,16.2V437C1879.2,436.7,1878.9,436.5,1878.7,436.2"/>
	<path class="st15" d="M1835.1,416.5c15.2-15.2,26.4-20.1,45.2-21.5c4.2-0.1,8.8,0,13.9,0.4c24.9,2,48.4-3.2,73.7-31.2
		c35-38.8,26.9-76.9,5.6-98.1c-21.3-21.3-59.3-29.4-98.1,5.6c-28,25.2-33.2,48.8-31.2,73.7c0.4,5.2,0.6,9.7,0.4,13.9
		c-1.4,18.7-6.2,29.8-21.4,45.2l-23.6,23.1l12.6,12.6L1835.1,416.5z M1854.7,340.8c-2-22,4.3-40.7,23.1-58.8
		c32.5-31.1,66.3-32.2,89.3-9.4c22.9,22.8,21.7,56.8-9.4,89.3c-18,18.7-36.8,25-58.8,23.1c-8.3-0.7-20.4-3.4-30.6-13.6
		S1855.4,349.1,1854.7,340.8"/>
</g>
</svg>
