<?xml version="1.0" encoding="utf-8"?>
<!-- Generator: Adobe Illustrator 27.5.0, SVG Export Plug-In . SVG Version: 6.00 Build 0)  -->
<svg version="1.1" id="Layer_1" xmlns="http://www.w3.org/2000/svg" xmlns:xlink="http://www.w3.org/1999/xlink" x="0px" y="0px"
	 viewBox="0 0 320 320" style="enable-background:new 0 0 320 320;" xml:space="preserve">
<style type="text/css">
	.st0{fill:#005FCC;}
	.st1{fill:#D3D2D2;}
	.st2{fill:#4295EE;}
	.st3{fill:#545253;}
	.st4{fill:#FFFFFF;}
	.st5{fill:#008FFF;}
	.st6{fill:#65CC00;}
	.st7{fill:#00B7D4;}
	.st8{fill:#BB0099;}
	.st9{fill:#EE0101;}
	.st10{fill:#FE8500;}
	.st11{fill:#FECB00;}
	.st12{fill:#89898A;}
	.st13{fill:#E9A1DE;}
</style>
<path class="st0" d="M148.1,308.4c-2.8-0.2-5.6-0.3-8.3-0.7c-3-0.4-6.1-0.7-9.1-1.4c-1.4-0.3-2.7-0.6-4.1-1
	c-1.5-0.5-3.2-0.7-4.8-1.1c-4.1-1.2-8.2-2.3-12.2-3.8c-2.9-1.1-5.8-2.2-8.7-3.5c-2.4-1-4.6-2.1-6.9-3.3c-0.6-0.3-0.6-0.6-0.2-1.2
	c1.4-2.1,2.8-4.1,3.8-6.4c0.3-0.6,0.9-1,1.3-1.6c1.9-2.6,3.5-5.4,5.4-8c1.4-2,2.7-4,4.1-6.1c1.5-2.3,3-4.5,4.5-6.8c1.4-2,2.7-4,4-6
	c1-1.4,1.9-2.9,2.9-4.4c0.7-1.1,1.5-2.2,2.2-3.3c1-1.4,2-2.9,2.9-4.4c0.7-1.1,1.4-2.2,2.3-3.3c0.7-1,1.4-2.1,2.1-3.1
	c1.7-2.5,3.3-5,4.9-7.5c1.1-1.7,2.3-3.2,3.3-4.9c2.2-3.7,5.1-7,7.3-10.8c0.9-1.6,2.1-3.1,3.1-4.7c1-1.6,2.3-3,3.1-4.7
	c0.6-1.2,1.5-2.1,2.1-3.4c0.4-0.9,1.1-1.8,1.7-2.7c0.7-0.8,1.1-1.8,1.7-2.6c0.7-0.8,1.1-1.8,1.8-2.6c0.7-0.8,1.1-1.8,1.7-2.6
	c0.7-0.8,1.1-1.9,1.7-2.7c1.3-1.4,2.2-3.1,3.3-4.7c2.2-3.1,4.1-6.4,6.5-9.4c0.1-0.1,0.2-0.2,0.4-0.3c0.3,0.6,0.2,1.2,0.2,1.7
	c0,22.9,0,45.9,0,68.8c0,19.2,0,38.3,0,57.5c0,1.2,0,2.4,0,3.7c0,0.4,0,0.9-0.4,1.2c-0.7-0.3-1.6,0-2.3-0.7c-0.2,0.7-1,0.4-1.1,1.1
	c-5.2,0-10.4,0-15.6,0c-0.2-0.2-0.4-0.2-0.6-0.2C151,308,149.5,308.4,148.1,308.4z"/>
<path class="st1" d="M268.8,309c0-0.1,0-0.3,0-0.4c0.8,0,1.5-0.3,2.3-0.3c12.1,0.2,24.2-0.3,36.3,0.2c0,0.1,0,0.3,0,0.4
	c-0.5,0-1,0-1.5,0c0-0.1,0-0.2-0.2-0.1c0,0,0,0.1,0,0.1C293.4,309,281.1,309,268.8,309z"/>
<path class="st1" d="M218.2,308.3c0,0.2,0,0.4,0,0.7c-9.4,0-18.7,0-28,0c0-0.2,0-0.5,0-0.7c0.3,0,0.6,0.1,0.9,0.1
	c4.2,0,8.4,0,12.7,0C208.6,308.3,213.4,308.3,218.2,308.3z"/>
<path class="st2" d="M168.5,309c0.1-0.7,1-0.4,1.1-1.1c0.7,0.7,1.6,0.3,2.3,0.7c0,0.1,0,0.3,0,0.4C170.9,309,169.7,309,168.5,309z"
	/>
<path class="st3" d="M152.3,308.8c0.2,0,0.4,0,0.6,0.2c-1.4,0-2.8,0-4.1,0c-0.1-0.2,0-0.2,0.1-0.3
	C150.1,308.7,151.2,308.7,152.3,308.8z"/>
<path class="st3" d="M305.7,309c0,0,0-0.1,0-0.1c0.1,0,0.2,0,0.2,0.1C305.8,309,305.8,309,305.7,309z"/>
<path class="st4" d="M218.2,308.3c-4.8,0-9.6,0-14.4,0c-4.2,0-8.4,0-12.7,0c-0.3,0-0.6,0-0.9-0.1c0-0.3,0-0.7,0-1.1
	c0-48.5,0-97,0-145.5c0-0.3,0-0.5,0-0.7c0.2-0.3,0.5-0.2,0.7-0.2c12.3,0,24.6,0,36.9,0c1,0,1.4,0.6,1.7,1.4
	c2.6,5.6,5.2,11.3,7.8,16.9c5.4,11.7,10.8,23.3,16.3,35c8,17.3,16.1,34.7,24.2,52c0.7,1.4,1.3,2.9,2.1,4.2c0,0.2,0.1,0.4,0.4,0.3
	c0.1,0,0.1-0.2,0-0.3c0-1.8-0.1-3.6-0.1-5.4c0-34.7,0-69.3,0-104l0,0c0.4-0.3,0.8-0.1,1.3-0.1c8.3,0,16.7,0,25,0
	c1.6,0,1.6,0,1.6,1.6c0,45.9,0,91.8,0,137.7c0,2.4,0,4.9,0,7.3c0,0.6,0,1-0.6,1.2c-12.1-0.5-24.2,0-36.3-0.2c-0.8,0-1.5,0.3-2.3,0.3
	c-1.5-1.9-2.2-4.2-3.2-6.4c-2.5-5.3-4.9-10.6-7.3-16c-2.4-5.4-4.8-10.8-7.3-16.1c-2.3-4.8-4.5-9.6-6.7-14.5
	c-2.4-5.4-4.9-10.8-7.3-16.2c-5.5-12.1-11-24.1-16.5-36.2c-0.6-1.4-1.2-2.8-2.3-4.2c-0.3,1.6,0,2.9,0,4.3c0,16.2,0,32.3,0,48.5
	c0,17.4,0,34.7,0,52C218.1,305.4,218.2,306.9,218.2,308.3z"/>
<path class="st5" d="M31.4,233.5c43.6-18.1,87.2-35.9,130.9-54.2c-0.4,1.4-1.1,2.2-1.7,3.1c-6.6,9.9-13.2,19.8-19.8,29.6
	c-8,12.1-16.1,24.1-24.2,36.2c-4.1,6.1-8.1,12.3-12.3,18.4c-5.2,7.7-10.4,15.4-15.5,23.2c-0.3,0.6-0.7,0.6-1.2,0.3
	c-1.9-1-3.7-2.1-5.5-3.2c-2.7-1.7-5.4-3.4-8-5.2c-2.1-1.4-4.1-3.1-6.1-4.6c-2.7-2.1-5.3-4.2-7.7-6.6c-2.7-2.6-5.5-5.2-8-8
	c-1.5-1.7-3.2-3.3-4.7-5c-4.2-4.9-8-9.9-11.4-15.3c-1.5-2.4-2.9-5-4.5-7.5C31.6,234.3,31.5,234,31.4,233.5z"/>
<path class="st6" d="M144.1,169.4c-1.5,0.2-2.7-0.3-3.9-0.5c-8.6-1.7-17.1-3.4-25.7-5.2c-6.1-1.2-12.2-2.5-18.2-3.5
	c-1.9-0.3-3.9-0.7-5.8-1.1c-2.4-0.5-4.8-1-7.1-1.4c-2-0.4-3.9-0.8-5.9-1.1c-2.4-0.5-4.7-1-7-1.4c-6.1-1.3-12.2-2.4-18.4-3.6
	c-6.3-1.3-12.5-2.5-18.8-3.8c-4.7-0.9-9.4-1.8-14.1-2.8c-1.7-0.3-3.3-0.7-5-1.1c-1-0.2-0.9-0.8-0.9-1.5c0.6-5,1.5-9.9,2.6-14.9
	c1.3-5.6,2.8-11,4.8-16.4c2.5-7,5.5-13.9,9.1-20.5c2.6-4.6,5.2-9.1,8.3-13.4c1.7-2.4,3.5-4.7,5.2-7.1c0.6-0.8,0.9-0.7,1.5,0
	c5.4,5.5,10.8,10.9,16.3,16.4c3.3,3.3,6.7,6.6,10,9.9c3.4,3.4,6.6,6.7,10,10.1c3.5,3.5,7,6.9,10.5,10.4c5.5,5.5,10.9,11,16.4,16.5
	c3.8,3.8,7.7,7.6,11.6,11.5c4.2,4.2,8.3,8.3,12.4,12.5c3.6,3.5,7,7.2,10.7,10.6C143.1,168.3,143.6,168.8,144.1,169.4z"/>
<path class="st7" d="M12.5,149.5c46.4,9.2,92.6,18.4,139.1,27.7c-2.2,1.4-4.3,2.1-6.4,3c-12.8,5.3-25.5,10.6-38.3,15.9
	c-8.7,3.6-17.5,7.2-26.2,10.8c-15.7,6.5-31.5,13-47.2,19.5c-1.4,0.6-2.8,1-4.1,1.7c-0.7,0.3-1.1,0.2-1.4-0.5
	c-2.4-5.4-5.1-10.8-7-16.4c-2.6-7.5-4.6-15.3-6.2-23.1c-0.8-4.3-1.4-8.6-1.8-12.9c-0.8-6.8-0.7-13.6-0.6-20.5
	C12.3,153,12.5,151.3,12.5,149.5z"/>
<path class="st8" d="M168.5,143c-0.6,0-1.2-0.1-1.8-0.1c-0.1-0.6,0.3-0.7,0.6-0.9c10.1-6.8,20.2-13.5,30.4-20.3
	c6.9-4.6,13.7-9.2,20.6-13.8c10.3-6.9,20.5-13.7,30.8-20.5c2.8-1.8,5.6-3.7,8.3-5.5c1.7-1.2,3.5-2.4,5.3-3.5
	c1.3-0.7,2.5-1.5,3.6-2.4c1.8-1.2,3.6-2.5,5.4-3.8c1.4-1,2.9-2.1,4.4-3c0.8-0.5,1.4-0.3,1.7,0.3c1.6,2.7,3.8,5,5.5,7.6
	c2.7,4,5.2,8,7.5,12.2c2,3.7,3.9,7.5,5.6,11.3c0.6,1.3,1.2,2.7,1.7,4c1.2,3,2.4,5.9,3.3,9c0.6,2.1,1.2,4.2,1.9,6.3
	c0.7,2.1,1.4,4.3,1.7,6.5c0.5,2.5,1.3,5,1.6,7.5c0.3,2.6,0.8,5.2,1.2,7.8c0.1,0.8-0.2,1-0.9,1c-0.7,0-1.3,0-2,0c-0.1,0-0.2,0-0.3,0
	c-0.2,0-0.4,0-0.6,0c-0.1,0-0.2,0-0.3,0c-0.2,0-0.4,0-0.6,0c-0.1,0-0.2,0-0.3,0c-0.2,0-0.4,0-0.6,0c-0.1,0-0.2,0-0.3,0
	c-0.2,0-0.4,0-0.6,0c-0.1,0-0.2,0-0.3,0c-0.2,0-0.4,0-0.6,0c-0.1,0-0.2,0-0.3,0c-0.2,0-0.4,0-0.6,0c-0.1,0-0.2,0-0.3,0
	c-0.2,0-0.4,0-0.6,0c-0.1,0-0.2,0-0.3,0c-0.2,0-0.4,0-0.6,0c-0.1,0-0.2,0-0.3,0c-0.2,0-0.4,0-0.6,0c-0.1,0-0.2,0-0.3,0
	c-0.2,0-0.4,0-0.6,0c-0.1,0-0.2,0-0.3,0c-0.2,0-0.4,0-0.6,0c-0.1,0-0.2,0-0.3,0c-0.2,0-0.4,0-0.6,0c-0.1,0-0.2,0-0.3,0
	c-0.2,0-0.4,0-0.6,0c-0.1,0-0.2,0-0.3,0c-0.2,0-0.4,0-0.6,0c-0.1,0-0.2,0-0.3,0c-0.2,0-0.4,0-0.6,0c-0.1,0-0.2,0-0.3,0
	c-0.2,0-0.4,0-0.6,0c-0.1,0-0.2,0-0.3,0c-0.2,0-0.4,0-0.6,0c-0.1,0-0.2,0-0.3,0c-0.2,0-0.4,0-0.6,0c-0.1,0-0.2,0-0.3,0
	c-0.2,0-0.4,0-0.6,0c-0.1,0-0.2,0-0.3,0c-0.2,0-0.4,0-0.6,0c-0.1,0-0.2,0-0.3,0c-0.2,0-0.4,0-0.6,0c-0.1,0-0.2,0-0.3,0
	c-0.2,0-0.4,0-0.6,0c-0.1,0-0.2,0-0.3,0c-0.2,0-0.4,0-0.6,0c-0.1,0-0.2,0-0.3,0c-0.2,0-0.4,0-0.6,0c-0.1,0-0.2,0-0.3,0
	c-0.2,0-0.4,0-0.6,0c-0.1,0-0.2,0-0.3,0c-0.2,0-0.4,0-0.6,0c-0.1,0-0.2,0-0.3,0c-0.2,0-0.4,0-0.6,0c-0.1,0-0.2,0-0.3,0
	c-0.2,0-0.4,0-0.6,0c-0.1,0-0.2,0-0.3,0c-0.2,0-0.4,0-0.6,0c-0.1,0-0.2,0-0.3,0c-0.2,0-0.4,0-0.6,0c-0.1,0-0.2,0-0.3,0
	c-0.2,0-0.4,0-0.6,0c-0.1,0-0.2,0-0.3,0c-0.2,0-0.4,0-0.6,0c-0.1,0-0.2,0-0.3,0c-0.2,0-0.4,0-0.6,0c-0.1,0-0.2,0-0.3,0
	c-0.2,0-0.4,0-0.6,0c-0.1,0-0.2,0-0.3,0c-0.2,0-0.4,0-0.6,0c-0.1,0-0.2,0-0.3,0c-0.2,0-0.4,0-0.6,0c-0.1,0-0.2,0-0.3,0
	c-0.2,0-0.4,0-0.6,0c-0.1,0-0.2,0-0.3,0c-0.2,0-0.4,0-0.6,0c-0.1,0-0.2,0-0.3,0c-0.2,0-0.4,0-0.6,0c-0.1,0-0.2,0-0.3,0
	c-0.2,0-0.4,0-0.6,0c-0.1,0-0.2,0-0.3,0c-0.2,0-0.4,0-0.6,0c-0.1,0-0.2,0-0.3,0c-0.2,0-0.4,0-0.6,0c-0.1,0-0.2,0-0.3,0
	c-0.2,0-0.4,0-0.6,0c-0.1,0-0.2,0-0.3,0c-0.2,0-0.4,0-0.6,0c-0.1,0-0.2,0-0.3,0c-0.2,0-0.4,0-0.6,0c-0.1,0-0.2,0-0.3,0
	c-0.2,0-0.4,0-0.6,0c-0.1,0-0.2,0-0.3,0c-0.2,0-0.4,0-0.6,0c-0.1,0-0.2,0-0.3,0c-0.2,0-0.4,0-0.6,0c-0.1,0-0.2,0-0.3,0
	c-0.2,0-0.4,0-0.6,0c-0.1,0-0.2,0-0.3,0c-0.2,0-0.4,0-0.6,0c-0.1,0-0.2,0-0.3,0c-0.2,0-0.4,0-0.6,0c-0.1,0-0.2,0-0.3,0
	c-0.2,0-0.4,0-0.6,0c-0.1,0-0.2,0-0.3,0c-0.2,0-0.4,0-0.6,0c-0.1,0-0.2,0-0.3,0c-0.2,0-0.4,0-0.6,0c-0.1,0-0.2,0-0.3,0
	c-0.2,0-0.4,0-0.6,0c-0.1,0-0.2,0-0.3,0c-0.2,0-0.4,0-0.6,0c-0.1,0-0.2,0-0.3,0c-0.2,0-0.4,0-0.6,0c-0.1,0-0.2,0-0.3,0
	c-0.2,0-0.4,0-0.6,0c-0.1,0-0.2,0-0.3,0c-0.2,0-0.4,0-0.6,0c-0.1,0-0.2,0-0.3,0c-0.2,0-0.4,0-0.6,0c-0.1,0-0.2,0-0.3,0
	c-0.2,0-0.4,0-0.6,0c-0.1,0-0.2,0-0.3,0c-0.2,0-0.4,0-0.6,0c-0.1,0-0.2,0-0.3,0c-0.2,0-0.4,0-0.6,0c-0.1,0-0.2,0-0.3,0
	c-0.2,0-0.4,0-0.6,0c-0.1,0-0.2,0-0.3,0c-0.2,0-0.4,0-0.6,0c-0.1,0-0.2,0-0.3,0c-0.2,0-0.4,0-0.6,0c-0.1,0-0.2,0-0.3,0
	c-0.2,0-0.4,0-0.6,0c-0.1,0-0.2,0-0.3,0c-0.2,0-0.4,0-0.6,0c-0.1,0-0.2,0-0.3,0c-0.2,0-0.4,0-0.6,0c-0.1,0-0.2,0-0.3,0
	c-0.2,0-0.4,0-0.6,0c-0.1,0-0.2,0-0.3,0c-0.2,0-0.4,0-0.6,0c-0.1,0-0.2,0-0.3,0c-0.2,0-0.4,0-0.6,0c-0.1,0-0.2,0-0.3,0
	c-0.2,0-0.4,0-0.6,0c-0.1,0-0.2,0-0.3,0c-0.2,0-0.4,0-0.6,0c-0.1,0-0.2,0-0.3,0c-0.2,0-0.4,0-0.6,0c-0.1,0-0.2,0-0.3,0
	c-0.2,0-0.4,0-0.6,0c-0.1,0-0.2,0-0.3,0c-0.2,0-0.4,0-0.6,0c-0.1,0-0.2,0-0.3,0c-0.2,0-0.4,0-0.6,0c-0.1,0-0.2,0-0.3,0
	c-0.2,0-0.4,0-0.6,0c-0.1,0-0.2,0-0.3,0c-0.2,0-0.4,0-0.6,0c-0.1,0-0.2,0-0.3,0c-0.2,0-0.4,0-0.6,0c-0.1,0-0.2,0-0.3,0
	c-0.2,0-0.4,0-0.6,0c-0.1,0-0.2,0-0.3,0c-0.2,0-0.4,0-0.6,0c-0.1,0-0.2,0-0.3,0c-0.2,0-0.4,0-0.6,0c-0.1,0-0.2,0-0.3,0
	c-0.2,0-0.4,0-0.6,0c-0.1,0-0.2,0-0.3,0c-0.2,0-0.4,0-0.6,0c-0.1,0-0.2,0-0.3,0c-0.2,0-0.4,0-0.6,0c-0.1,0-0.2,0-0.3,0
	c-0.2,0-0.4,0-0.6,0c-0.1,0-0.2,0-0.3,0c-0.2,0-0.4,0-0.6,0c-0.1,0-0.2,0-0.3,0c-0.2,0-0.4,0-0.6,0c-0.1,0-0.2,0-0.3,0
	c-0.2,0-0.4,0-0.6,0c-0.1,0-0.2,0-0.3,0c-0.2,0-0.4,0-0.6,0c-0.1,0-0.2,0-0.3,0c-0.2,0-0.4,0-0.6,0c-0.1,0-0.2,0-0.3,0
	c-0.2,0-0.4,0-0.6,0c-0.1,0-0.2,0-0.3,0c-0.2,0-0.4,0-0.6,0c-0.1,0-0.2,0-0.3,0c-0.2,0-0.4,0-0.6,0c-0.1,0-0.2,0-0.3,0
	c-1.1,0-2.1,0-3.2,0c-0.1,0-0.2,0-0.3,0c-0.2,0-0.4,0-0.6,0c-0.1,0-0.2,0-0.3,0c-0.2,0-0.4,0-0.6,0c-0.1,0-0.2,0-0.3,0
	c-0.2,0-0.4,0-0.6,0c-0.1,0-0.2,0-0.3,0c-0.2,0-0.4,0-0.6,0c-0.1,0-0.2,0-0.3,0c-0.2,0-0.4,0-0.6,0c-0.1,0-0.2,0-0.3,0
	c-0.2,0-0.4,0-0.6,0c-0.1,0-0.2,0-0.3,0c-0.2,0-0.4,0-0.6,0c-0.1,0-0.2,0-0.3,0c-0.2,0-0.4,0-0.6,0c-0.1,0-0.2,0-0.3,0
	c-0.2,0-0.4,0-0.6,0c-0.1,0-0.2,0-0.3,0c-0.2,0-0.4,0-0.6,0c-0.1,0-0.2,0-0.3,0c-0.2,0-0.4,0-0.6,0c-0.1,0-0.2,0-0.3,0
	c-0.2,0-0.4,0-0.6,0c-0.1,0-0.2,0-0.3,0c-0.2,0-0.4,0-0.6,0c-0.1,0-0.2,0-0.3,0c-0.2,0-0.4,0-0.6,0c-0.1,0-0.2,0-0.3,0
	c-0.2,0-0.4,0-0.6,0c-0.1,0-0.2,0-0.3,0c-0.2,0-0.4,0-0.6,0c-0.1,0-0.2,0-0.3,0c-0.2,0-0.4,0-0.6,0c-0.1,0-0.2,0-0.3,0
	c-0.2,0-0.4,0-0.6,0c-0.1,0-0.2,0-0.3,0c-0.2,0-0.4,0-0.6,0c-0.1,0-0.2,0-0.3,0c-0.2,0-0.4,0-0.6,0c-0.1,0-0.2,0-0.3,0
	c-0.2,0-0.4,0-0.6,0c-0.1,0-0.2,0-0.3,0c-0.2,0-0.4,0-0.6,0c-0.1,0-0.2,0-0.3,0c-0.2,0-0.4,0-0.6,0c-0.1,0-0.2,0-0.3,0
	c-0.2,0-0.4,0-0.6,0c-0.1,0-0.2,0-0.3,0c-0.2,0-0.4,0-0.6,0c-0.1,0-0.2,0-0.3,0c-0.2,0-0.4,0-0.6,0c-0.1,0-0.2,0-0.3,0
	c-0.2,0-0.4,0-0.6,0c-0.1,0-0.2,0-0.3,0c-0.2,0-0.4,0-0.6,0c-0.1,0-0.2,0-0.3,0c-0.2,0-0.4,0-0.6,0c-0.1,0-0.2,0-0.3,0
	c-0.2,0-0.4,0-0.6,0c-0.1,0-0.2,0-0.3,0c-0.2,0-0.4,0-0.6,0c-0.1,0-0.2,0-0.3,0c-0.2,0-0.4,0-0.6,0c-0.1,0-0.2,0-0.3,0
	c-0.2,0-0.4,0-0.6,0c-0.1,0-0.2,0-0.3,0c-0.2,0-0.4,0-0.6,0c-0.1,0-0.2,0-0.3,0c-0.2,0-0.4,0-0.6,0c-0.1,0-0.2,0-0.3,0
	c-0.2,0-0.4,0-0.6,0c-0.1,0-0.2,0-0.3,0c-0.2,0-0.4,0-0.6,0c-0.1,0-0.2,0-0.3,0c-0.2,0-0.4,0-0.6,0c-0.1,0-0.2,0-0.3,0
	c-0.2,0-0.4,0-0.6,0c-0.1,0-0.2,0-0.3,0c-0.2,0-0.4,0-0.6,0c-0.1,0-0.2,0-0.3,0c-0.2,0-0.4,0-0.6,0c-0.1,0-0.2,0-0.3,0
	c-0.2,0-0.4,0-0.6,0c-0.1,0-0.2,0-0.3,0c-0.2,0-0.4,0-0.6,0c-0.1,0-0.2,0-0.3,0c-0.2,0-0.4,0-0.6,0c-0.1,0-0.2,0-0.3,0
	c-0.2,0-0.4,0-0.6,0c-0.1,0-0.2,0-0.3,0c-0.2,0-0.4,0-0.6,0c-0.1,0-0.2,0-0.3,0c-0.2,0-0.4,0-0.6,0c-0.1,0-0.2,0-0.3,0
	c-0.2,0-0.4,0-0.6,0c-0.1,0-0.2,0-0.3,0c-0.2,0-0.4,0-0.6,0c-0.1,0-0.2,0-0.3,0c-0.2,0-0.4,0-0.6,0c-0.1,0-0.2,0-0.3,0
	c-0.2,0-0.4,0-0.6,0c-0.1,0-0.2,0-0.3,0c-1.1,0-2.1,0-3.2,0c-0.1,0-0.2,0-0.3,0c-0.2,0-0.4,0-0.6,0C168.6,143,168.5,143,168.5,143
	c-0.2,0-0.3,0-0.5,0C168.8,143.1,168.7,143.1,168.5,143z"/>
<path class="st9" d="M273.3,64.2c-2.1,1.4-4.1,2.7-6.1,4c-3.5,2.3-7,4.6-10.4,7c-3.5,2.3-7,4.6-10.4,7c-4.5,3.1-9.1,5.9-13.6,9
	c-3.4,2.4-7,4.6-10.4,7c-3.5,2.3-6.9,4.6-10.3,6.9c-3.5,2.3-7,4.7-10.5,7c-4,2.7-8,5.3-12.1,8c-3.5,2.3-7,4.6-10.4,7
	c-3.9,2.6-7.9,5.3-11.8,7.9c-2.6,1.7-5.2,3.5-7.9,5.2c-1.1,0.7-2.5,1.4-3.4,2.6c-0.7-0.8-0.1-1.5,0.2-2.1c1-2.2,2-4.4,2.9-6.6
	c0.7-1.6,1.4-3.1,1.9-4.7c1.3-3.8,3.1-7.5,4.7-11.3c0.3-0.8,0.8-1.7,0.7-2.5c0-0.6,0.5-0.5,0.7-0.9c0.8-1.9,1.7-3.8,2.4-5.8
	c1-2.6,2.1-5,3-7.6c1-2.8,2.4-5.6,3.5-8.4c0.4-0.9,0.5-2.1,0.9-2.8c0.6-1,0.9-2,1.4-3c0.9-1.8,1.6-3.8,2.4-5.6
	c1.6-3.8,3.4-7.6,4.7-11.5c1.2-3.4,2.8-6.5,4.1-9.8c1.3-3.3,2.8-6.6,4.1-9.8c1.1-2.7,2.2-5.4,3.3-8.1c1.4-3.7,3.3-7.3,4.7-11.1
	c1.1-3.1,2.7-5.9,3.7-9c0.2-0.6,0.5-1,0.7-1.6c0.1-0.6,0.7-0.7,1.4-0.5c3.1,1.1,6.2,2.2,9.2,3.4c3.2,1.3,6.4,2.8,9.5,4.3
	c5.4,2.6,10.6,5.6,15.6,8.8c2.6,1.7,5.1,3.5,7.6,5.3c2.7,2,5.3,4.1,7.8,6.3c4.3,3.6,8.3,7.5,12.1,11.5
	C270.6,61.1,271.9,62.6,273.3,64.2z"/>
<path class="st10" d="M146.2,148.5c-0.3-1.9-0.7-3.7-1-5.5c-1.7-8.6-3.5-17.3-5.2-25.9c-2.2-11-4.4-22.1-6.6-33.1
	c-0.9-4.5-1.8-9-2.7-13.6c-1.9-9.4-3.8-18.8-5.7-28.3c-1.3-6.6-2.6-13.3-4-19.9c-0.2-1.2-0.4-2.4-0.7-3.5c-0.1-0.7,0.3-0.9,0.8-1
	c4.6-1.2,9.3-2.4,14-3.1c3.9-0.7,7.9-1.2,11.9-1.6c2.1-0.2,4.2-0.2,6.3-0.4c3.8-0.4,7.5-0.3,11.2-0.1c4.2,0.2,8.5,0.1,12.7,1
	c2.1,0.4,4.2,0.3,6.3,0.7c4.5,0.8,9.1,1.4,13.6,3c0.7,0.3,1.5,0.3,2.2,0.5c0.5,0.1,0.9,0.4,0.7,1.2c-0.9,2.5-1.9,5-3.1,7.4
	c-0.2,0.4-0.3,0.8-0.4,1.3c-1,3-2.3,5.9-3.5,8.8c-0.9,2.3-2,4.6-2.9,7c-0.8,2.1-1.8,4-2.6,6c-0.7,1.9-1.7,3.7-2.4,5.6
	c-0.8,2.1-1.6,4.2-2.4,6.2c-1,2.8-2.6,5.2-3.3,8.1c-0.2,0.8-0.7,1.7-1.3,2.5c-0.7,0.9-1.1,2-1.4,2.9c-0.6,2.3-1.8,4.2-2.5,6.4
	c-1,3.1-2.5,5.9-3.6,9c-1,2.9-2.2,5.8-3.7,8.5c-0.8,1.5-1.4,3.2-2,4.9c-1.1,3-2.3,6-3.8,8.9c-0.2,0.3-0.2,0.7-0.3,1.1
	c-1.4,3-2.2,6.3-3.8,9.1c-0.3,0.7-0.5,1.4-0.8,2.1c-0.9,2.4-1.7,4.8-2.8,7.1c-1.4,3.1-2.6,6.3-4,9.5c-1,2.2-1.9,4.4-2.7,6.6
	C146.7,148.2,146.6,148.4,146.2,148.5z"/>
<path class="st11" d="M141.9,158.4c-0.4,0-0.7-0.4-0.9-0.7c-23.7-23.7-47.4-47.4-71.1-71.1c-5.1-5.1-10.2-10.2-15.3-15.3
	c-2.1-2.1-4.1-4.1-6.2-6.1c-0.6-0.6-0.5-1,0-1.5c3.6-3.8,7-7.7,10.8-11.2c4.5-4,9-7.8,13.8-11.5c2.1-1.6,4.3-3.1,6.5-4.6
	c2.3-1.5,4.7-2.9,7.1-4.3c5.9-3.4,12.1-6.3,18.4-8.9c2.8-1.1,5.6-2.1,8.3-3.1c0.9-0.3,1.2,0,1.4,0.8c0.6,4.1,1.5,8,2.3,12
	c0.8,4.7,1.9,9.3,2.8,13.9c0.8,4.1,1.5,8.2,2.4,12.3c1,5,2.1,9.9,3.1,14.9c1.7,8.2,3.3,16.4,4.9,24.6c1.6,7.9,3.2,15.7,4.7,23.6
	c1.8,9.3,3.7,18.5,5.5,27.8c0.5,2.5,1,4.9,1.5,7.4C141.9,157.8,142.1,158.1,141.9,158.4z"/>
<path class="st2" d="M152.3,308.8c-1.1,0-2.2,0-3.4,0c-0.2-0.3-0.7,0-0.8-0.3C149.5,308.4,151,308,152.3,308.8z"/>
<path class="st12" d="M280.2,270.2c0.1,0.1,0.1,0.3,0,0.3c-0.3,0.1-0.3-0.1-0.4-0.3C280,270.2,280.1,270.2,280.2,270.2z"/>
<path class="st13" d="M168.5,143c0.2,0,0.3,0,0.5,0C168.8,143.2,168.7,143.2,168.5,143z"/>
<path class="st13" d="M256.2,143c0.1,0,0.2,0,0.3,0C256.4,143.1,256.3,143.1,256.2,143z"/>
<path class="st13" d="M202.4,143c0.1,0,0.2,0,0.3,0C202.6,143.1,202.5,143.1,202.4,143z"/>
<path class="st13" d="M203.3,143c0.1,0,0.2,0,0.3,0C203.4,143.1,203.3,143.1,203.3,143z"/>
<path class="st13" d="M204.1,143c0.1,0,0.2,0,0.3,0C204.3,143.1,204.2,143.1,204.1,143z"/>
<path class="st13" d="M205,143c0.1,0,0.2,0,0.3,0C205.1,143.1,205,143.1,205,143z"/>
<path class="st13" d="M205.8,143c0.1,0,0.2,0,0.3,0C206,143.1,205.9,143.1,205.8,143z"/>
<path class="st13" d="M206.7,143c0.1,0,0.2,0,0.3,0C206.9,143.1,206.8,143.1,206.7,143z"/>
<path class="st13" d="M207.6,143c0.1,0,0.2,0,0.3,0C207.8,143.1,207.7,143.1,207.6,143z"/>
<path class="st13" d="M208.5,143c0.1,0,0.2,0,0.3,0C208.6,143.1,208.5,143.1,208.5,143z"/>
<path class="st13" d="M209.3,143c0.1,0,0.2,0,0.3,0C209.5,143.1,209.4,143.1,209.3,143z"/>
<path class="st13" d="M210.2,143c0.1,0,0.2,0,0.3,0C210.4,143.1,210.3,143.1,210.2,143z"/>
<path class="st13" d="M211.1,143c0.1,0,0.2,0,0.3,0C211.2,143.1,211.1,143.1,211.1,143z"/>
<path class="st13" d="M211.9,143c0.1,0,0.2,0,0.3,0C212.1,143.1,212,143.1,211.9,143z"/>
<path class="st13" d="M212.8,143c0.1,0,0.2,0,0.3,0C213,143.1,212.9,143.1,212.8,143z"/>
<path class="st13" d="M213.7,143c0.1,0,0.2,0,0.3,0C213.8,143.1,213.7,143.1,213.7,143z"/>
<path class="st13" d="M214.5,143c0.1,0,0.2,0,0.3,0C214.7,143.1,214.6,143.1,214.5,143z"/>
<path class="st13" d="M215.4,143c0.1,0,0.2,0,0.3,0C215.6,143.1,215.5,143.1,215.4,143z"/>
<path class="st13" d="M216.3,143c0.1,0,0.2,0,0.3,0C216.5,143.1,216.4,143.1,216.3,143z"/>
<path class="st13" d="M217.2,143c0.1,0,0.2,0,0.3,0C217.3,143.1,217.2,143.1,217.2,143z"/>
<path class="st13" d="M218,143c0.1,0,0.2,0,0.3,0C218.2,143.1,218.1,143.1,218,143z"/>
<path class="st13" d="M221.5,143.1c0.1,0,0.2,0,0.3,0C221.7,143.1,221.6,143.1,221.5,143.1z"/>
<path class="st13" d="M222.4,143c0.1,0,0.2,0,0.3,0C222.5,143.1,222.4,143.1,222.4,143z"/>
<path class="st13" d="M223.2,143c0.1,0,0.2,0,0.3,0C223.4,143.1,223.3,143.1,223.2,143z"/>
<path class="st13" d="M224.1,143c0.1,0,0.2,0,0.3,0C224.2,143.1,224.1,143.1,224.1,143z"/>
<path class="st13" d="M224.9,143c0.1,0,0.2,0,0.3,0C225.1,143.1,225,143.1,224.9,143z"/>
<path class="st13" d="M225.8,143c0.1,0,0.2,0,0.3,0C226,143.1,225.9,143.1,225.8,143z"/>
<path class="st13" d="M226.7,143c0.1,0,0.2,0,0.3,0C226.9,143.1,226.8,143.1,226.7,143z"/>
<path class="st13" d="M227.6,143c0.1,0,0.2,0,0.3,0C227.7,143.1,227.6,143.1,227.6,143z"/>
<path class="st13" d="M228.4,143c0.1,0,0.2,0,0.3,0C228.6,143.1,228.5,143.1,228.4,143z"/>
<path class="st13" d="M229.3,143c0.1,0,0.2,0,0.3,0C229.5,143.1,229.4,143.1,229.3,143z"/>
<path class="st13" d="M230.1,143c0.1,0,0.2,0,0.3,0C230.3,143.1,230.2,143.1,230.1,143z"/>
<path class="st13" d="M231,143c0.1,0,0.2,0,0.3,0C231.2,143.1,231.1,143.1,231,143z"/>
<path class="st13" d="M231.9,143c0.1,0,0.2,0,0.3,0C232.1,143.1,232,143.1,231.9,143z"/>
<path class="st13" d="M232.8,143c0.1,0,0.2,0,0.3,0C232.9,143.1,232.8,143.1,232.8,143z"/>
<path class="st13" d="M233.6,143c0.1,0,0.2,0,0.3,0C233.8,143.1,233.7,143.1,233.6,143z"/>
<path class="st13" d="M234.5,143c0.1,0,0.2,0,0.3,0C234.7,143.1,234.6,143.1,234.5,143z"/>
<path class="st13" d="M235.4,143c0.1,0,0.2,0,0.3,0C235.6,143.1,235.5,143.1,235.4,143z"/>
<path class="st13" d="M236.2,143c0.1,0,0.2,0,0.3,0C236.4,143.1,236.3,143.1,236.2,143z"/>
<path class="st13" d="M237.1,143c0.1,0,0.2,0,0.3,0C237.3,143.1,237.2,143.1,237.1,143z"/>
<path class="st13" d="M238,143c0.1,0,0.2,0,0.3,0C238.1,143.1,238,143.1,238,143z"/>
<path class="st13" d="M238.8,143c0.1,0,0.2,0,0.3,0C239,143.1,238.9,143.1,238.8,143z"/>
<path class="st13" d="M239.7,143c0.1,0,0.2,0,0.3,0C239.9,143.1,239.8,143.1,239.7,143z"/>
<path class="st13" d="M240.6,143c0.1,0,0.2,0,0.3,0C240.8,143.1,240.7,143.1,240.6,143z"/>
<path class="st13" d="M241.5,143c0.1,0,0.2,0,0.3,0C241.6,143.1,241.5,143.1,241.5,143z"/>
<path class="st13" d="M242.3,143c0.1,0,0.2,0,0.3,0C242.5,143.1,242.4,143.1,242.3,143z"/>
<path class="st13" d="M243.2,143c0.1,0,0.2,0,0.3,0C243.3,143.1,243.2,143.1,243.2,143z"/>
<path class="st13" d="M244,143c0.1,0,0.2,0,0.3,0C244.2,143.1,244.1,143.1,244,143z"/>
<path class="st13" d="M244.9,143c0.1,0,0.2,0,0.3,0C245.1,143.1,245,143.1,244.9,143z"/>
<path class="st13" d="M245.8,143c0.1,0,0.2,0,0.3,0C246,143.1,245.9,143.1,245.8,143z"/>
<path class="st13" d="M246.7,143c0.1,0,0.2,0,0.3,0C246.8,143.1,246.7,143.1,246.7,143z"/>
<path class="st13" d="M247.5,143c0.1,0,0.2,0,0.3,0C247.7,143.1,247.6,143.1,247.5,143z"/>
<path class="st13" d="M248.4,143c0.1,0,0.2,0,0.3,0C248.5,143.1,248.5,143.1,248.4,143z"/>
<path class="st13" d="M249.2,143c0.1,0,0.2,0,0.3,0C249.4,143.1,249.3,143.1,249.2,143z"/>
<path class="st13" d="M250.1,143c0.1,0,0.2,0,0.3,0C250.3,143.1,250.2,143.1,250.1,143z"/>
<path class="st13" d="M251,143c0.1,0,0.2,0,0.3,0C251.2,143.1,251.1,143.1,251,143z"/>
<path class="st13" d="M251.9,143c0.1,0,0.2,0,0.3,0C252,143.1,251.9,143.1,251.9,143z"/>
<path class="st13" d="M252.7,143c0.1,0,0.2,0,0.3,0C252.9,143.1,252.8,143.1,252.7,143z"/>
<path class="st13" d="M253.6,143c0.1,0,0.2,0,0.3,0C253.8,143.1,253.7,143.1,253.6,143z"/>
<path class="st13" d="M254.5,143c0.1,0,0.2,0,0.3,0C254.6,143.1,254.6,143.1,254.5,143z"/>
<path class="st13" d="M255.3,143c0.1,0,0.2,0,0.3,0C255.5,143.1,255.4,143.1,255.3,143z"/>
<path class="st13" d="M200.6,143c0.1,0,0.2,0,0.3,0C200.8,143.1,200.7,143.1,200.6,143z"/>
<path class="st13" d="M257.1,143c0.1,0,0.2,0,0.3,0C257.2,143.1,257.1,143.1,257.1,143z"/>
<path class="st13" d="M257.9,143c0.1,0,0.2,0,0.3,0C258.1,143.1,258,143.1,257.9,143z"/>
<path class="st13" d="M258.8,143c0.1,0,0.2,0,0.3,0C259,143.1,258.9,143.1,258.8,143z"/>
<path class="st13" d="M259.7,143c0.1,0,0.2,0,0.3,0C259.9,143.1,259.8,143.1,259.7,143z"/>
<path class="st13" d="M260.6,143c0.1,0,0.2,0,0.3,0C260.7,143.1,260.6,143.1,260.6,143z"/>
<path class="st13" d="M261.4,143c0.1,0,0.2,0,0.3,0C261.6,143.1,261.5,143.1,261.4,143z"/>
<path class="st13" d="M262.3,143c0.1,0,0.2,0,0.3,0C262.4,143.1,262.4,143.1,262.3,143z"/>
<path class="st13" d="M263.1,143c0.1,0,0.2,0,0.3,0C263.3,143.1,263.2,143.1,263.1,143z"/>
<path class="st13" d="M264,143c0.1,0,0.2,0,0.3,0C264.2,143.1,264.1,143.1,264,143z"/>
<path class="st13" d="M264.9,143c0.1,0,0.2,0,0.3,0C265.1,143.1,265,143.1,264.9,143z"/>
<path class="st13" d="M265.8,143c0.1,0,0.2,0,0.3,0C265.9,143.1,265.8,143.1,265.8,143z"/>
<path class="st13" d="M266.6,143c0.1,0,0.2,0,0.3,0C266.8,143.1,266.7,143.1,266.6,143z"/>
<path class="st13" d="M267.5,143c0.1,0,0.2,0,0.3,0C267.6,143.1,267.6,143.1,267.5,143z"/>
<path class="st13" d="M268.3,143c0.1,0,0.2,0,0.3,0C268.5,143.1,268.4,143.1,268.3,143z"/>
<path class="st13" d="M269.2,143c0.1,0,0.2,0,0.3,0C269.4,143.1,269.3,143.1,269.2,143z"/>
<path class="st13" d="M270.1,143c0.1,0,0.2,0,0.3,0C270.3,143.1,270.2,143.1,270.1,143z"/>
<path class="st13" d="M271,143c0.1,0,0.2,0,0.3,0C271.1,143.1,271.1,143.1,271,143z"/>
<path class="st13" d="M271.8,143c0.1,0,0.2,0,0.3,0C272,143.1,271.9,143.1,271.8,143z"/>
<path class="st13" d="M272.7,143c0.1,0,0.2,0,0.3,0C272.9,143.1,272.8,143.1,272.7,143z"/>
<path class="st13" d="M201.5,143c0.1,0,0.2,0,0.3,0C201.7,143.1,201.6,143.1,201.5,143z"/>
<path class="st13" d="M274.4,143c0.1,0,0.2,0,0.3,0C274.6,143.1,274.5,143.1,274.4,143z"/>
<path class="st13" d="M275.3,143c0.1,0,0.2,0,0.3,0C275.5,143.1,275.4,143.1,275.3,143z"/>
<path class="st13" d="M276.2,143c0.1,0,0.2,0,0.3,0C276.3,143.1,276.3,143.1,276.2,143z"/>
<path class="st13" d="M277,143c0.1,0,0.2,0,0.3,0C277.2,143.1,277.1,143.1,277,143z"/>
<path class="st13" d="M277.9,143c0.1,0,0.2,0,0.3,0C278.1,143.1,278,143.1,277.9,143z"/>
<path class="st13" d="M278.8,143c0.1,0,0.2,0,0.3,0C279,143.1,278.9,143.1,278.8,143z"/>
<path class="st13" d="M279.7,143c0.1,0,0.2,0,0.3,0C279.8,143.1,279.7,143.1,279.7,143z"/>
<path class="st13" d="M280.5,143c0.1,0,0.2,0,0.3,0C280.7,143.1,280.6,143.1,280.5,143z"/>
<path class="st13" d="M281.4,143c0.1,0,0.2,0,0.3,0C281.5,143.1,281.5,143.1,281.4,143z"/>
<path class="st13" d="M282.2,143c0.1,0,0.2,0,0.3,0C282.4,143.1,282.3,143.1,282.2,143z"/>
<path class="st13" d="M283.1,143c0.1,0,0.2,0,0.3,0C283.3,143.1,283.2,143.1,283.1,143z"/>
<path class="st13" d="M284,143c0.1,0,0.2,0,0.3,0C284.2,143.1,284.1,143.1,284,143z"/>
<path class="st13" d="M284.9,143c0.1,0,0.2,0,0.3,0C285,143.1,285,143.1,284.9,143z"/>
<path class="st13" d="M285.7,143c0.1,0,0.2,0,0.3,0C285.9,143.1,285.8,143.1,285.7,143z"/>
<path class="st13" d="M286.6,143c0.1,0,0.2,0,0.3,0C286.7,143.1,286.7,143.1,286.6,143z"/>
<path class="st13" d="M287.4,143c0.1,0,0.2,0,0.3,0C287.6,143.1,287.5,143.1,287.4,143z"/>
<path class="st13" d="M288.3,143c0.1,0,0.2,0,0.3,0C288.5,143.1,288.4,143.1,288.3,143z"/>
<path class="st13" d="M289.2,143c0.1,0,0.2,0,0.3,0C289.4,143.1,289.3,143.1,289.2,143z"/>
<path class="st13" d="M290.1,143c0.1,0,0.2,0,0.3,0C290.2,143.1,290.2,143.1,290.1,143z"/>
<path class="st13" d="M290.9,143c0.1,0,0.2,0,0.3,0C291.1,143.1,291,143.1,290.9,143z"/>
<path class="st13" d="M291.8,143c0.1,0,0.2,0,0.3,0C291.9,143.1,291.9,143.1,291.8,143z"/>
<path class="st13" d="M292.6,143c0.1,0,0.2,0,0.3,0C292.8,143.1,292.7,143.1,292.6,143z"/>
<path class="st13" d="M293.5,143c0.1,0,0.2,0,0.3,0C293.7,143.1,293.6,143.1,293.5,143z"/>
<path class="st13" d="M294.4,143c0.1,0,0.2,0,0.3,0C294.6,143.1,294.5,143.1,294.4,143z"/>
<path class="st13" d="M295.3,143c0.1,0,0.2,0,0.3,0C295.4,143.1,295.4,143.1,295.3,143z"/>
<path class="st13" d="M296.1,143c0.1,0,0.2,0,0.3,0C296.3,143.1,296.2,143.1,296.1,143z"/>
<path class="st13" d="M297,143c0.1,0,0.2,0,0.3,0C297.2,143.1,297.1,143.1,297,143z"/>
<path class="st13" d="M297.9,143c0.1,0,0.2,0,0.3,0C298.1,143.1,298,143.1,297.9,143z"/>
<path class="st13" d="M298.7,143c0.1,0,0.2,0,0.3,0C298.9,143.1,298.8,143.1,298.7,143z"/>
<path class="st13" d="M299.6,143c0.1,0,0.2,0,0.3,0C299.8,143.1,299.7,143.1,299.6,143z"/>
<path class="st13" d="M300.5,143c0.1,0,0.2,0,0.3,0C300.6,143.1,300.6,143.1,300.5,143z"/>
<path class="st13" d="M301.3,143c0.1,0,0.2,0,0.3,0C301.5,143.1,301.4,143.1,301.3,143z"/>
<path class="st13" d="M302.2,143c0.1,0,0.2,0,0.3,0C302.4,143.1,302.3,143.1,302.2,143z"/>
<path class="st13" d="M303.1,143c0.1,0,0.2,0,0.3,0C303.3,143.1,303.2,143.1,303.1,143z"/>
<path class="st13" d="M304,143c0.1,0,0.2,0,0.3,0C304.1,143.1,304.1,143.1,304,143z"/>
<path class="st13" d="M304.8,143c0.1,0,0.2,0,0.3,0C305,143.1,304.9,143.1,304.8,143z"/>
<path class="st13" d="M199.8,143c0.1,0,0.2,0,0.3,0C199.9,143.1,199.8,143.1,199.8,143z"/>
<path class="st3" d="M280.1,160.9C280.1,160.9,280.1,160.9,280.1,160.9c0,0-0.1,0-0.1,0C280.1,160.7,280.1,160.9,280.1,160.9z"/>
<path class="st13" d="M198.9,143c0.1,0,0.2,0,0.3,0C199.1,143.1,199,143.1,198.9,143z"/>
<path class="st13" d="M198,143c0.1,0,0.2,0,0.3,0C198.2,143.1,198.1,143.1,198,143z"/>
<path class="st13" d="M197.2,143c0.1,0,0.2,0,0.3,0C197.3,143.1,197.3,143.1,197.2,143z"/>
<path class="st13" d="M196.3,143c0.1,0,0.2,0,0.3,0C196.5,143.1,196.4,143.1,196.3,143z"/>
<path class="st13" d="M195.4,143c0.1,0,0.2,0,0.3,0C195.6,143.1,195.5,143.1,195.4,143z"/>
<path class="st13" d="M194.6,143c0.1,0,0.2,0,0.3,0C194.7,143.1,194.6,143.1,194.6,143z"/>
<path class="st13" d="M193.7,143c0.1,0,0.2,0,0.3,0C193.9,143.1,193.8,143.1,193.7,143z"/>
<path class="st13" d="M192.8,143c0.1,0,0.2,0,0.3,0C193,143.1,192.9,143.1,192.8,143z"/>
<path class="st13" d="M192,143c0.1,0,0.2,0,0.3,0C192.1,143.1,192.1,143.1,192,143z"/>
<path class="st13" d="M191.1,143c0.1,0,0.2,0,0.3,0C191.3,143.1,191.2,143.1,191.1,143z"/>
<path class="st13" d="M190.2,143c0.1,0,0.2,0,0.3,0C190.4,143.1,190.3,143.1,190.2,143z"/>
<path class="st13" d="M189.3,143c0.1,0,0.2,0,0.3,0C189.5,143.1,189.4,143.1,189.3,143z"/>
<path class="st13" d="M188.5,143c0.1,0,0.2,0,0.3,0C188.7,143.1,188.6,143.1,188.5,143z"/>
<path class="st13" d="M187.6,143c0.1,0,0.2,0,0.3,0C187.8,143.1,187.7,143.1,187.6,143z"/>
<path class="st13" d="M186.7,143c0.1,0,0.2,0,0.3,0C186.9,143.1,186.8,143.1,186.7,143z"/>
<path class="st13" d="M185.9,143c0.1,0,0.2,0,0.3,0C186,143.1,186,143.1,185.9,143z"/>
<path class="st13" d="M185,143c0.1,0,0.2,0,0.3,0C185.2,143.1,185.1,143.1,185,143z"/>
<path class="st13" d="M184.1,143c0.1,0,0.2,0,0.3,0C184.3,143.1,184.2,143.1,184.1,143z"/>
<path class="st13" d="M183.3,143c0.1,0,0.2,0,0.3,0C183.4,143.1,183.4,143.1,183.3,143z"/>
<path class="st13" d="M182.4,143c0.1,0,0.2,0,0.3,0C182.6,143.1,182.5,143.1,182.4,143z"/>
<path class="st13" d="M181.5,143c0.1,0,0.2,0,0.3,0C181.7,143.1,181.6,143.1,181.5,143z"/>
<path class="st13" d="M180.7,143c0.1,0,0.2,0,0.3,0C180.8,143.1,180.7,143.1,180.7,143z"/>
<path class="st13" d="M179.8,143c0.1,0,0.2,0,0.3,0C180,143.1,179.9,143.1,179.8,143z"/>
<path class="st13" d="M178.9,143c0.1,0,0.2,0,0.3,0C179.1,143.1,179,143.1,178.9,143z"/>
<path class="st13" d="M178.1,143c0.1,0,0.2,0,0.3,0C178.2,143.1,178.2,143.1,178.1,143z"/>
<path class="st13" d="M177.2,143c0.1,0,0.2,0,0.3,0C177.4,143.1,177.3,143.1,177.2,143z"/>
<path class="st13" d="M176.3,143c0.1,0,0.2,0,0.3,0C176.5,143.1,176.4,143.1,176.3,143z"/>
<path class="st13" d="M175.4,143c0.1,0,0.2,0,0.3,0C175.6,143.1,175.5,143.1,175.4,143z"/>
<path class="st13" d="M174.6,143c0.1,0,0.2,0,0.3,0C174.7,143.1,174.7,143.1,174.6,143z"/>
<path class="st13" d="M173.7,143c0.1,0,0.2,0,0.3,0C173.9,143.1,173.8,143.1,173.7,143z"/>
<path class="st13" d="M170.2,143.1c0.1,0,0.2,0,0.3,0C170.4,143.2,170.3,143.2,170.2,143.1z"/>
<path class="st13" d="M169.4,143.1c0.1,0,0.2,0,0.3,0C169.5,143.1,169.5,143.2,169.4,143.1z"/>
<path class="st13" d="M273.5,143c0.1,0,0.2,0,0.3,0C273.7,143.1,273.6,143.1,273.5,143z"/>
</svg>
