<?xml version="1.0" encoding="utf-8"?>
<!-- Generator: Adobe Illustrator 27.5.0, SVG Export Plug-In . SVG Version: 6.00 Build 0)  -->
<svg version="1.1"
	 id="svg7790" xmlns:sodipodi="http://sodipodi.sourceforge.net/DTD/sodipodi-0.dtd" xmlns:inkscape="http://www.inkscape.org/namespaces/inkscape" xmlns:svg="http://www.w3.org/2000/svg" sodipodi:docname="SFP-Icon.svg"
	 xmlns="http://www.w3.org/2000/svg" xmlns:xlink="http://www.w3.org/1999/xlink" x="0px" y="0px" viewBox="0 0 383.8 256"
	 style="enable-background:new 0 0 383.8 256;" xml:space="preserve">
<style type="text/css">
	.st0{fill:url(#path7769_00000024680527055526244510000008633132984844683425_);}
	.st1{fill:url(#SVGID_1_);}
	.st2{fill:url(#SVGID_00000171691859986398484110000017964488590882619036_);}
	.st3{fill:url(#SVGID_00000069368469965662796700000013574959023486483329_);}
	.st4{fill:#E3A600;}
	.st5{fill:url(#SVGID_00000155118591088475227180000008771107900850742406_);}
	.st6{fill:url(#SVGID_00000005984151333933815370000016311326460210009997_);}
	.st7{fill:url(#SVGID_00000085939748006450501080000007263503451270311096_);}
	.st8{fill:url(#SVGID_00000175289371094054975460000008527773668466723239_);}
	.st9{fill:url(#SVGID_00000125595413381657659970000015035249289626631597_);}
	.st10{fill:url(#SVGID_00000174563294516032878720000005567814648973910680_);}
	.st11{fill:url(#SVGID_00000062910114763934254880000013249253711455263922_);}
	.st12{fill:url(#SVGID_00000114775326983762497990000008527122165869356975_);}
	.st13{fill:url(#SVGID_00000023976904313395718850000008536581618939907519_);}
	.st14{fill:url(#SVGID_00000133510231312657151330000015737767662534721444_);}
	.st15{fill:url(#SVGID_00000040542118513752312930000007975325137053894303_);}
	.st16{fill:url(#SVGID_00000146473970227452697410000000513401746355748542_);}
</style>
<sodipodi:namedview  bordercolor="#000000" borderopacity="0.25" id="namedview7792" inkscape:current-layer="svg7790" inkscape:cx="70.25" inkscape:cy="118.75" inkscape:deskcolor="#d1d1d1" inkscape:pagecheckerboard="0" inkscape:pageopacity="0.0" inkscape:showpageshadow="2" inkscape:window-height="1001" inkscape:window-maximized="1" inkscape:window-width="1920" inkscape:window-x="-9" inkscape:window-y="1341" inkscape:zoom="2" pagecolor="#ffffff" showgrid="false" showguides="true">
	<sodipodi:guide  id="guide8028" inkscape:locked="false" orientation="1,0" position="11,27"></sodipodi:guide>
	<sodipodi:guide  id="guide8030" inkscape:locked="false" orientation="1,0" position="37,27"></sodipodi:guide>
	<sodipodi:guide  id="guide8032" inkscape:locked="false" orientation="0,-1" position="24.1875,34"></sodipodi:guide>
	<sodipodi:guide  id="guide8034" inkscape:locked="false" orientation="0,-1" position="37,12"></sodipodi:guide>
	<sodipodi:guide  id="guide8036" inkscape:locked="false" orientation="1,0" position="23.125,30.154535"></sodipodi:guide>
	
		<sodipodi:guide  id="guide8038" inkscape:color="rgb(0,134,229)" inkscape:label="" inkscape:locked="false" orientation="-1,0" position="13.374999,29.9375">
		</sodipodi:guide>
	
		<sodipodi:guide  id="guide8040" inkscape:color="rgb(0,134,229)" inkscape:label="" inkscape:locked="false" orientation="-1,0" position="20.750001,36.5625">
		</sodipodi:guide>
	<sodipodi:guide  id="guide9899" inkscape:locked="false" orientation="0,-1" position="13.374938,26.875"></sodipodi:guide>
</sodipodi:namedview>
<linearGradient id="path7769_00000083088161516566869450000016156013173150833024_" gradientUnits="userSpaceOnUse" x1="-362.2048" y1="510.2125" x2="-362.2048" y2="558.8705" gradientTransform="matrix(5.3333 0 0 5.3333 2123.679 -2735.5867)">
	<stop  offset="0" style="stop-color:#FCFCFC"/>
	<stop  offset="0.95" style="stop-color:#C3C9CD"/>
</linearGradient>
<path id="path7769" style="fill:url(#path7769_00000083088161516566869450000016156013173150833024_);" d="M344.7,224H39.2
	c-5.5,0-10-4.5-10-10V42c0-5.5,4.5-10,10-10h305.5c5.5,0,10,4.5,10,10v172C354.7,219.5,350.2,224,344.7,224z"/>
<linearGradient id="SVGID_1_" gradientUnits="userSpaceOnUse" x1="191.9202" y1="59.8467" x2="191.9202" y2="196.1533">
	<stop  offset="0" style="stop-color:#737B80"/>
	<stop  offset="0.473" style="stop-color:#686F74"/>
	<stop  offset="1" style="stop-color:#575C61"/>
</linearGradient>
<path class="st1" d="M81.5,67.1c-23.6,37.2-25.6,77.3,0.1,121.2c2.8,4.8,8.1,7.8,13.7,7.8H289c5.4,0,10.5-2.7,13.4-7.3
	c23.6-37.2,25.6-77.3-0.1-121.2c-2.8-4.8-8.1-7.8-13.7-7.8H94.9C89.5,59.8,84.4,62.6,81.5,67.1z"/>
<linearGradient id="SVGID_00000024708700963560695200000005954107739123068348_" gradientUnits="userSpaceOnUse" x1="191.3779" y1="74.9392" x2="191.3779" y2="175.3815">
	<stop  offset="0" style="stop-color:#DCDCDC"/>
	<stop  offset="0.95" style="stop-color:#ABAEB5"/>
</linearGradient>
<path style="fill:url(#SVGID_00000024708700963560695200000005954107739123068348_);" d="M281.8,154.1c6.3-16.5,6.5-33.8-0.5-52.2
	c-0.6-1.6,0.6-3.4,2.3-3.4h0.2c1.8,0,3-1.9,2.3-3.5c-1.9-4.3-4.2-8.7-6.8-13.1c-0.5-0.8-1.3-1.2-2.2-1.2h-60c-1.4,0-2.5-1.1-2.5-2.5
	v-0.6c0-1.4-1.1-2.5-2.5-2.5h-40.6c-1.4,0-2.5,1.1-2.5,2.5v0.6c0,1.4-1.1,2.5-2.5,2.5h-60.1c-0.8,0-1.6,0.4-2.1,1.1
	c-3,4.3-5.7,8.7-7.9,13.2c-0.8,1.7,0.4,3.6,2.3,3.6h0c1.8,0,3,1.8,2.3,3.5c-6.9,16.6-7.3,33.9,0.2,52c0.7,1.7-0.5,3.5-2.3,3.5h0
	c-1.9,0-3.1,2-2.3,3.6c2.1,4.3,4.7,8.7,7.6,13.1c0.5,0.7,1.3,1.1,2.1,1.1h170.8c0.9,0,1.7-0.4,2.1-1.1c2.8-4.3,5.3-8.7,7.3-13.2
	c0.8-1.7-0.5-3.6-2.3-3.6h-0.3C282.4,157.5,281.2,155.7,281.8,154.1z"/>
<linearGradient id="SVGID_00000070093511430363259340000016562377553090134961_" gradientUnits="userSpaceOnUse" x1="191.5484" y1="91.4077" x2="191.5484" y2="158.044">
	<stop  offset="0" style="stop-color:#737B80"/>
	<stop  offset="0.473" style="stop-color:#686F74"/>
	<stop  offset="1" style="stop-color:#575C61"/>
</linearGradient>
<path style="fill:url(#SVGID_00000070093511430363259340000016562377553090134961_);" d="M264.6,152.6H118.5c-0.9,0-1.6-0.7-1.6-1.6
	v-46c0-0.9,0.7-1.6,1.6-1.6h146.1c0.9,0,1.6,0.7,1.6,1.6v46C266.2,151.9,265.5,152.6,264.6,152.6z"/>
<circle class="st4" cx="137.2" cy="128" r="11.4"/>
<circle class="st4" cx="246.7" cy="128" r="11.4"/>
<g>
	
		<linearGradient id="SVGID_00000124148930371702368760000016225937493639319207_" gradientUnits="userSpaceOnUse" x1="153.869" y1="123.3595" x2="153.869" y2="131.8021">
		<stop  offset="0" style="stop-color:#FCFCFC"/>
		<stop  offset="0.95" style="stop-color:#C3C9CD"/>
	</linearGradient>
	<circle style="fill:url(#SVGID_00000124148930371702368760000016225937493639319207_);" cx="153.9" cy="128" r="3.1"/>
	
		<linearGradient id="SVGID_00000123440468549368076830000004612008579854930060_" gradientUnits="userSpaceOnUse" x1="160.7198" y1="123.3595" x2="160.7198" y2="131.8021">
		<stop  offset="0" style="stop-color:#FCFCFC"/>
		<stop  offset="0.95" style="stop-color:#C3C9CD"/>
	</linearGradient>
	<circle style="fill:url(#SVGID_00000123440468549368076830000004612008579854930060_);" cx="160.7" cy="128" r="3.1"/>
	
		<linearGradient id="SVGID_00000137827520914787327750000003658709726458981769_" gradientUnits="userSpaceOnUse" x1="167.5706" y1="123.3511" x2="167.5706" y2="131.7937">
		<stop  offset="0" style="stop-color:#FCFCFC"/>
		<stop  offset="0.95" style="stop-color:#C3C9CD"/>
	</linearGradient>
	<circle style="fill:url(#SVGID_00000137827520914787327750000003658709726458981769_);" cx="167.6" cy="128" r="3.1"/>
	
		<linearGradient id="SVGID_00000026849827730724257730000005772791831322634162_" gradientUnits="userSpaceOnUse" x1="174.4214" y1="123.3595" x2="174.4214" y2="131.8021">
		<stop  offset="0" style="stop-color:#FCFCFC"/>
		<stop  offset="0.95" style="stop-color:#C3C9CD"/>
	</linearGradient>
	<circle style="fill:url(#SVGID_00000026849827730724257730000005772791831322634162_);" cx="174.4" cy="128" r="3.1"/>
	
		<linearGradient id="SVGID_00000091007977030099019440000017872163426960097937_" gradientUnits="userSpaceOnUse" x1="181.2722" y1="123.3469" x2="181.2722" y2="131.7895">
		<stop  offset="0" style="stop-color:#FCFCFC"/>
		<stop  offset="0.95" style="stop-color:#C3C9CD"/>
	</linearGradient>
	<circle style="fill:url(#SVGID_00000091007977030099019440000017872163426960097937_);" cx="181.3" cy="128" r="3.1"/>
	
		<linearGradient id="SVGID_00000026876441666090255520000009867436593575995012_" gradientUnits="userSpaceOnUse" x1="188.123" y1="123.3385" x2="188.123" y2="131.7811">
		<stop  offset="0" style="stop-color:#FCFCFC"/>
		<stop  offset="0.95" style="stop-color:#C3C9CD"/>
	</linearGradient>
	<circle style="fill:url(#SVGID_00000026876441666090255520000009867436593575995012_);" cx="188.1" cy="128" r="3.1"/>
	
		<linearGradient id="SVGID_00000011728119418067398360000015749751297579669162_" gradientUnits="userSpaceOnUse" x1="194.9738" y1="123.37" x2="194.9738" y2="131.8126">
		<stop  offset="0" style="stop-color:#FCFCFC"/>
		<stop  offset="0.95" style="stop-color:#C3C9CD"/>
	</linearGradient>
	<circle style="fill:url(#SVGID_00000011728119418067398360000015749751297579669162_);" cx="195" cy="128" r="3.1"/>
	
		<linearGradient id="SVGID_00000084529151866290662420000001933036029873290642_" gradientUnits="userSpaceOnUse" x1="201.8246" y1="123.3616" x2="201.8246" y2="131.8042">
		<stop  offset="0" style="stop-color:#FCFCFC"/>
		<stop  offset="0.95" style="stop-color:#C3C9CD"/>
	</linearGradient>
	<circle style="fill:url(#SVGID_00000084529151866290662420000001933036029873290642_);" cx="201.8" cy="128" r="3.1"/>
	
		<linearGradient id="SVGID_00000039840473583433750970000015725798732272800411_" gradientUnits="userSpaceOnUse" x1="208.6754" y1="123.37" x2="208.6754" y2="131.8126">
		<stop  offset="0" style="stop-color:#FCFCFC"/>
		<stop  offset="0.95" style="stop-color:#C3C9CD"/>
	</linearGradient>
	<circle style="fill:url(#SVGID_00000039840473583433750970000015725798732272800411_);" cx="208.7" cy="128" r="3.1"/>
	
		<linearGradient id="SVGID_00000016061152642134112220000011382228689727119744_" gradientUnits="userSpaceOnUse" x1="215.5262" y1="123.3574" x2="215.5262" y2="131.8">
		<stop  offset="0" style="stop-color:#FCFCFC"/>
		<stop  offset="0.95" style="stop-color:#C3C9CD"/>
	</linearGradient>
	<circle style="fill:url(#SVGID_00000016061152642134112220000011382228689727119744_);" cx="215.5" cy="128" r="3.1"/>
	
		<linearGradient id="SVGID_00000178190528386587530070000011329732782159525299_" gradientUnits="userSpaceOnUse" x1="222.377" y1="123.349" x2="222.377" y2="131.7916">
		<stop  offset="0" style="stop-color:#FCFCFC"/>
		<stop  offset="0.95" style="stop-color:#C3C9CD"/>
	</linearGradient>
	<circle style="fill:url(#SVGID_00000178190528386587530070000011329732782159525299_);" cx="222.4" cy="128" r="3.1"/>
	
		<linearGradient id="SVGID_00000154413900942746920770000012152639999258550454_" gradientUnits="userSpaceOnUse" x1="229.2278" y1="123.3343" x2="229.2278" y2="131.7769">
		<stop  offset="0" style="stop-color:#FCFCFC"/>
		<stop  offset="0.95" style="stop-color:#C3C9CD"/>
	</linearGradient>
	<circle style="fill:url(#SVGID_00000154413900942746920770000012152639999258550454_);" cx="229.2" cy="128" r="3.1"/>
</g>
</svg>
