<?xml version="1.0" encoding="UTF-8" standalone="no"?>
<svg
   viewBox="0 0 48 48"
   width="256px"
   height="256px"
   version="1.1"
   id="svg7790"
   sodipodi:docname="SFP-Icon.svg"
   inkscape:version="1.2 (dc2aedaf03, 2022-05-15)"
   xmlns:inkscape="http://www.inkscape.org/namespaces/inkscape"
   xmlns:sodipodi="http://sodipodi.sourceforge.net/DTD/sodipodi-0.dtd"
   xmlns:xlink="http://www.w3.org/1999/xlink"
   xmlns="http://www.w3.org/2000/svg"
   xmlns:svg="http://www.w3.org/2000/svg">
  <defs
     id="defs7794">
    <linearGradient
       id="linearGradient8019"
       x1="-522"
       x2="-522"
       y1="-454.164"
       y2="-476.43301"
       gradientTransform="rotate(180,-242.06251,-220.11)"
       gradientUnits="userSpaceOnUse">
      <stop
         offset="0"
         stop-color="#737b80"
         id="stop7771-4" />
      <stop
         offset=".473"
         stop-color="#686f74"
         id="stop7773-3" />
      <stop
         offset="1"
         stop-color="#575c61"
         id="stop7775-4" />
    </linearGradient>
    <linearGradient
       id="linearGradient16548"
       x1="-522"
       x2="-522"
       y1="-454.164"
       y2="-476.43301"
       gradientTransform="rotate(180,-249,-220.11)"
       gradientUnits="userSpaceOnUse">
      <stop
         offset="0"
         stop-color="#737b80"
         id="stop7771-7" />
      <stop
         offset=".473"
         stop-color="#686f74"
         id="stop7773-7" />
      <stop
         offset="1"
         stop-color="#575c61"
         id="stop7775-8" />
    </linearGradient>
    <linearGradient
       inkscape:collect="always"
       xlink:href="#I4fYskwt_1jV05BsSV2Pob"
       id="linearGradient16553"
       gradientUnits="userSpaceOnUse"
       gradientTransform="rotate(180,-242.0625,-220.11)"
       x1="-522"
       y1="-454.164"
       x2="-522"
       y2="-476.433" />
  </defs>
  <sodipodi:namedview
     id="namedview7792"
     pagecolor="#ffffff"
     bordercolor="#000000"
     borderopacity="0.25"
     inkscape:showpageshadow="2"
     inkscape:pageopacity="0.0"
     inkscape:pagecheckerboard="0"
     inkscape:deskcolor="#d1d1d1"
     showgrid="false"
     showguides="true"
     inkscape:zoom="2"
     inkscape:cx="70.25"
     inkscape:cy="118.75"
     inkscape:window-width="1920"
     inkscape:window-height="1001"
     inkscape:window-x="-9"
     inkscape:window-y="1341"
     inkscape:window-maximized="1"
     inkscape:current-layer="svg7790">
    <sodipodi:guide
       position="11,27"
       orientation="1,0"
       id="guide8028"
       inkscape:locked="false" />
    <sodipodi:guide
       position="37,27"
       orientation="1,0"
       id="guide8030"
       inkscape:locked="false" />
    <sodipodi:guide
       position="24.1875,34"
       orientation="0,-1"
       id="guide8032"
       inkscape:locked="false" />
    <sodipodi:guide
       position="37,12"
       orientation="0,-1"
       id="guide8034"
       inkscape:locked="false" />
    <sodipodi:guide
       position="23.125,30.154535"
       orientation="1,0"
       id="guide8036"
       inkscape:locked="false" />
    <sodipodi:guide
       position="13.374999,29.9375"
       orientation="-1,0"
       id="guide8038"
       inkscape:locked="false"
       inkscape:label=""
       inkscape:color="rgb(0,134,229)" />
    <sodipodi:guide
       position="20.750001,36.5625"
       orientation="-1,0"
       id="guide8040"
       inkscape:locked="false"
       inkscape:label=""
       inkscape:color="rgb(0,134,229)" />
    <sodipodi:guide
       position="13.374938,26.875"
       orientation="0,-1"
       id="guide9899"
       inkscape:locked="false" />
  </sodipodi:namedview>
  <linearGradient
     id="I4fYskwt_1jV05BsSV2Poa"
     x1="24"
     x2="24"
     y1="50.6"
     y2="1.942"
     gradientTransform="matrix(1 0 0 -1 0 47.89)"
     gradientUnits="userSpaceOnUse">
    <stop
       offset="0"
       stop-color="#fcfcfc"
       id="stop7764" />
    <stop
       offset=".95"
       stop-color="#c3c9cd"
       id="stop7766" />
  </linearGradient>
  <path
     fill="url(#I4fYskwt_1jV05BsSV2Poa)"
     d="M40,42H8c-1.1,0-2-0.9-2-2V8c0-1.1,0.9-2,2-2h32c1.1,0,2,0.9,2,2v32C42,41.1,41.1,42,40,42z"
     id="path7769" />
  <linearGradient
     id="I4fYskwt_1jV05BsSV2Pob"
     x1="-522"
     x2="-522"
     y1="-454.164"
     y2="-476.433"
     gradientTransform="rotate(180 -249 -220.11)"
     gradientUnits="userSpaceOnUse">
    <stop
       offset="0"
       stop-color="#737b80"
       id="stop7771" />
    <stop
       offset=".473"
       stop-color="#686f74"
       id="stop7773" />
    <stop
       offset="1"
       stop-color="#575c61"
       id="stop7775" />
  </linearGradient>
  <path
     fill="url(#I4fYskwt_1jV05BsSV2Pob)"
     d="m 12,36 h 10.125 c 0.552,0 1,-0.448 1,-1 V 22.125 c 0,-0.552 -0.448,-1 -1,-1 H 20.750062 V 15 c 0,-0.552 -0.448062,-1 -1.000062,-1 h -5.375 c -0.552,0 -1.000062,0.448 -1.000062,1 v 6.125 H 12 c -0.552,0 -1,0.448 -1,1 V 35 c 0,0.552 0.448,1 1,1 z"
     id="path7778"
     sodipodi:nodetypes="sssssccssccssss" />
  <ellipse
     style="fill:none;stroke:#e3a600;stroke-width:0.956787;stroke-opacity:1"
     id="path8102"
     cx="17.0625"
     cy="28.554779"
     rx="3.2091069"
     ry="3.209075" />
  <path
     fill="url(#I4fYskwt_1jV05BsSV2Pob)"
     d="M 25.875,36 H 36 c 0.552,0 1,-0.448 1,-1 V 22.125 c 0,-0.552 -0.448,-1 -1,-1 H 34.625062 V 15 c 0,-0.552 -0.448062,-1 -1.000062,-1 H 28.25 c -0.552,0 -1.000062,0.448 -1.000062,1 v 6.125 H 25.875 c -0.552,0 -1,0.448 -1,1 V 35 c 0,0.552 0.448,1 1,1 z"
     id="path7778-2"
     sodipodi:nodetypes="sssssccssccssss"
     style="fill:url(#linearGradient16553)" />
  <ellipse
     style="fill:none;stroke:#e3a600;stroke-width:0.956787;stroke-opacity:1"
     id="path8102-3"
     cx="30.9375"
     cy="28.554779"
     rx="3.2091069"
     ry="3.209075" />
</svg>
